<?xml version="1.0" encoding="UTF-8"?>
<svg id="Ebene_1" xmlns="http://www.w3.org/2000/svg" version="1.1" viewBox="0 0 168 158.6">
  <!-- Generator: Adobe Illustrator 30.4.0, SVG Export Plug-In . SVG Version: 2.1.4 Build 226)  -->
  <path d="M52.3,20.3V0c.1,0,10.5,0,10.5,0v10.6l10.4.2v20.9c0,0,10.8,0,10.8,0V10.6l10.6-.2.2-10.6h10.2s0,21.2,0,21.2h-10.6c0,.1,0,10.5,0,10.5h21.3c0,0,.1-21,.1-21l10.4-.2V0c0,0,10.4,0,10.4,0v21.1c0,0-10.6,0-10.6,0v21.1h10.8c0,0,0-10.5,0-10.5h21.1s0,10.5,0,10.5h-10.7s0,10.7,0,10.7h-10.5s.1,10.6.1,10.6h21.1s0,10.5,0,10.5h10.1c0,0,0,10.6,0,10.6h-20.5c0,0,0-10.6,0-10.6h-10.7v21.2h21.2v10.5c0,0-31.7.1-31.7.1v10.4c0,0,10.5.2,10.5.2v10.3s10.6.2,10.6.2v21.1s-10.3,0-10.3,0v-10.6s-10.5-.2-10.5-.2l-.2-10.5h-21.2s0,10.7,0,10.7l10.5-.2.2,10.6h10.5c0,0,0,10.5,0,10.5h-21.1v-10.5c0,0-9.6,0-9.6,0l-.9.4-.3,10.1h-20.7l-.2-10.4h-10.5v-21.2s-10.8,0-10.8,0v10.5s-10.6,0-10.6,0v10.6c0,0-20.9,0-20.9,0v-10.7c.1,0,10.6.2,10.6.2v-10.8s10.6,0,10.6,0v-10.6c0,0-21.3,0-21.3,0l-.2,10.6h-10.4s0,10.4,0,10.4H0c0,0,0-21.1,0-21.1l10.1.2v-10.7c0,0,10.7,0,10.7,0v-10.6c0,0-20.8,0-20.8,0v-10.6h20.6v-10.6c.1,0-10.6,0-10.6,0v-10.7c0,0-10,0-10,0v-10.6s20.5,0,20.5,0l.4-.5-.2-10-10.6-.2v-10.4c0,0,20.4,0,20.4,0l.8-.3v-10.2s-10.4-.1-10.4-.1v-10.5h20.9v10.6c0,0,9.8,0,9.8,0l.9-.8h0ZM52.5,21l-.4.8v9.8c0,0,10.8,0,10.8,0v-10.5s-10.4,0-10.4,0h0ZM31.5,31.6l-.5.8v9.8h10.8s0-10.5,0-10.5c0,0-10.3,0-10.3,0ZM21.5,52.8l-1,.7.3,10,10.5-.2v-10.5s-9.8,0-9.8,0h0ZM73.6,95.1v-21.3c0,0-10.7,0-10.7,0l-.2,10.5h-10.3l.2-10.4h10.5v-10.7h-21.4s.1,10.6.1,10.6h-10.7s.1,21.3.1,21.3h10.5c0,0,0,10.5,0,10.5h21.3s0-10.5,0-10.5h10.6c0,0,0,0,0,0ZM94.1,73.7h-10.1v21.3l10.4.2v10.4s21.4,0,21.4,0v-10.6s10.5,0,10.5,0v-21.3s-10.5.1-10.5.1v-10.7c0,0-21.4,0-21.4,0v10.1c.1,0,1.1.5,1.1.5h9.5c0,0,0,10.3,0,10.3h-10.3c0,0,0-9.8,0-9.8l-.7-.7h0ZM94.7,147.2v-20.4h-21.5c0-.1,0,10.6,0,10.6h10.7s0,10.5,0,10.5h10.5l.2-.6h0Z"/>
</svg>