<?xml version="1.0" encoding="UTF-8"?>
<svg id="Ebene_1" data-name="Ebene 1" xmlns="http://www.w3.org/2000/svg" viewBox="0 0 392.06 491.85">
  <defs>
    <style>
      .cls-1 {
        fill: #ecedec;
      }

      .cls-2 {
        fill: #016daa;
      }

      .cls-3 {
        fill: #0a0d0f;
      }

      .cls-4 {
        fill: #060608;
      }

      .cls-5 {
        fill: #50a4c1;
      }

      .cls-6 {
        fill: #050505;
      }

      .cls-7 {
        fill: #09090a;
      }

      .cls-8 {
        fill: #030304;
      }

      .cls-9 {
        fill: #eaeaea;
      }

      .cls-10 {
        fill: #020203;
      }

      .cls-11 {
        fill: #52a5c1;
      }

      .cls-12 {
        fill: #e6e6e6;
      }

      .cls-13 {
        fill: #040405;
      }

      .cls-14 {
        fill: #51a4bf;
      }

      .cls-15 {
        fill: #0a0f12;
      }

      .cls-16 {
        fill: #070708;
      }

      .cls-17 {
        fill: #2b4451;
      }

      .cls-18 {
        fill: #030303;
      }

      .cls-19 {
        fill: #e4e4e4;
      }

      .cls-20 {
        fill: #2c4451;
      }

      .cls-21 {
        fill: #006daa;
      }

      .cls-22 {
        fill: #4994ad;
      }

      .cls-23 {
        fill: #050506;
      }

      .cls-24 {
        fill: #e5e5e4;
      }

      .cls-25 {
        fill: #51a5c2;
      }

      .cls-26 {
        fill: #010102;
      }

      .cls-27 {
        fill: #b5b5a9;
      }

      .cls-28 {
        fill: #e5e5e5;
      }

      .cls-29 {
        fill: #016ca8;
      }

      .cls-30 {
        fill: #016ba8;
      }

      .cls-31 {
        fill: #020304;
      }

      .cls-32 {
        fill: #060708;
      }

      .cls-33 {
        fill: #030506;
      }

      .cls-34 {
        fill: #c5c59f;
      }

      .cls-35 {
        fill: #0c0e0f;
      }

      .cls-36 {
        fill: #1871a8;
      }

      .cls-37 {
        fill: #141413;
      }

      .cls-38 {
        fill: #0b0b0b;
      }

      .cls-39 {
        fill: #030305;
      }

      .cls-40 {
        fill: #090b0d;
      }

      .cls-41 {
        fill: #080c0e;
      }

      .cls-42 {
        fill: #53a6c2;
      }

      .cls-43 {
        fill: #e2e2e1;
      }

      .cls-44 {
        fill: #4e9eb9;
      }

      .cls-45 {
        fill: #cccecf;
      }

      .cls-46 {
        fill: #0d0e0f;
      }

      .cls-47 {
        fill: #0d1013;
      }

      .cls-48 {
        fill: #d9d9b3;
      }

      .cls-49 {
        fill: #020305;
      }

      .cls-50 {
        fill: #d8d8a9;
      }

      .cls-51 {
        fill: #e9e9e9;
      }

      .cls-52 {
        fill: #0a0b0d;
      }

      .cls-53 {
        fill: #fefefe;
      }

      .cls-54 {
        fill: #07080a;
      }

      .cls-55 {
        fill: #4891a9;
      }

      .cls-56 {
        fill: #040406;
      }

      .cls-57 {
        fill: #090c0f;
      }

      .cls-58 {
        fill: #d4d4a6;
      }

      .cls-59 {
        fill: #010203;
      }

      .cls-60 {
        fill: #8f8f88;
      }

      .cls-61 {
        fill: #53a5c1;
      }

      .cls-62 {
        fill: #0a0a0a;
      }

      .cls-63 {
        fill: #fbfbfb;
      }

      .cls-64 {
        fill: #080a0b;
      }

      .cls-65 {
        fill: #50504a;
      }

      .cls-66 {
        fill: #050709;
      }

      .cls-67 {
        fill: #dadaaa;
      }

      .cls-68 {
        fill: #030405;
      }

      .cls-69 {
        fill: #090b0e;
      }

      .cls-70 {
        fill: #c6c7c6;
      }

      .cls-71 {
        fill: #52a4c0;
      }

      .cls-72 {
        fill: #0c0d0e;
      }

      .cls-73 {
        fill: #fdfdfd;
      }

      .cls-74 {
        fill: #040506;
      }
    </style>
  </defs>
  <path class="cls-10" d="M220.09.02c3.06.41,2.93,7.35,0,8.01l-.8,2c-1.14-2.95-4.81-1.5-5.58.89l1.96,1.2-.48,14.54-2.05,1.34c-2.07.31-3.92.75-5.55,1.32.26,13.67.09,27.24-.51,40.72-1.44,2.17-3.85,2.79-7.21,1.88-.09,1.53-1.69,2.47-4.8,2.81l.02,41.71c-.14,2.6-1.52,3.46-3.27,1.48l.27-46.68,8.05-1.39.45-48.05,6.37-.97.64-19.18c2.29,0,4.47-.24,5.47-1.64l7,.02Z"/>
  <path class="cls-73" d="M248.1.04c.83,2.16-.72,3.41-4.65,3.77l-.26,22.78-2.02,1.44c-.36,3.03-6.42,2.86-7.01-.03l-1.99-.87.14-9.64c-5.5-.11-7.69-1.19-7.97-7.01-2.47.04-3.89-.77-4.26-2.44V.02s28.02.03,28.02.03Z"/>
  <path class="cls-8" d="M254.06.02l.2,7.84,6.37.75.43,12.42c-.76,2.91-6.18,2.98-7.08-.06-.19-5.19-1.9-6.77-5.11-4.72-.07,3.96-.33,7.88-.79,11.77-1.86.92-4.13.77-6.04.02-.19.88-.48.86-.87,0l.3-26.37c2.92-.07,5.05-.3,6.63-1.62l5.96-.02Z"/>
  <path class="cls-21" d="M151.08,326c4.54,2.87,1.9,10.58-4.68,9.05.95,5.8-1.13,7.18-6.51,6.58l.24,10.91c-.72,2.74-3.4,4.06-8.05,3.94v15.39c4.31-.54,6.99.5,8.03,3.12l-.46,24.71c4.41-.14,6.63,1.52,6.67,4.99l-.04,7.61c3.53.31,5.79,1.5,6.8,3.59v12.05c4.95-.33,7.92.48,6.45,6.14,6.16-.73,8.94,1.54,8.34,6.79l9.7.07c2.99.68,4.21,3.37,3.67,8.05l18.48.1c1.77,1.49,2.76,3.76,2.97,6.82,8.72-1.95,12.84-.12,12.36,5.51,2.19.24,3.54,1.09,4.04,2.56h1c3-.04,2.96,6.32.05,6.87l-.04,2.19c-3.72-.19-7.46-.05-11.2.44.75,5.71-2.16,6.08-6.78,6.4.63,4.12-.39,6.68-3.04,7.66l-68.7-.13c-1.96-1.61-2.9-4.25-2.83-7.92l-9.44-.25-1.13-2.28c-1.79.15-2.57-1.05-2.32-3.6-2.5,0-4.04-.78-4.61-2.34l-2-.87.05-10.23c-2.99-.03-4.76-1.19-5.31-3.5l-1.98-1.16.24-16.55c-3.57.35-6.14-.53-7.72-2.64l-.23-18.93c-2.93.38-5.02-.29-6.27-2.03l-.04-10.5c-3.62-.6-7.46-.88-11.52-.83-1.78-1.33-2.42-3.6-1.93-6.78h-17.82s-1.4-2-1.4-2c-1.84.19-2.5-1.19-1.97-4.16l-9.99-.51c-.79-1.12-1.21-2.16-1.26-3.14-1.73.11-2.43-1.45-2.1-4.68l-9.53.31-1.44-1.95c-2.59,1.08-3.77-1.77-3.64-4.98-2.19.35-3.56-.27-4.11-1.87-1.84.24-2.56-1.19-2.14-4.28-2.58-.22-4.19-1.11-4.83-2.67-1.81.04-2.51-1.23-2.11-3.83-2.21.14-3.78-.59-4.7-2.2.29-7.65.43-15.08.41-22.29,2.03.6,4.16,1.02,6.4,1.24.87.28.86.61,0,1,1.73-.08,2.41.91,2.05,2.98,5.39-.95,7.64,1.71,6.77,8l10.76.03c2.78.49,3.98,2.82,3.6,7.01h22.69s.44-19.19.44-19.19c1.87-3.26,8.1-3.87,9.68-.43l.68-2,37.64.08c.39-2.61,1.31-4.68,2.73-6.23l17.78-.24c-.25-2.34.28-3.93,1.58-4.79-.23-.87,0-.87.61-.11l1.11-2.01c6.15-.03,12.3-.06,18.46-.09l1.41,1.99Z"/>
  <path class="cls-53" d="M367.28,284.1c3.27.56,4.86,3.11,4.76,7.65.59.95,1.37,3.35,2.88,2.94,1.59-.45,3.86-1.61,5-2.78-.06-.83-.02-3.04.65-3.27.44-.15,1.69.05,2.82.68-1.52,2.67-.91,5.83,2.16,7.37l-2.86,2.89.25,15.83c.01.92,1.95,3.27.58,3.97-3.21,1.19-5.49,3.43-5.49,7.24l-.04,23.04c2.5.79,4.09,1.99,4.37,4.12-2.84.71-3.91,2.03-5.04,3.59-1.28,1.77.55,2.83.56,4.64l.19,19.97c-2.89-1.18-6.21-.76-7.97,1.5-4.51,5.79,4.64,10.81,1.43,17.25-2.1.53-5.14-.14-6.94,1.65-.36,1.19-.67,3.72-1.93,3.99-1.36.3-2.71.21-4.17-.07-1.94,5.07-1.35,10.01-1.47,15.47l-6.32.71c-.69,7.23-7.94,5.98-12.25,12.57-5.14-1.09-9.03,1.48-11.49,5.69-2.59-.21-5.17.26-7.9,1.21l-1.81.63c-.35.12-.09.96-.06,1.32,3.88,1.82,2.5,7.12-1.35,8.95l-9.63.56c0,2.65-.8,4.63-2.39,5.94l-20.31.45-1.45-1.99c-1.88,3.79-11.31,2.23-14.13-.48.07-3.47-1.86-5.06-5.8-4.75-2.13-1.22-3.27-3.49-3.42-6.83-4.55.31-8.42-6.65-6.18-9.32.34-.4,1.02-.51,1.81-.54-.22-2.16.03-4.17.73-6.03-.15-1.79,1.04-2.57,3.57-2.34l.39-10.01,2.05-1.29c-.41-2.76-.25-3.5,2.15-1.34-.19-1.78.97-2.58,3.48-2.39l.24-8.27,2.03-1.29c-1.35-1.75.54-1.53,2.21-.95l2.53-2.45.12-15.01,2.01-1.37c-1.09-2.04-.52-4.58,1.29-2.73l4.55-.54c-.79-.09-1.97-.39-1.99-.94-.19-5.81-.35-44.75,1.07-46.6,1.59-1.27,3.57-1.83,5.95-1.7l.41-11.43,2.04-1.33c1.68-.67,3.47-.72,5.38-.13,2.69-1.17,3.78,2.82,3.9,5.83,2.78.06,4.79.31,5.7,3.4,1.43.27,2.01,1.53,1.76,3.8,2.38-.25,3.77.45,4.18,2.11,1.64.26,2.39,1.73,2.25,4.39l16.53-.11c-.8-7.06,7.34-7.26,12.78-6.33l1.41,1.98,1.27-.64c.17-4.65.36-9.3.59-13.95l1.03-.26c.48-2.39,3.31-2.12,5.24-1.88-.11-3.07.44-4.53,1.66-4.38-.44-1.72.49-2.46,2.79-2.22,1.99-6.43.8-9.53-3.58-9.29l-.97-2.16-2.02-.83-.26-11.19c-.77-.09-1.28-.78-1.55-2.07-2.42.25-3-.08-1.76-1.01l-.32-3.16c-6.01-.01-9.57-3.4-6.96-9.04.11-.77.35-1.91.9-1.98,5.03-.66,15.29-.94,14.24,5.86,4.24.28,8.52.58,12.82.89,2.48,1.37,2.75,6.31,1.11,8.5Z"/>
  <path class="cls-21" d="M358.06,443.01l2,1.12.02,17.77c8.99-1.73,9.2,6.51,8.08,13.6l-1.99,1.41-.15.92-.71,1.99c-34.34-.25-68.69-.5-103.05-.75l-1.2-2.01c-3.57-1.2-2.45-6.46,1.02-8.08l24.8.02c-.34-3.85.71-6.19,3.15-7.01h17.88c-.36-3.86.76-6.04,3.34-6.56l9.42.19c.07-3.48,1.17-5.69,3.3-6.63h12.06c-.29-5.51-.06-8.83,6.53-8-.32-1.88-.05-2.97,2-3.47,1.94-5.79,9.91-4,8.5,3.31,2.51-.14,4.18.58,4.99,2.17Z"/>
  <path class="cls-26" d="M165.91,166.7c1.54.84,2.08,2.53,1.62,5.06l23.89.26c2.03,1.14,3.07,3.3,3.13,6.49l11.96-.12c1.67,1.3,2.59,3.4,2.75,6.28l9.55.29,1.29,2.04c.42,2.51.73,5,.93,7.49,4.03-.26,8.04-.15,12.01.35.81-1.58,1.52-1.44,1.68.32.4,3.51,1.9,5.49,4.51,5.92,3.76-3.44,6.21,5.46,1.79,5.9,4.21.47,8.55.73,13.01.79,1.57-.65,1.99-.08.94,1.27.97,1.51,1.12,3.84-.21,5.16,1.85-2.15,7.67-1.89,6.38,1.75-.32,3.86,2.36,5.51,8.04,4.95l.44,1.7c-1.04,4.35.76,6.53,5.39,6.54.09-.87.34-.82.73.04.56,2.81,1.12,4.84,1.68,6.1,1.67.06,3.24.3,4.69.71,2.89.44,2.41,9.04,1.96,11.69l-2.01,1.35c-3.86,6.25-11.54-.29-6.85-5.92-1.63.73-3.5.61-5.13-.06-1.53,1.21-2.09.65-1.05-1.03l-.75-6.12c-.84,3.54-7.68,3.23-7.23-.76-.76-1.69-.57-3.61-.17-5.37-5.69,4.3-9.7.26-8.5-6.44-6.72,1.47-7.89-3.76-5.05-8.37-4.01.65-8.28,1.11-12.29.12-2.01-.51-2.82-2.2-2.44-5.05-4.84.27-8.45.32-7.74-5.67l-11.08-1.02c-1.96-.63-2.14-1.64-.79-3.27.3-4.24-2.54-5.71-8.52-4.41l-3.31-.5c-4.02,1.7-4.73-6.7-.99-7.06-7-.4-14.05-.75-21.15-1.07-1.73.13-2.44-1.41-2.12-4.63l-79.02-.05c-.3,2.42-1.19,3.98-2.68,4.68-3.78.61-7.69.78-11.72.53-.65,1.22-1.09.98-1.36-.52-.03-1.7-.36-4.24.99-5.51.97-.9,3.35-1.11,5.2-1.2,1.16-1.97.78-3.83,1.05-6.18l68.53-.09.68-6.52c2.76-.32,5.32-.35,7.43-1.39.85.32.82.51-.09.58Z"/>
  <path class="cls-53" d="M379.13,283.98c-.42,1.6-1.97,2.31-4.63,2.12.53,2.65.07,4.53-1.38,5.62l-1.08.03-4.76-7.65c-.41-1.59.63-2.37,3.13-2.36l-.12-15.61c-5.55.09-6.17-2.05-6.65-6.81-6.83.25-7.67-1.65-7.78-7.91l-15.59.53c.35,5.55-.9,7.3-6.65,7.77l.3,8.94-1.83,1.65c-2.27,3.92-7.24,2.79-10.36.19,3.49-5.4.06-7.4-10.29-6.02l-1.34-.57c-.81.07-1.94-.11-1.98-.68-.44-5.75.36-8.49,6.75-8.42-.13-5.09.25-8.38,6.23-7.82-.27-5.91,3-6.17,7.96-6.14-.39-5.48,1.36-7.31,6.85-6.98-.38-2.68.37-4.25,2.26-4.71,3.49.23,8.42-3.39,5.78-6.75-1.04-1.32.19-2.25,1.94-3.3.89-.53,19.68.34,20.51.95,1.3,1.86,1.86,4.12,1.68,6.8,3.8.01,5.96,1.27,6.49,3.77l.09,24.1c3.7.18,5.78,1.37,6.23,3.56l.2,24.23-1.99,1.46Z"/>
  <path class="cls-10" d="M379.13,283.98l-.23-26.82c-1.91.17-4.87.26-6.22-.98l-.1-26.68-6.33-.64-.6-7.41-20.67-.35.15,7.89-6.95.18c-.73-.75-.96-1.57-.54-2.47,8.94-2.71-.61-2.96-5.2-2.68l-1.37-2.01c-.5-.29-.51-.64-.08-1.05.36-.86.72-.83,1.09.05,3.38-.54,6.89-.77,10.54-.69.77-1.46,1.36-3.19,1.78-5.19l.84-2.01,10.82-.39-.03-9.41,2-1.36,8.01.17.18,12.72,5.75.45.83,5.95,5.95,1.28.3,26.46,6.54.74.26,27.14c2.47.29,4.31.07,6.2,1.16l-.03,88.72-6.08.48-.29,20.54c-1.07,1.45-5.05,1.43-6.41.06l.15-26.3,6.7-.82-.06-76.48-6.9-.24Z"/>
  <path class="cls-26" d="M344.58,437.53c.1,1.58-.38,3.11.45,5.13-2.09.66-4.21.28-6.9.33l-.08,8.01h-14.91s.18,6.69.18,6.69l-13.19-.27-.1,6.59h-20.88s-.13,7.01-.13,7.01l-27.82-.02-.12,6.08-18.82-.11c-1.21-1.07-1.19-4.11-1.19-5.91l-20.92-.19-.05-6.87c3.86.17,5.98-1.77,6.34-5.82-.02-.88.23-.85.73-.03.69-.34,7.54-1.32,7.95-1.2.43.12.69.62.69,1.23-1.31,1.55-1.71,3.43-1.21,5.66.07-.7.26-1.96.69-1.99,4.45-.32,27.72-.68,30.65.17l1.16,2.01c4.27-.83,8.75-.78,13.03.03.23-1.06.2-2.7-.07-4.93l1.99-1.27,21.5-.17c.28-2.43.37-4.15,1.17-6.16l12.09-.7c.52-2.53.53-4.84.36-6.89h1.85c4.47-.26,8.76-.78,12.88-1.55-.04-2.76.61-4.49,1.97-5.19,3.98-.63,7.55-.51,10.71.36Z"/>
  <path class="cls-10" d="M317.13,146.03c1.54.64,3.21.79,4.99.47l.97,6.23c-4.46-.15-8.79-.39-13.01-.73-.58-2.17-.82-4-.7-5.47-4.94.32-9.64.03-14.1-.89-.89.08-.87-.16-.06-.7-.99-1.54-1.03-3.65.06-5.13-5.47,3.97-12.04-1.32-6.27-5.93l-6.8-.59c-.32-2.79-.81-5.33-1.47-7.62l-4.68-.59c-.86-.34-.84-.7.04-1.07-.86-1.5-.72-4.26-.03-5.86-.34-1.77.83-2.49,3.49-2.14.2-2.18,1.05-3.51,2.53-3.99-2.11-.68-4.81-1.13-6.44.59-1.06-.58-1-1.25.04-2-.28-11.02-.14-21.97.42-32.86-.9,1.04-1.7.96-2.39-.25l-5.21-.52.05-32.59c-1.22-.72-.97-1.19.54-1.45,1.54-.15,5.06-.66,6.26.84l.54,26.08,6.02,1.28.18,33.8,6.54.61.53,19.26,5.89.44,1.03,7.55,6.95.39.67,5.94,12.76.39.65,6.52Z"/>
  <path class="cls-31" d="M220.1,473.05l-.35,3.88-6.56.16-.27,7.81-5.87.18-.62,6.69-82.79.08-.69-6.73-5.78-.12-.62-6.79c-1.88-.55-1.6-1.34.43-1.24,4.11,1.05,8.37.36,12.96.56l.12,7.99,69.95.02.16-7.83,6.44-.22c.62-2.26.29-4.07.05-6.41l10.57-.12c1.59-.02,2.57,1.05,2.88,2.08Z"/>
  <polygon class="cls-39" points="366.03 477.83 365.8 484.99 261.47 485.02 261.07 477.07 366.03 477.83"/>
  <path class="cls-26" d="M102.78,456.43c-2.13.59-4.46.89-6.97.89l-.68-14.17-6.02-.3-.32-19.9c-1.57.24-6.16.51-6.23-1.05l-.62-13.54-12.66-.26-.34-6.07-13.86-.1c-1.16-2.29-.99-4.73-.97-6.93h20.93c.62,2.49.34,4.46.06,6.97l13.74.05-.29,13.04,6.54.03.08,21c2.62.83,5.06.32,7.92-.15l-.29,20.49Z"/>
  <path class="cls-26" d="M60.96,318.23c3.02-.44,2.99,6.2.11,6.77,4.58.41,9.31.6,14.17.58,1.65.07,2.51,1.88,2.57,5.42l23.6-.06c-.36.96.2.96,1.7,0-.7-1.36-.96-3.74.2-4.87.17-.88.45-.86.83,0,7.85-.62,15.82-.79,23.91-.49,1-1.21,1.67-.94,1.43.63.66,2.01.87,4.16.48,6.79h-19.78s-.25,6.48-.25,6.48l-40.85-.08c-2.77-.64-2.56-4.35-.46-5.89-6.88-.31-13.52-.03-19.91.84l-.62-1.35c-1.71.76-1.75.36-.13-1.18-.16-1.42-.17-3.61.6-4.93.6-1.05,4.25-.25,5-1.21,1.5-1.92.52-5.66.54-7.64.27-.88.61-.87,1-.01,1.86-.74,4.1-.84,5.88.22Z"/>
  <path class="cls-10" d="M199.88,71.92c.79.08,1.98.36,2,.9.7,17.47.37,35.86-.54,53.12-2.18.95-4.6,1.35-7.26,1.22v18.18c-1.01,2.27-3.09,3.17-6.24,2.71.85,5.31-5.75,8.65-8.8,4.97-.88-.09-.86-.34,0-.74l.49-12.74c2.21-.11,4.18-.12,6.17-1.14l.33-19.49c1.09-1.28,4.35-1.17,5.79-1,.35.04,1.28.15,1.28-.9l-.02-44.83,6.8-.27Z"/>
  <path class="cls-74" d="M55.98,215.65l1.66,1.6c.29,4.9.27,16.45-6.19,15.92l-.28,8.42-2.04,1.3c-.99,20.26-.88,41.82-.04,62.13-.33-2.74,4.63-2.39,5.98-1.16,1.45,1.32,2.18,13.49-.99,14.16l-5.87-.17-.69-5.56c-2.11-.47-4.27-.25-6.15-1.34v-67.32s6.23-1.11,6.23-1.11l.55-12.37c1.73-.15,4.62-.35,5.63-1.5l.38-11.57c.04-1.29,1.31-1.26,1.82-1.43Z"/>
  <path class="cls-10" d="M338.14,166.96c2.09.11,4.05-.02,6.43.88l.5,12.18,12.86.74.11,21.19c-.17.89-.48.88-.93.04-1.5.89-3.46.67-4.95-.12-.07.89-.31.83-.7-.06-.13-5.3-2.33-7.46-6.59-6.49l-.59-.68c-.83.04-.81-.22-.06-.72.11-4.71-1.92-7.02-6.1-6.93-.88-.26-.87-.59-.02-.99-.52-3.73-.75-7.51-.69-11.35-1.51.21-3.61,0-6.3-.63-.59-3.73-.73-7.53-.41-11.38-1.2-.67-.94-1.12.55-1.38.21-.36.42-.64.6-.62,5,.44,5.29.87,5.71,4.83.06.54.27,1.05.59,1.49Z"/>
  <path class="cls-10" d="M366.17,476.91l-.1-12.87-7.98-.11-.02-20.93,7.9.24.21,14.56c2.33.16,4.25,0,6.19.86l-.28,18.11c-2.34.44-4.15.24-5.91.13Z"/>
  <path class="cls-23" d="M358.06,443.01c-2.31-.07-4.75.49-7.12-.47.22-2.81.33-4.79-.14-6.25-3.15-.07-4.68.18-6.23,1.24l-11.5.73c.26,1.24.22,5.3-1.12,5.34l-12.95.31c.33-.49.91-.95,2.08-.97l9.8-.19.68-4.7c.14-.95,1.67-2.1,3.49-2.09l9.83.02.26-5.81,5.81-.47.57-6.11c2.29-.68,4.13-.81,6.54-.36v19.78Z"/>
  <path class="cls-69" d="M7.07,334.7c-.19-.26-.12-.7.22-.73,13.32-.5,26.73-.71,40.21-.61l.04,6.26c-14.09.26-28.06.1-41.91-.48.9-1.24,1.38-2.72,1.45-4.44Z"/>
  <path class="cls-10" d="M61.06,214.98c1.96-.27,1.98.74.04,3.02.78.1,1.94.33,2,.89.28,2.51.26,16.78-.71,17.98-1.81.95-3.91,1.41-6.27,1.37.48,2.73-.23,4.37-2.12,4.92-1.44.67-3.83.83-4.86-.25l.4-12.08c9.01,1.62,3.73-5.27,6.45-15.16,1.63-.55,3.37-.69,5.08-.68Z"/>
  <path class="cls-13" d="M366.05,422.7l-7.77.19.22-13.52,7.57-1.29c-.06-1.99.15-4.02.57-5.09.47-1.19,4.31-1.49,5.27-.49,1.15,3.5.33,7.5.47,11.85-1.95.74-3.91.47-6.17.58l-.16,7.77Z"/>
  <path class="cls-8" d="M75.12,195.03c2.79,1.18,2.71,5.82,2.43,8.7-.61,6.34-2.74,7.93-8.38,5.16.75,1.63.73,3.54,0,5.19.71,3.08.25,2.92-2.1.94-.33,2.65-1.25,2.53-1.99-.01-2.5,1.42-3.84,1.41-4.03-.03l.44-12.42c2.51-.83,4.77-.59,7.29-.65l.79-6.32c2.12-.68,3.83-.67,5.54-.57Z"/>
  <path class="cls-56" d="M269.1,42.93l-.67,1.39c-2.45-.47-4.84-1.03-7.17-1.68-.84-.16-.85-.45-.08-.87-.93-6.3-.88-13.38-.14-19.79-.88-.23-.85-.55.02-.96l7.92.83.11,21.07Z"/>
  <path class="cls-46" d="M48.08,333l2,.77c-1.27.79-1.93,2.54-1.97,5.24,1.93.38,1.94,1.18.02,1.6-11.82.21-23.5.01-35.05-.6l-6.04.11c-.04,7.12.35,13.71-.35,20.71,2.67.49,4.28.16,6.2-.58l.19,6.84c-1.84-.03-4.58,1.04-6.3-1-.41-1.02.28-3.48-1.08-5.03-1.1.1-4.43.17-5.05-.98-.08-1.7,1.06-2.42,3.43-2.16l.03-15.52,2-1.4-2.35-1.15c2.18-.78,2.47-3.15,3.31-5.14l.09,4.32h39.78c.25-1.82.25-3.21,0-5.01l-39.66-.04c0-.59.68-1.01,1.75-1.01l36.07.06c1.26,0,2.26-.62,2.84-1.2l.13,1.18Z"/>
  <path class="cls-23" d="M6.12,340.99l-.04,18.96-5.42.12c-.94-6.18-.8-12.95-.02-19.09,1.68-.6,4.19-1.09,5.48.01Z"/>
  <path class="cls-4" d="M102.78,456.43c2.09.72,4.01,1.79,7.33.83l-.07,13.77c-1.68.04-5.59.76-6.45-1.17l-.58-12.01-7.19-.53c2.12-.56,5.09-1.54,6.97-.89Z"/>
  <path class="cls-40" d="M40.89,387.2c.79.83,1.88,1.55,3.68,1.51l9.59-.2-.04,6.49-12.48-.28-.76-5.88c-4.87-.12-9.53.91-13.94-.44.19-2.01,2.11-2.93,5.75-2.74,3.31-.53,6.04-.02,8.21,1.53Z"/>
  <path class="cls-57" d="M338.14,166.96c-1.08-.06-1.65-2.47-.71-4.27l-6.18-1.43-.54,1.3c-2.22-.8-4.71-1.43-7.45-1.9-.87.05-.84-.2-.04-.71-.35-2.19-.77-4.28-1.26-6.25-3.68.05-7.3-.18-10.86-.69-.28.87-.62.86-1,0v-1s11.78-.33,11.78-.33v-4.77c-1.62.49-4.61.34-4.73-.88l5.93.07.51,6.32,7.32.74.72,6.37c1.31,1.58,4.39,1.31,6.22,1.51l.32,5.91Z"/>
  <path class="cls-16" d="M40.89,387.2c-2.32.85-5.17.27-8.04.46l-5.92.75.02-1.06c-.93-2.86-.64-5.02.87-6.48l13.22-.42-.15,6.76Z"/>
  <path class="cls-7" d="M378.59,400.76c-.04,1.51-4.58,1.6-5.66.53l-.02-11.55c.46-1.39,4.48-1.35,6-.47l-.33,11.49Z"/>
  <path class="cls-64" d="M179.04,152.29v.74c2.43-1.15,2.47,5.03,2.01,6.26-1.54,4.09-6.83,5.08-9.08,1.59-.41,2.96-2.32,2.77-3.13-.12,1.29-.1,2.74-.72,3.17-1.59.51-1.02-.12-3.99.4-4.84,1.31-2.15,4.75-1.73,6.63-2.04Z"/>
  <path class="cls-72" d="M82.11,187.01c2.25.57,2.76,1.2.48,1.54.26,1.88.12,3.7-.43,5.48,1.18,1.55.61,2.1-1.05,1.03-1.62.7-3.49.71-5.14.03-.24.87-.52.83-.86-.05.13-2.01-.15-5.01,1.07-7.02.95-1.58,4.37-1,5.92-1Z"/>
  <path class="cls-36" d="M379.13,283.98c-.04,2.05.6,5.27-.79,7.19-1.1,1.28-3.99.41-5.23.54-.7-2.13-.84-4.47-.45-7.24,2.26-.8,4.4-.57,6.47-.5Z"/>
  <path class="cls-47" d="M27.82,380.87c-.98,2.11-.83,4.34-.87,6.48-1.09-1.68-.97-3.77-.85-6.21l-5.5-.61c-.88-2.39-.52-4.46-.53-6.5,1.54-.03,5.01-.89,6.19,1.02.39,1.93-.68,4.82,1.55,5.82Z"/>
  <path class="cls-35" d="M20.07,374.02c-1.61.03-4.86.7-6.09-.76-1.33-1.58-.84-4.59-.89-6.18l6.75.15.23,6.8Z"/>
  <path class="cls-4" d="M116.97,476.98l-.43,1.24c-1.74-1.01-3.77-1.1-6.07-1.24l-.44-5.94,6.41-.14.52,6.09Z"/>
  <path class="cls-18" d="M168.84,160.76c1.07.3,2.11.16,3.13.12,3.61,1.13,2.64,6.29-.83,8.03-1.03.52-5.68-.12-5.24-2.21.03-.18.11-.43.09-.58-.19-1.37-.45-2.82.16-4.43.37-.97,1.63-.84,2.68-.92Z"/>
  <path class="cls-69" d="M3.76,339.84l1.76-.07c.37-.01.59.7.59,1.22H.63c.42-.95,2.33-1.12,3.13-1.15Z"/>
  <path class="cls-55" d="M219.9,20.15c.27-3.02,6.66-1.43,6.52,1.53-1.01,2.02-1.11,4.22-.31,6.34,2.33.62,4.74.77,7.23.43,0,4.7.36,9.16,1.06,13.36,1.02-.36,1.3-.06.84.92,1.85.65,3.64,1.08,5.38,1.29-.24,6.43-.05,12.74.58,18.92.89.03.88.29.06.75,1.44,1.39,4.16,1.1,5.77.19.37-.92.72-.9,1.04.05.78.09,1.94.33,2,.89.27,2.33.32,17.61-.61,18.59-.32.34-.8.53-1.33.67,1.88.38,3.64.68,5.3.91-.18,6.44.09,12.76.79,18.94.88.21.85.52-.01.91,1.85.71,3.9.95,6.12.74-1.04,5.93,1.65,8.28,8.08,7.04l.36,6.14c.26-1.28.47-1.81,1.35-.76l4.28.84.58,5.23c.16-1.73.66-1.79,1.13-.06l-.04,1.07,5.4.67c-1.3,6.35,1.22,9.06,7.56,8.13.42,1.59-.6,4.02.54,5.93,1.15-1.01,5.26-1.49,5.73,0-1.04,1.55-1.01,3.56-.06,5.13l.06.7c4.49.9,9.26,1.23,14.3.99-.25,2.19-.09,4.32.51,6.38h1c3.92.32,7.8.72,11.62,1.19-.37,2.04-.21,3.96.5,5.75,0,.22.09.51.04.71,2.05.89,4.47,1.25,7.28,1.07-.07,4.12.12,8.22.57,12.3,1.8.65,3.72.79,5.75.4.53,3.78.94,7.65,1.24,11.58l.02.99c1.55.6,3.3.85,5.25.75-.07,2.22.22,4.27.85,6.18,0,.18.16.56.06.72,1.58.82,3.58,1.13,6.01.94.06,2.23.45,4.31,1.17,6.23l.7.06c1.55.76,3.38.98,4.95.12l.93-.04.04,13.05-13.67.12c-.81,1.3-1.09,2.92-.83,4.86-3.88.28-7.71.62-11.49,1.01l-1.09-.05-.65,7.38c-2.15-.03-4.21.23-6.17.79.04.91-.21.89-.72.05-.68,1.84-1.12,3.89-1.35,6.16l-5.04.61c6.46,5.64-2.85,12.72-7.09,6.27-.5,1.9-.67,3.9-.5,6.02l-6.64.55-.27,7.61-13,.08c1.29-7.17-.83-9.62-6.37-7.36.02,1.94-.75,1.88-1.15-.1l.05-13.04c-4.63.26-6.54-1.72-5.74-5.94l-.64-.87c-.17.1-.55-.04-.73-.04-1.61-.59-3.37-.89-5.28-.89.3-7.52.28-8.47-7.75-7.74l-.83-4.56c-1.41-1.94-4.86,0-6.38-1.75,1.3-1.43,1.16-3.55.21-5.16-.31-.16-.89-.67-.94-1.27-4.41-.12-8.75-.39-13.01-.79.36-2.29.83-5.28-1.79-5.9-2.58-.05-4.08-2.02-4.51-5.92-.44.16-1.31-.13-1.68-.32-4.11-.45-8.27-.6-12.46-.42.3-2.87.13-5.68-.52-8.42-1.98-.71-2.13-1.88-1.92-3.7-2.09.5-3.94.19-5.53-.93-1.34-8.68-1.91-17.61-1.73-26.81-2.89.29-5.61.18-6.09-3.16l.29-80.17,2-1.19c.6-13.65.77-27.44.51-41.35,1.96.12,3.81-.11,5.55-.68l.57-17.08c-.49-2.92,3.54-2.73,5.78-2.03-.17,3.79-.04,7.54.4,11.25Z"/>
  <path class="cls-21" d="M207.09,70.04l-.3,82.29c1.89.71,3.71-.03,5.67.09,2.31,8.72-.63,19.49,1.49,27.74,1.12.72,3.69.22,5.56-.49,1.05,2.25.46,4.31.54,6.33l.04,1.01-13.53-.41.25-6.33-14.59.3-.23-6.54-26.23-.22c-.49-2.89-.26-5.04.14-7.1l6.12.25-.05-6.07,7.08-.28v-7.57s5.74-1.09,5.74-1.09c1.46-1.3.94-4.03.55-5.81l6.73-.19v-20.87s8.02-.15,8.02-.15l-.23-53c1.05-2.62,3.57-1.5,7.21-1.88Z"/>
  <path class="cls-42" d="M213.15,28c-.34,1.29-3.43,1.24-5.03,1.05l-.02,39.95c0,.86-.69,1-1.01,1.03V28.15s6.06-.15,6.06-.15Z"/>
  <path class="cls-14" d="M220.09,8.03c3.17.9,2.87,11.04-.19,12.12-1.93-3.24-.26-7.45-.99-10.81-1.43-1.2-4.45.29-5.19,1.59-.05-.65-.91-1.55-.51-2.89h6.88Z"/>
  <path class="cls-8" d="M234.17,28c-.59,2.25-1.25,2.76-1.6.47-2.22.31-4.37.15-6.47-.45-.85-2.03-.72-4.4.31-6.34l-6.52-1.53.19-12.12,5.92.29,1.16,6.62,7.18.63-.18,12.43Z"/>
  <path class="cls-66" d="M241.18,28.03c2.41,1.61,2.42,9.24,2.12,12.39l-1.66,2.07c1.77-1.37,4.44-1.55,6.45-.46v.98c.02,3.02-6.35,2.98-6.9.1-.13,2.29-.91,2.69-1.32.41-1.71.26-3.25,0-4.63-.79-.15-.39-.48-.71-.84-.92-.82-3.89-1.09-8.03-.78-12.42-1.17-.66-.91-1.11.56-1.39l7.01.03Z"/>
  <path class="cls-55" d="M253.99,20.97l7.08.06-.02.96c-.86,6.3-.82,13.63.14,19.79,0,.31.19.73.08.87,1.92,1.05,4.33,1.35,7.24.9v33.44c4.83-.02,6.86.82,6.1,2.54.27,3.42,1.2,29.86,0,30.82-.3.24-4.61.23-5.04-.01.26-4.15.1-8.26-.47-12.33-2.77-.37-5.23-.75-7.4-1.14l-.15-18.84c-1.61,1.42-2.26.95-1.44-1.02l-4.45-.88c.23-3.7.08-7.36-.46-10.98-3.46,1.15-5.45.52-5.99-1.89-.48-6.92-.85-13.99-1.11-21.22-2.01-1.07-4.6-.91-6.45.46-1.03-4.76-.51-9.65-.45-14.46h.87c1.93.74,4.13.88,6.04-.01.44-4.08.69-8.18.74-12.32,3.57-1.32,5.29.44,5.16,5.27Z"/>
  <path class="cls-42" d="M253.99,20.97c-1.22-.02-1-2.61-.98-4.02.02-1.52-3.79-1.51-3.92-.14-.37,4.02,1.09,8.11-1.01,11.21v-12.87s5.94-.03,5.94-.03l-.03,5.85Z"/>
  <path class="cls-42" d="M248.08,28.02c-1.03,1.79-4.9,1.47-6.04.02l6.04-.02Z"/>
  <path class="cls-55" d="M281.97,276.93c1.58-3.55,7.43-2.53,9.12,1.03.66,1.38.27,26.98.04,30.6l-2,1.46c-.63.8-1.7,1.2-3.22,1.2.56,2.87-2.69,3.37-3.85.74-.6,4.4-.78,8.9-.55,13.5-1.88-.23-3.69-.06-5.44.51,1.65,1.05,1.25,1.7-.73,1.24-.44,2.44-1.19,4.39-2.25,5.85-.2,2.97-3.41,2.78-4.12,0-.51,1.64-.64,3.4-.41,5.28-4.61-.19-9.08.08-13.41.78,0,.89-.24.89-.73.08-.79,1.63-1.13,3.69-1.03,6.18l-5.32.56c1.95.48,2.63,2.31,2.03,5.49,2.14.24,3.46,1.08,3.96,2.55.19-.95.55-1.26,1.07-.94.84-2.17.85-4.51-.54-6.46,1.26-4.02,12.43-3.84,14.47-.56.04-2.96,4.45-2.81,5.03-.02l.15,33.19-1.17,1.45c-.96,2.97-3.87,2.72-3.96-.4-.89,6.51-.8,14.2.01,20.79,1.82-2.3,2.81-1.8,2.02,1.02-.8.03-1.61.47-2.21.95-1.52,1.65-7.38,1.79-7.86-.95-.72,4.08-1.09,8.67.33,12.59-2.89-.42-5.27-.17-7.12.75.89.1.82.34-.08.7-.64,1.9-.91,3.95-.82,6.15-1.93-.07-3.67.18-5.23.73,2.9.49,2.39,9.14,1.92,11.82l-2.01,1.36c-.29.88-.64.86-1.04,0-6.22-2.1-6.86.19-6.57,6l-5.3.99c-.03.89-.29.88-.77.06-.8,4-1.1,8.44-.9,13.31-2.2-.26-4.33-.1-6.4.48,1.73.05,1.82.67.07,1.15-.22,0-.62.06-.73.03-.69,1.56-1.16,3.26-1.39,5.1l-5.95.72-5.92-.07-.32-6.64-12.7.8-.12-7.09h-20.88s-.11-8.01-.11-8.01c-4.73-.23-8.82.68-13.7-.57.17-1.62,1.29-5.28-.6-6.14-2.14-.59-5.13,1.09-7.44-.68l.81-5.54-7.01-.1-.02-14.89-7.09-.12c.56-4.45.8-8.37-.07-12.84l-6.3-.31.51-27.72-8.05-.12v-19.89s8.09-.11,8.09-.11l-.38-12.94c-.05-1.68,4.53-1.89,6.11-.75,1.63-2.87-.02-4.63.02-7.14l7.11-.16.06-6.95.87-2,11.51-.02c-.4-3.19.48-5.1,2.65-5.72-.17-1.78,1.01-2.38,3.52-1.78-.05-2.65.78-4.2,2.49-4.64.34-.86.69-.83,1.04.05,3.64.79,9.43,1.09,12.76-.25-.95-.05-.9-.3.04-.73-.02-4.11,1.69-6.07,5.13-5.87-1.09-1.44-.52-1.97,1.05-1.04l.81-4.28,7.25-.5c-.97-.33-1-.73-.1-1.21-.87-.28-.86-.62,0-1l.67-4.34c4.25.08,8.38-.14,12.4-.67-2.99-.33-2.28-5.86.61-6.08l.28-1.03c4.37-.18,8.72-.47,13.04-.89.79-1.96.74-3.98-.1-5.93-.89-.26-.89-.6-.04-1.03.09-.78.33-1.95.89-2,5.42-.52,15.79-.58,21.18-.11,3.04-.62,4.95.03,5.75,1.97.86-1.3,1.19-3.09.99-5.36,8.59-.04,17.18-.02,25.78.07-.27,1.85-.12,3.63.43,5.34Z"/>
  <path class="cls-27" d="M67.08,215.02c2.71-.89,2.91-.77,3.84,1.88l-.45,16.95c2.98-.24,5.15.52,6.52,2.26l.68,11.25c6.33-1.31,6.75,2.02,6.49,7.41,4.96-.23,7.45,2.19,6.76,7.16l18.5.09c2.02,1.22,3.03,3.48,3.03,6.77l22.88-.19c.07-3.93,1.49-6.13,4.27-6.6h37.26c-.25-3.84.84-6.16,3.26-6.96l53.31.19c2.67.55,3.83,2.81,3.46,6.77l9.62.03,1.35,2c4,1.21,3,7.18-1.26,8.61l-17.81-.16c.29,2.31-.32,3.82-1.85,4.54l-.83,2.01-10.8.09c.43,2.76-.29,4.39-2.17,4.91-1.15,1.97-3.65,2.55-7.5,1.73-2.48.7-4.3.37-5.46-.98-.87,1.63-.89,3.54-.1,5.22,2.66.32,2.54,1.24,0,2.01-.52,1.93-2.34,2.55-5.48,1.85-.28,1.71-1.1,2.75-2.49,3.12-3.99.29-8.02.67-12.07,1.14,1.95,2.04,1.73,8.73-1.9,6.87-1.68-.78-3.49-.77-5.2-.05,1.59,1.93,1.95,6-.84,6.88l-.91,2-17.89-.08c.28,2.55-.45,4.04-2.21,4.48.05.9-.17.85-.62-.02-.33,1.9-1.08,1.76-1.4-.2-6.07-.97-12.91-.88-19,0,3.07.42,2.94,7.41.01,8.1l-.61.11c-.42.08-1.27,0-1.43-.63-8.1-.29-16.08-.13-23.91.49h-.83c-1.11,1.35-.9,3.31-.2,4.87-.02.35.11,1.5-.25,2l-27.5.07-.11-7.43c-4.8-.02-9.53-.22-14.17-.58l-.11-6.77c-1.83-1.01-3.95-.93-5.88-.22h-1s0-12.89,0-12.89l-4.99-.1c-.88-19.99-.87-41.15,0-61.02,1.54-.29,3.17-.57,4.91-.85l.17-7.1,6.93-.11v-17.94c.28-1.83,1.62-2.83,4-3h1.99Z"/>
  <path class="cls-55" d="M69.08,339.4l-7.67-.11-.33,21.72h-26.91s-.12-7-.12-7l-14.8-.04.81-7.93-6.87-.07-.08-4.97c11.49-.55,23.17-.68,35.04-.39l-.02-1.6.54-5.29,19.97-.21c.87,1.54.49,3.59.46,5.89Z"/>
  <path class="cls-10" d="M149.09,318.01l1.4.2c3.47-.06,3.84,7.1.59,7.79l-20.99.1v-8.1c6.1-.86,12.83-.83,18.99,0Z"/>
  <polygon class="cls-42" points="48.13 340.61 13.09 341 13.09 340 48.13 340.61"/>
  <path class="cls-42" d="M220.09,463.99h-1c.66-1.56,4.45-.25,5.61-1.5.82-.88-.74-4.43,1.73-4.32l-.4,5.75-5.94.07Z"/>
  <path class="cls-26" d="M338.19,229.17l-.36,6.6-6.54.37-.3,6.6-7.54.44-.5,5.73-5.81.22-.36,7.65-6.46.47-.21,6.65c3.92.74,8.01.97,12.28.72.53,1.51,1.3,7.9-.77,6.01-6.23-.27-12.33-.14-18.31.39l2.08.96c-.04,3.3-.46,6.68-1.26,10.15,2.94,3.77-6.06,6.11-6.98,1.81-.27,1.46-.78,1.88-1.52,1.25-.25,11.09-.17,22.17.22,33.23-2.02-1.04-4.56-1.44-6.68-.5l-.47,14.58-6.54.64-.47,46.8-6.32.67.19-33.32c-2.41-1.73-2.51-5.03-.39-7.32l-5.94-1.08c-2.22.12-2.77-.58-.64-1.24-.21-1.65-.07-3.18.42-4.61h4.12c1.13-1.42,1.88-3.37,2.25-5.85.33-.22.51-.95.73-1.24l4.7-.52c.62-4.33,1.05-8.83,1.29-13.49l3.85-.74c1.24-.11,2.31-.51,3.22-1.2l-.05-32.96-7.12-.13c-.44-2.45-.73-4.25-.89-5.42h-24.1c-1.04,1.24-1.78,3.03-2.22,5.37l-27.83.14c-.03-1.98-.69-3.77-.23-6.56l20.8.19c.96-2.55.64-4.52.35-6.61l.67-2,37.88-.03c.16-2.52,1.04-4.18,2.65-4.98.35-2.23,1.01-2.75,1.39-.55,4.19.29,8.23.11,12.11-.55-1.12-5.87.57-8.4,5.07-7.57,1.59-.78,2.37-2.83,2.34-6.14l6.67.5c.73-2.51.47-4.63.42-6.76,4.7.24,6.6-1.82,5.71-6.18l.68-.59c.17.11.55-.05.72-.05,5.13.37,7.43-2.01,6.9-7.12l11.76.08c.54,1.9.89,4.87-.65,6.01-1.51-.35-3.91-.4-4,1.07Z"/>
  <path class="cls-67" d="M337.24,276.73c3.75.48,4.07,5.7.97,7.42,1.92.91,4.18.64,6.15.03-3.01-.25-1.97-4.32.8-4.31l2.08,4.16c-.79,4.1-.81,8.22-.04,12.36,2.2-.68,3.49-.11,3.87,1.72.93.16.86.42-.1.75-.65,3.95-.89,8.22.25,12.12,1.3-2.33,2.06-1.81,1.61.8l-1.66,4.38c-1.62-.26-2.57-1.71-2.86-4.35-.87,1.04-2.49,1.14-3.35.13-.09,1.99-.37,3.68-.85,5.04-1.51.35-3.19.68-5.06.99-.3.86-.62.84-.96-.03-1.74.27-2.46-1.02-2.16-3.88-2.92.11-6.2-.28-6.45-3.71l-.27-9.91c-6.23.68-7.38-.16-8.44-6.48-4.55.81-6.49-1.84-5.82-7.93-4.93.91-7.39-1.41-7.38-6.95-.55,2.41-1.7,3.43-3.46,3.07l-.82-11.11c6.14-.53,12.4-.66,18.78-.39,1.9.04,3.19,1.45,3.89,4.24l9.86-.13,1.42,1.98Z"/>
  <path class="cls-2" d="M367.28,284.1c-1.08-1.73-1.51-3.59-1.02-6.69l-14.2-.58c-.97-1.65-.92-3.6-1.11-5.77l-12.75-.23c-.43.83-.79.77-1.1-.14-.3,2.98-4.68,2.41-5.01-.38-.42-4.04-1.14-8.06-.17-12.38l6.19-1.06c.19-2.54-.2-4.79.65-7.2l18.77-.27c.87,2.56.59,4.81.58,7.54l7.53.53.63,6.32c2.37.18,4.08.07,6.16.91v19.1s-5.14.3-5.14.3Z"/>
  <path class="cls-27" d="M282.04,457.83l.02,5.16c0,1.39-1.4,1.04-1.95,1.04-4.31-.8-8.71-.84-13.03-.03l-32.5-.19c-.99-5.02.41-7.44,4.2-7.25.58-3.99.67-8.01.3-12.06l2-1.48c.27-.88.6-.87,1.01-.02,1.66.79,3.43.76,5.13.06-1.53-1.96-1.86-5.96.85-6.93.57-1.43,1.86-2.15,3.86-2.16-.21-2.66-.02-5.21,3.1-4.07l-.74,9.22c-.09,1.01.03,2.23.33,2.85.27.53,1.35,1.09,2.36,1.15,5.44.37,3.6,5.42,4.61,6.9s5.04.5,6.84,2.11c.91.81.85,3.34,1.2,4.66,3.82,1.39,8.64,1.07,12.41,1.04Z"/>
  <path class="cls-31" d="M344.09,318c.47.14.83.29.84.45.09,2.04-.27,13.08-.86,14.13-.12.22-.54.28-1.03.3l-11.76.15-.34,6.18-20.05.13c-1.12-2.16-.79-4.34-.83-6.4.92-3.18,11.11-2.94,12.25.12l.8-6.02c-1.07-1.42-.57-2.06,1.03-1.32,4.76-.06,9.41-.29,13.96-.68-3.03-.37-2.89-6.48,0-7.1l.96.03c1.57-.54,3.77-1.02,5.03.03Z"/>
  <path class="cls-74" d="M261.04,416.26l-.47,13.13-5.54.51c-1.53.63-1.24,4.04-.79,5.96-2.54.84-4.32.26-6.17.27l.09-13.18c4.15.22,6.17-2.07,6.06-6.89l.08-.7c1.58-1.48,7.15-1.32,6.75.9Z"/>
  <path class="cls-32" d="M273.09,380.63l.37-.06c2.23-.94,3.89.16,2.36,2.65l-.15,18.08c-1.82.74-3.21.69-4.52.74-.52-.6-1.21-.98-2.02-1.02-.85-6.69-.83-14.08-.01-20.79,1.33.39,2.65.42,3.96.4Z"/>
  <path class="cls-35" d="M297.09,318c1.31-1.09,4.24-.72,6.06-.09,1.53-1.17,1.97-.57.85,1.06-.03,2.59.34,4.94,1.1,7.05,2.86.83,1.34,3.14-.98,1.01-2.03-1.29-4.72-1.33-7.48-1.5l-1.01-7.05c-2.45-.64-4.46-.48-6.49-.55.04-1.3,3.35-1.34,5.63-.49l.83-32.25.76.29c-.17,10.94.07,21.78.72,32.52Z"/>
  <path class="cls-32" d="M268.94,402.98l-.3,11.35-5.45.59c-1.12.33-1.97.22-2.56-.33-.29-4.23-.14-8.42.46-12.57,2.66-.14,5.48-.39,7.86.95Z"/>
  <path class="cls-62" d="M352.83,311.78l-1.61-.8c-1.15-3.88-.89-8.17-.25-12.12.12-.18.13-.59.1-.75l6.87.98c.4,4.32.51,8.27-.26,12.32l-4.85.37Z"/>
  <path class="cls-30" d="M275.15,339.98c.76-.07,1.33,1.1.64,1.95l.32,37.85,5.55.16c-2.6,2.14-6.05-.14-5.84,3.27-.08-.91-1.64-2.16-2.36-2.65l.94-1.84c.56-11.02.46-21.93-.28-32.73l-5.03.02c-.81.07-1.93-.1-1.98-.67-.68-7.1,1.95-6.87,8.05-5.36Z"/>
  <path class="cls-6" d="M347.24,284.03c.55.11,3.5-.2,3.53,1.23l.3,12.86c-1.75-.25-3.68.78-6.18-.07l-.16-12.12c-.01-.86.5-1.65.92-1.9.34-.21,1.11-.14,1.6,0Z"/>
  <path class="cls-52" d="M345.16,279.87l-.8,4.31c-1.94.61-4.27.9-6.15-.03-.26-2.6.37-5.14-.97-7.42-3.57.05-3.3-5.49-.14-6.04l1.1.14c-.38,1.9-.81,5.85,1.88,6.18l3.96.5c.99.12.76,1.64,1.12,2.36Z"/>
  <path class="cls-38" d="M310.05,326.02c3,0,2.92,6.37,0,6.92-1.41-.01-3.96.37-5.47-.64-1.3-.88-.81-4.09-.47-5.27.74.32,1.18-.36.98-1.01.79-1.12,3.48-.57,4.95,0Z"/>
  <path class="cls-37" d="M351.17,316.16c-.8,2.13-2.93,2.28-5.24,1.88-1.53-.54-1.57-2.75-.81-4.13.25-1.31,1.86-1.94,3.2-2.09.87.16,2.27-.09,2.55.93.34,1.23.18,2.33.3,3.41Z"/>
  <path class="cls-60" d="M345.12,313.9c.03,1.39.54,2.9.81,4.13-1.86,4.2-.35,9.89-.97,14.64-.13.6-1.88.46-1.92.2.73-.92,1.12-2.17,1.11-3.81l-.06-11.06c-.87-.31-.85-.65.02-1.02.04-1.73-.41-3.75.85-5.04,2.08-.16,2.06,1.26.15,1.96Z"/>
  <path class="cls-71" d="M263.19,414.92c-.82.09-1.67.73-2.15,1.34-1.92-1.49-4.48-1.61-6.75-.9-.27-1.77,1.53-1.72,2.31-1.43.62.24,2.71.7,3.79.13-.18-3.89-1.1-8.93.69-12.04l-.1,9.06c-.02,1.98.82,3.24,2.21,3.84Z"/>
  <path class="cls-67" d="M179.01,187.01c7.03.33,14.08.69,21.15,1.07-.06,1.85-.99,5.63.99,7.06,3.56.54,7.18.66,10.84.37l1,4.54c.98,3.03,6.4.73,13.87,2.54v5.39s7.9.03,7.9.03c.06,2.66-.39,5.1.28,7.05,3.99,1,8.25.51,12.29-.12,1.13,1.31.96,3.55.44,6.73,2.35-.16,4.29-.74,6.63-.05.02,3.05-.35,5.35.38,7.98,2.17-.33,5.29-.91,6.1.17-.36,1.78-.57,3.64.17,5.37,1.87,1.52,4.72.95,7.23.76l.75,6.12,1.05,1.03c1.67.65,3.46.77,5.13.06,1.74.03.22,3.76.55,4.89.79,2.14,4.77,1.54,6.3,1.03.89.2.91.53.08.98-.85,1.97-.82,4.12-.11,6.13,2.04-1.24,6.14-1.82,7.04.9l-.09,6.98-41.11.03-13.63-.04c.51-2.37.54-4.08.37-6.76l-55.41-.19-.2,6.96h-40.56c-.95,2.22-.96,3.86-.24,6.57l-28.18.23-.02-6.8-21.88-.1c.65-1.81,1.52-4.67.26-6.09-1.47-1.65-4.51-1-6.12.26l-.23-9.1-6.54.56-.26-13.36-6.85-.43.78-16.83c.09-1.95-.83-3.23-2.08-3.91.98,0,1.46-.36,2.1-.94.7-1.69.72-3.51,0-5.19.02-1.76,4.5-.49,5.76-.94,1.24-3.91.3-9.25.19-12.91l.86.05c1.68.65,3.46.65,5.14-.03l1.05-1.03c.57-2.02.7-4.1.4-6.26,4.33-.01,8.54-.26,12.63-.76l.05-6.68,83.89.06-.11,6.63Z"/>
  <path class="cls-12" d="M200.16,188.08l-20.09-.05c-.82,0-1.07-.67-1.06-1.02l20.09-.02c.83,0,1.07.68,1.06,1.09Z"/>
  <path class="cls-42" d="M233.03,194.84l-12.88.15-.06-7.98-.04-1.01c1.61,1.97,1.05,4.84.94,8.01,4.37.31,8.55-.95,12.04.83Z"/>
  <path class="cls-19" d="M95.19,187.01c0,.36-.29.99-1.07,1l-11.12.06c.3,2.42.49,4.66-.84,5.96l-.05-7.01h13.08Z"/>
  <path class="cls-28" d="M212.99,200.05l-1.31-4.06c-3.34-.42-7.68,1.21-10.53-.85l11.81-.12.03,5.03Z"/>
  <path class="cls-42" d="M254.03,207.77l-11.08.34c-.91,0-1.94-.26-1.93-1.13,4.36.38,8.92-.95,13.01.79Z"/>
  <path class="cls-42" d="M275,229.14l-5.87-.21-.08-7.88-7.87-.06-.04-5.03c.74,1.02.97,1.97,1.27,4.09,1.99.05,5.23-.65,6.84.67,1.8,1.48.47,5.38,1.06,7,1.19.47,4.36-.22,4.69,1.43Z"/>
  <path class="cls-28" d="M247.33,214.95c-4.23,1.82-11.83,1.44-12.29.12l12.29-.12Z"/>
  <path class="cls-42" d="M282.1,235.99l-6-.06-.38-6.74c2.28-1.43.61,5.18,1.95,5.72,1.44.58,4.43-.54,4.43,1.09Z"/>
  <path class="cls-42" d="M239.23,201.08l-4.02-.26-.49-5.66c2.06-.75,0,4.84,4.51,5.92Z"/>
  <path class="cls-51" d="M269.02,242.01c-1.51-1.49-1.09-3.99-.75-6.12,1.45,1.43.87,4.14.75,6.12Z"/>
  <path class="cls-9" d="M261.04,235.14c-1.55-1.26-1.42-3.98-.17-5.37.51,1.54.18,3.76.17,5.37Z"/>
  <path class="cls-28" d="M275.2,243.1c-1.22,1.45-3.79,1.26-5.13-.06l5.13.06Z"/>
  <path class="cls-42" d="M254.75,214.19c.49-1.78.39-3.5.21-5.16,1.09.55,1.21,1.43,1.27,2.45.07,1.17-.07,2.36-1.48,2.71Z"/>
  <path class="cls-74" d="M332.09,270.31l5.01.38c0,1.68-.74,4.55.14,6.04l-13.98.18c.47-1.55.04-5.53-1.35-5.56l-18.62-.33c-.34-.5.09-.99.8-.99l18.39-.12c-.66-1.75-.61-3.28.38-4.68l-11.82-.2c-.91-.02-.95-.78-.94-1.13l12.93.12.56,6.35c3.13,1.03,5.89-.27,8.49-.07Z"/>
  <path class="cls-42" d="M332.09,221.01c-.13-.26-.02-.72.38-.75l10.68-.64-.06-3.08c-.02-.87.13-1.4,1.33-1.41l-.43,5.85-11.89.02Z"/>
  <path class="cls-42" d="M331.08,222.01l-.07,6.96-6.83.16c.75-2.14,5.14-.29,5.85-1.67s-1.04-5.48.97-6.5l.08,1.05Z"/>
  <path class="cls-15" d="M241.08,443.02c-.09,4.76.86,10.2-.66,15.08-1.17.73-3.93.48-4.73,1.19-.99.88-1.01,3.22-1.11,4.53-.57-1.82-.51-3.53-.61-5.7l-6.83.03-.07-1.15c2.8-.45,4.97-.76,6.49-.93-.28-4.54,0-8.83.81-12.86l.77-.06c1.91-.65,5.6-1.58,5.92-.11Z"/>
  <path class="cls-67" d="M280.11,464.02l-13.03-.03c2.96-1.58,9.87-1.55,13.03.03Z"/>
  <path class="cls-31" d="M282.08,112.02c.2,1.83-1.17,2.5-4.11,2,.06,1.89-.57,3.27-1.91,4.13.3,1.95.1,3.89.03,5.86l-1.13.06c.27-4.18-1.35-6.2-4.85-6.07-.25,0-1.03-.36-1.35.76.08-2.32-.15-4.46-.7-6.44-3.21.81-5.56.46-7.04-1.06.23-3.08,7.14-3.3,7.94-.41l.8-2c-.48,1.76,3.42,2,4.08,1.53,1.29-.93,1.57-30.06.76-31.42-1.79-1.59-.84-1.75,1.5-1.22l.16,33.54c2.87-.6,4.86-.44,5.81.74Z"/>
  <path class="cls-42" d="M276.1,77.75c-.41.2-1,.62-1,1.32v31.82s-6.14-.02-6.14-.02c-.76-.11-1.84-.3-1.99-.89-.54-2.18-.61-11.5,2.12-11.97,2.14,3.37.61,7.91.97,11.8,1.54.36,2.56.33,4.05.07v-31.79c-2.22.11-3.84-.03-5.59-1.09,2.92,0,5.93-.61,7.59.77Z"/>
  <path class="cls-42" d="M269.1,42.93l-.59,34.05-.47-32.84-6.05-.09c-.81-.01-1.09-.95-.72-1.41,2.45.44,5.41.52,7.84.29Z"/>
  <path class="cls-22" d="M282.08,112.02l-.06,5.9-5.96.24c-.29-1.88-.45-3.77.1-6.13h5.91Z"/>
  <path class="cls-42" d="M310.08,152.01v1c-1.32-1.26-1.15-3.52-.9-5.93l-12.21.04c-1.2,0-1.63-.76-1.69-1.47l14.7.34.1,6.02Z"/>
  <path class="cls-42" d="M289,133.89c-1.88.09-5.29.83-7.11-.64s-.43-5.35-1.03-6.95c-1.18-.48-4.29.35-4.81-1.22h5.97s.26,8.1.26,8.1c2.04-.25,6.07-.94,6.71.7Z"/>
  <path class="cls-42" d="M295.22,144.95c-.95-.6-1.16-1.5-1.27-2.42-.14-1.18.09-2.39,1.32-2.71.06,1.56-.53,3.64-.06,5.13Z"/>
  <path class="cls-42" d="M68.62,333.51l-19.4.67c0,1.79-.14,3.72-1.11,4.82l-.03-6.01,20.54.51Z"/>
  <path class="cls-67" d="M128.05,325.58l-23.91.49c-.22-.48.25-1.12,1.02-1.1l22.89.61Z"/>
  <path class="cls-67" d="M75.24,325.58l-13.18.43c-.84,0-.99-.66-.99-1.01,4.72.29,9.62-.75,14.17.58Z"/>
  <path class="cls-67" d="M60.96,318.23l-5.88-.22c1.29-1.55,4.93-1.7,5.88.22Z"/>
  <path class="cls-67" d="M103.1,330.94c-1.25-.32-.98-1.58-1.12-2.41-.21-1.22-.14-2.45,1.32-2.46l-.2,4.87Z"/>
  <path class="cls-67" d="M49.09,244v61.02c-.34,0-1.01-.15-1.01-1.06v-59.98c0-.9.43-1.13,1.06-1.09.86.35.83.72-.04,1.1Z"/>
  <path class="cls-42" d="M331.24,161.26l-.15,12.76c-2.07-3.5-.63-7.78-.97-11.82-4.54-.57-7.44.65-6.87-1.55l8,.61Z"/>
  <path class="cls-42" d="M338.09,186.01c-2.32-1.68.02-6.91-1.49-11.23-2.1.6-4.97.53-5.51-.76l6.97.06.02,11.93Z"/>
  <path class="cls-42" d="M351.45,201.81c-2.7-.24-.46-5.07-1.89-5.74-.85-.4-2.86.24-4.87-.12-.39-.07-.83-.67-.42-1.3l6.8.39.38,6.78Z"/>
  <path class="cls-42" d="M344.21,193.92c-2.14-.67-.71-4.26-1.5-5.54-.79-.76-4.31.62-4.6-1.39l5.94.11.16,6.82Z"/>
  <path class="cls-42" d="M357.1,202c-.34,1.06-1.53,1.18-2.54,1.13s-1.83-.34-2.41-1.25l4.95.12Z"/>
  <polygon class="cls-48" points="65.09 215 61.09 218 61.06 214.98 65.09 215"/>
  <path class="cls-67" d="M53.99,243.15c-.03,1.42-3.74,1.05-4.91.85l.04-1.1,4.86.25Z"/>
  <path class="cls-28" d="M69.18,214.08v-5.19c1.5,1.28,1.41,3.92,0,5.19Z"/>
  <path class="cls-42" d="M261.19,41.77c-.54.39-1.07-.04-1.07-.81l-.08-17.02c0-1.06.39-1.82,1.01-1.96l.14,19.79Z"/>
  <path class="cls-42" d="M323.21,159.94c-1.3-.71-1.51-3.01-.85-5.46-4.35-1.46-9.46.82-11.28-1.47l11.95.02.18,6.91Z"/>
  <path class="cls-28" d="M81.11,195.05c-1.43,1.4-3.72,1.37-5.14.03l5.14-.03Z"/>
  <path class="cls-10" d="M255.18,65.14l.52,3.43c-.48,3.77-.19,6.35.87,7.75l3.52.69c.3.31.67.9,1.44,1.02l.15,19.43c.46-1.69.57-1.75.99.08,2.26-.34,4.39-.18,6.41.48l-.13,12.86-7.94.41c.3-4.4-1.97-6.54-6.82-6.43v-.91c-.67-5.8-.92-11.72-.76-17.75-1.03-1.28-2.8-1.98-5.31-2.1l-.06-20.15c.31-1.12.68-1.34,1.14-.68,2.93.97,4-.93,5.99,1.89Z"/>
  <path class="cls-10" d="M317.65,173.45l-.31,21.43c-2.15.46-4.54.79-7.14.99l-.13,6.31-.98-.17c-1.69-.55-3.48-.75-5.36-.6.21-2.31-.01-4.41-.67-6.3.18,2.98-7.25,1.85-8.15.71-.58-.74.66-13.66,1.24-15.75l.95-1.96,10.25.43c.4-2.37,1.35-3.9,2.85-4.58l7.46-.52Z"/>
  <path class="cls-66" d="M281.98,174.14c.78.09,1.92.31,2,.88.19,1.31.29,17.3.1,18.52l-1.99,1.45c-.42,2.19-1.03,2.67-1.53.5-2.18.22-3.94-.06-5.29-.85.04-.15-.1-.49-.1-.7-1.1-6.35-.77-13.3-.42-19.87,2.82-.79,5.12.19,7.22.07Z"/>
  <path class="cls-49" d="M248.08,43.01c.83,6.86.8,14.34-.02,20.92-.32-.11-.76-.08-1.04-.05-1.65.95-4.35,1.19-5.77-.19l-.06-.75c-.62-6.03-.81-12.16-.57-18.41-1.18-.69-.92-1.15.56-1.42l6.9-.1Z"/>
  <path class="cls-41" d="M302.98,160.12l1.13.92c.13,1.94.53,3.74,1.19,5.4l-1.35.59c-.1.76-.25,1.8-.85,2-1.78.59-13.63.78-13.99-2-.88-.28-.87-.62-.01-1.02l.22-5.72c3.84-1.21,9.7-.95,13.68-.16Z"/>
  <path class="cls-45" d="M288.96,173.86c1.72,1.91-.43,7.4-3.17,7.04-.93,4.69.52,9.42,3.42,13.14.71.34.63.64-.15.91-.29,3-6.33,2.96-6.97.05l-.12-20.86,1.14-.07c-.49-2.98,5.24-3.04,5.84-.21Z"/>
  <path class="cls-68" d="M303.09,202.01c.91,1.2.94,4.66,0,6h-13.91s-.16-6.09-.16-6.09c.26-1.8.86-2.72,1.41-1.1,4.34.36,8.56.75,12.65,1.19Z"/>
  <path class="cls-31" d="M289.06,257.03c-2.37,0-5.23,1-7.04-.9-.72-1.97-.76-4.2.11-6.13l-.08-.98,1.15.1c6.59-2.28,6.92.75,6.34,6.61,1.26.6,1.03,1.03-.49,1.31Z"/>
  <path class="cls-3" d="M289.07,194.94c.28,2.44.94,4.34,1.96,5.72l-2.01,1.26-1.01-.05c-1.22.99-3.48.87-4.88,0l-.67-.07c-.47-2.08-1.02-4.12-1.66-6.11l1.3-.7,6.97-.05Z"/>
  <path class="cls-54" d="M289.1,167.03c3.02.07,2.76,6.39-.14,6.83l-5.84.21-1-1.03c-.78-1.9-.88-4.12-.03-6.03,2.18-.68,5.1-1.02,7.01.02Z"/>
  <path class="cls-68" d="M310.04,167.01c.05,2.39.24,4.54.15,6.96,1.08,2.3-4.07,2.43-5.23,1.92-4.31-1.85-4.77-6.54-1.02-8.87.12-2.36.8-2.56,2.03-.61l4.06.59Z"/>
  <path class="cls-42" d="M289.06,257.03l-.03-7.94-5.83.03c.95-1.67,5.42-1.9,6.43.11s.38,4.5.4,6.7l12.05.05c0-2.7-.28-4.95.47-7.51l6.96-1.03c-.97-1.96-.72-5.41.46-5.23l.03,6.76-6.89.08-.08,7.95-13.98.04Z"/>
  <path class="cls-42" d="M241.18,43.11v19.83c-.54.22-1.06-.22-1.06-.97l-.07-18c-2.19.48-4.26.21-4.82-1.24l5.95.39Z"/>
  <path class="cls-42" d="M254.2,103.94c-.57.21-1.07-.21-1.09-.99l-.38-18.14c-1.97.68-4.61.23-4.61-.72l5.97.04.11,19.82Z"/>
  <path class="cls-42" d="M310.2,195.87c.35-1.41,4.08-1.18,6.57-.53l.88-21.9.25,22c-3.06.93-5.42.6-7.7.43Z"/>
  <path class="cls-42" d="M234.17,28l.22,13.81c-.54.47-1.28.1-1.29-.75l-.08-12.16c-2.68.22-5.34.72-6.92-.88l8.07-.02Z"/>
  <path class="cls-42" d="M275.18,193.94c-.48.24-1.15-.2-1.11-1.03.37-6.48-.86-12.99.69-18.84l.42,19.87Z"/>
  <path class="cls-20" d="M309.09,202.01c-3.52.03-5.11,2.05-4.76,6.04l-1.24-.04v-6c-.88-.28-.86-.62,0-1-3,.39-2.88-5.37-.03-5.89,2.22.15.64,4.34,1.31,5.5.99.63,4.28-.25,4.72,1.4Z"/>
  <path class="cls-42" d="M302.98,160.12l-13.68.16c-.49-.49-.12-1.27.75-1.27l11.99.03c.77,0,1.19.51.94,1.08Z"/>
  <path class="cls-42" d="M261.01,111.27c1.57,1.25,4.5.95,7.49.42,1.06,2.16.6,4.35.25,7.08-.97-2.16-.63-3.54-.72-5.82-2.78.11-4.96.35-7.51-.46l-.97-6.94c-2.4,1.15-5.39.75-5.36-.71l6.82.18v6.24Z"/>
  <path class="cls-11" d="M282.1,194.99l.36,6.81c-2.61.6-.46-5.09-1.91-5.73-.91-.4-2.88.23-4.86-.12-.4-.07-.8-.72-.41-1.31l6.82.35Z"/>
  <path class="cls-42" d="M317.07,235.95c-.04-1.64,4.25-.26,4.96-1.5.44-.76-.25-2.82.12-4.83.07-.4.67-.84,1.3-.43l-.38,6.75-6,.02Z"/>
  <path class="cls-42" d="M310.04,167.01l-6.1.02.16-5.98c.94.77.56,3.45,1.46,4.54.74.89,4.07.25,4.47,1.43Z"/>
  <path class="cls-42" d="M309.09,202.01l.98.17c-.02,1.14-3.71.32-4.53,1.21-.93,1.02-.18,4.13-1.21,4.67l-.17-5.96,4.93-.08Z"/>
  <path class="cls-42" d="M274.96,124.08c-.93-.62-1.15-2.5-.67-4.11-1.46-1.33-3.06-1.13-4.19-1.96l4.92.11-.06,5.96Z"/>
  <path class="cls-11" d="M289.08,166.01v1.02s-7-.02-7-.02c1.78-1.73,4.72-1.02,7-1Z"/>
  <path class="cls-42" d="M226.1,28.01c-1.67-1.37-1.69-4.95.31-6.34l-.31,6.34Z"/>
  <path class="cls-42" d="M247.02,63.89c-.49,1.49-2.15,1.14-3.43,1.25-1.05.09-2.53.12-2.35-1.45,1.93.37,3.86.42,5.77.19Z"/>
  <path class="cls-61" d="M282.12,173.04c-1.5-1.35-1.73-4.67-.03-6.03l.03,6.03Z"/>
  <path class="cls-42" d="M288.02,201.87c-.15,1.27-1.43,1.31-2.46,1.27s-1.99-.15-2.42-1.27h4.88Z"/>
  <path class="cls-5" d="M249.19,63.25c.06.52-.78.85-1.14.68l.02-20.92v-.98c2.22,6.79.34,14.22,1.12,21.22Z"/>
  <path class="cls-42" d="M248.08,42.03c-1.97-.07-4.08-.26-6.45.46.58-2.12,6.07-2.34,6.45-.46Z"/>
  <path class="cls-42" d="M269.08,98l-8-.06.45-19.92.76,19.11c1.94-.18,5.84-.9,6.8.87Z"/>
  <path class="cls-42" d="M260.09,77l-4.99-.12.08-11.74c2.07,2.93.43,7.13.99,10.46,1.49.44,3.21.66,3.92,1.4Z"/>
  <path class="cls-33" d="M192.22,297.87c.42-3.05,7.29-2.8,7.86.13,0,.31-.06.69.1,1.21-5.57-.57-8.25,1.03-8.05,4.78-.17.42-.64.86-1.05,1.04-3.36,0-5.07,1.96-5.13,5.87,0,.18-.14.59-.04.73-3.43,1.34-9.11.99-12.76.25l-1.04-.05c.13-2.29-.73-4.99.84-6.88,1.64-.73,3.57-.77,5.2.05,1.93,0,0-6.83,1.9-6.87,3.69-1.02,8.45-.89,12.17-.26Z"/>
  <path class="cls-7" d="M172.11,311.83l-.35,6.79-5.66-.37-.87,2c-1.44.23-12.24.36-12.75-.02-.7-.52-1.19-1.13-1.38-2l.12-6.49,20.89.1Z"/>
  <path class="cls-15" d="M269.2,338.9c2-.03,4.45-.65,5.94,1.08-1.89.18-3.8.07-5.87-.62l-.2,6.65c-4.82.02-9.7-.69-14.47.56,1.4,1.88,1.39,4.35.54,6.46-.27.26-.57.94-1.07.94-3.06-.34-3.01-7.22-.09-7.88-2.17-.44-2.62-1.07-.47-1.55-.13-2.13.18-3.91.91-5.34l.73-.08c4.61-.33,9.07-.85,13.37-1.54l.67,1.32Z"/>
  <path class="cls-29" d="M166.1,318.25c-.46,2.29-.92,4.7.08,7.72l-15.1.03c.02-2.61.24-5.28-.59-7.79l.62.02,15,.03Z"/>
  <path class="cls-59" d="M213.14,284.03c1.9.26,2.37.89.62,1.87l-.61,6.08c-4.36.19-8.5.65-12.43,1.36l-.64-1.33v-2.01c-.81-1.61-.82-3.65.1-5.22,3.94-1.73,8.7-.74,12.95-.75Z"/>
  <path class="cls-68" d="M226.94,277.03l.04,1.03c.86,1.85.92,4.03.1,5.93-4.38.43-8.81.75-13.29.98l-.65-.93.19-6.89,13.61-.11Z"/>
  <path class="cls-39" d="M247.02,436.13h1.04c-.03,2.34.75,5.02-.85,6.92-1.62.72-3.53.78-5.13-.06l-1.01.02c-1.9-.44-2.42-1.16-.6-1.54-.43-5.81.81-7.23,6.54-5.35Z"/>
  <path class="cls-26" d="M253.99,346.09l.09,7.88-5.95-.05-.05-7.98c2.05-.16,3.83-.56,5.33-1.2l.58,1.35Z"/>
  <path class="cls-26" d="M200.09,292.01l2,.78c-1.23.57-1.9,1.97-2,4.21v1s-7.86-.13-7.86-.13c-.9-.09-.91-.39-.1-.88l.09-5.19,7.87.22Z"/>
  <path class="cls-42" d="M281.97,276.93c-1.14-.16-1.14-3.18-.87-4.89l-24.82-.02c-.28,1.22-.25,2.52-.18,3.44.07.85-.14,1.42-1.33,1.42.53-1.91.5-3.76-.68-5.86l27.9-.05v5.95Z"/>
  <path class="cls-25" d="M273.46,380.56c-.11.04-.24.06-.37.06.88-1.88,1.06-4.07,1.05-6.6l-.02-28.04c.98,0,1.35.89,1.02,1.9l.08,29.17c0,1.86-.27,2.93-1.76,3.5Z"/>
  <path class="cls-42" d="M269.14,401.01c-.29.08-1.04-.28-1.04-1.07l-.02-18.93c0-.77.58-1.17,1.04-.78v20.79Z"/>
  <path class="cls-42" d="M227.09,456.98c1.25-1.31,3.53-1.14,5.95-.9l.07-12.13c0-.86.75-1.22,1.29-.77l-.29,13.72-7.01.07Z"/>
  <path class="cls-42" d="M276.09,325.97c.94-1.15,2.88-1.2,4.94-.96v-11.1c-.01-1.14.4-1.82,1.06-1.94v13.95s-5.99.06-5.99.06Z"/>
  <path class="cls-42" d="M269.2,338.9l-14.04.21c-.16-.59.17-1.03,1.04-1.06l11.76-.3c.14-1.22-.36-4.71,1.01-4.71l.22,5.85Z"/>
  <path class="cls-42" d="M213.15,291.99c-.01.15-.12.67-.51.83l-11.22.37c-.32,1.29-.47,3.23-1.33,3.82v-4.99s13.06-.03,13.06-.03Z"/>
  <path class="cls-11" d="M227.08,283.98c-2.06,2.35-7.73-.24-13.33,1.92l-.62-1.87,13.94-.05Z"/>
  <path class="cls-42" d="M185.91,311.63c.37.48.06,1.39-.71,1.38l-11.07-.06c-.77,0-1.19-.5-.98-1.07l12.76-.25Z"/>
  <path class="cls-42" d="M253.99,346.09l-5.91-.15c0-1.66,4.19-.25,4.93-1.51.24-.4.04-1.65.08-2.39l.11-2.39c.02-.48.51-1.01,1.22-.46l-.44,6.89Z"/>
  <path class="cls-42" d="M200.18,299.22c-1.3,1.23-3.79,1.04-6.26.46l-1.79,4.32.05-4.95,8,.17Z"/>
  <path class="cls-42" d="M247.02,436.13l-5.82-.05-.12,6.94-5.92.11c.15-1.77,3.75-.9,4.66-1.44.5-1.99-.57-5.81,1.88-6.52,1.65-.48,4.37-.63,5.33.96Z"/>
  <path class="cls-42" d="M248.15,422.95c.01-1.97,3.81-.58,4.56-1.32.77-1.29-.61-4.88,1.49-5.56l-.16,6.85-5.9.03Z"/>
  <path class="cls-42" d="M191.08,305.03l-4.23,1.83c.53,1.82.18,3.65-.9,4.04l.21-5.79,4.92-.08Z"/>
  <path class="cls-42" d="M273.1,333.05c.85-1.88.27-4.48,2.25-5.85l-.32,4.77c-.11,1.33-1.32,1.07-1.93,1.07Z"/>
  <path class="cls-42" d="M255.15,353.03c.01-1.98.17-4.16-.54-6.46,2.25,1.43,2.09,4.96.54,6.46Z"/>
  <path class="cls-42" d="M227.08,283.98l-.1-5.93c1.69,1.53,1.76,4.4.1,5.93Z"/>
  <path class="cls-44" d="M289.14,310.02c0,1.28-.21,1.84-1.47,1.59l-1.75-.39c.92-.83,1.81-1.51,3.22-1.2Z"/>
  <path class="cls-67" d="M149.09,318.01h-19c.11-.67.86-1.06,1.93-1.06h15.14c1.07,0,1.82.39,1.93,1.06Z"/>
  <path class="cls-67" d="M192.13,296.99l.1.88-12.17.26c-.08-.61.33-1.07,1.07-1.07l11-.07Z"/>
  <path class="cls-67" d="M200.09,290c-1.49-.63-1.73-4.41.1-5.22l-.1,5.22Z"/>
  <path class="cls-67" d="M178.15,305l-5.2-.05c1.24-1.5,4.06-1.51,5.2.05Z"/>
  <path class="cls-27" d="M338.09,317.94v7.1c-4.56.35-9.22.57-13.96.68-.05.68-.71,1.05-1.03,1.32l-.8,6.02-12.25-.12v-6.92c-1.77-.35-3.44-.7-5.01-1.05-.74-1.65-1.09-3.65-1.05-5.99l-.85-1.06c-2.08-.37-4.1-.67-6.06-.91-.65-10.29-.89-20.83-.72-31.6l.76-1.46c2.65.33,5.67.7,6.98-1.81.73-1.4,1.27-2.7,1-5.08h4.93s.08,6.91.08,6.91l6.93.07.07,7.98c2.68.04,4.82-.33,6.83.33-.55,2.43-.95,4.56.18,6.55,2.14-.42,6.03-1.27,7.13.7l.24,11.78c2.15.89,4.16.71,6.47.58l.11,5.98Z"/>
  <path class="cls-17" d="M289.55,271.64c.63-1.08,3.99-1.06,4.92-.47,1.11.72.99,3.9.41,5.25-.45,1.05-3.27.73-4.41.67-1.72-.09-2.24-3.2-.92-5.45Z"/>
  <path class="cls-67" d="M297.09,317c.87.28.86.62,0,1-.4.06-.99-.35-.99-1.06l-.49-31.76c0-.35,1.5-1.2,1.52-1.25l-.04,33.06Z"/>
  <path class="cls-24" d="M351.22,310.98c-1.81-.9-1.76-9.89-.25-12.12l.25,12.12Z"/>
  <path class="cls-65" d="M348.32,311.81c-.45,1.48-1.75,2.26-3.2,2.09l-.15-1.96c1.06-1.09,2.14-.35,3.35-.13Z"/>
  <path class="cls-28" d="M344.36,284.18c-.91,1.24-5.76,1.64-6.15-.03l6.15.03Z"/>
  <path class="cls-43" d="M344.11,316.98l-.02,1.02-5.03-.03c1.21-1.34,3.34-1.15,5.06-.99Z"/>
  <path class="cls-67" d="M247.22,443.05c-1.25,1.48-4.05,1.51-5.13-.06l5.13.06Z"/>
  <path class="cls-67" d="M338.09,325.04c0,.84-.92,1.06-1.86,1.06l-12.1-.38c4.45-1.65,9.32-.35,13.96-.68Z"/>
  <path class="cls-67" d="M322.31,333.06c-.39-2.05-.83-4.62.8-6.02.03,2,.57,4.62-.8,6.02Z"/>
  <path class="cls-34" d="M305.05,324.96c.82.32.84.67.05,1.05-2.65-.18-1.52-4.97-1.1-7.05,1.36,1.7,1.26,3.96,1.05,5.99Z"/>
  <path class="cls-50" d="M303.15,317.91l-6.06.09v-1c2.02-.14,4.76-.72,6.06.91Z"/>
  <path class="cls-58" d="M310.05,326.02h-4.95c-.09-.28-.09-.74-.05-1.05,1.71-.15,3.94-.36,5.01,1.05Z"/>
  <path class="cls-28" d="M282.02,256.14c-1.51-1.59-1.51-4.76.11-6.13l-.11,6.13Z"/>
  <path class="cls-63" d="M303.94,167.02c-.02,2.16-.57,4.33-.2,6.85l6.44.09-.25,6.69-13.79-.58c-.78,4.62-1.22,9.38-1.34,14.29.88,2.96-3.52,4.71-4.77,1.43-.34.4-.67.12-.96-.85,0-.24-.11-.64.15-.91-2.91-3.68-4.36-8.49-3.42-13.14.85-2.61,1.44-4.85,3.17-7.04l.14-6.83h14.84Z"/>
  <path class="cls-1" d="M303.06,195.11l.03,5.89c-2.32.87-12.04.71-13.38-.7-.19-.2-.06-3.77.32-4.51.69.06,3.04-.18,3.45-1.03l1.58-11.99c.1-.77-.46-2.77,1.08-2.7l-.1,14.58,7.02.46Z"/>
  <path class="cls-1" d="M289.21,194.03c-4.19-2.8-4.84-8.82-3.42-13.14-.53,4.77,1.88,8.8,3.42,13.14Z"/>
  <path class="cls-70" d="M290.03,195.79c.34,1.23.56,2.48.36,3.91,4.43,1.33,8.5,1.57,12.7,1.31v1s-14.06-.09-14.06-.09l.04-6.98c.6,0,.83.36.96.85Z"/>
  <path class="cls-67" d="M309.56,298.09c-1.68.73-3.65.53-6.19.47.25-2.53.4-4.15-.41-6.48l7.06-.02.06,5.44c.13.29.35.53.52.62,1.44.83,3.73.62,6.19,0l.49,7.06c2-.55,5.02-.61,5.87.94.65,1.17.82,4.39-.59,5.45-3.82,1.13-8.11.2-12.42.4l-.05-13.47-.52-.41Z"/>
</svg>