<?xml version="1.0" encoding="UTF-8"?>
<svg id="Ebene_1" data-name="Ebene 1" xmlns="http://www.w3.org/2000/svg" viewBox="0 0 736.9 544.9">
  <defs>
    <style>
      .cls-1 {
        fill: #796f57;
      }

      .cls-2 {
        fill: #0c0a07;
      }

      .cls-3 {
        fill: #050505;
      }

      .cls-4 {
        fill: #a5874e;
      }

      .cls-5 {
        fill: #697968;
      }

      .cls-6 {
        fill: #f5cb89;
      }

      .cls-7 {
        fill: #f7cd8b;
      }

      .cls-8 {
        fill: #060605;
      }

      .cls-9 {
        fill: #da6959;
      }

      .cls-10 {
        fill: #090806;
      }

      .cls-11 {
        fill: #080705;
      }

      .cls-12 {
        fill: #030303;
      }

      .cls-13 {
        fill: #e8c07f;
      }

      .cls-14 {
        fill: #73512c;
      }

      .cls-15 {
        fill: #f6cc8a;
      }

      .cls-16 {
        fill: #c94c3a;
      }

      .cls-17 {
        fill: #050404;
      }

      .cls-18 {
        fill: #775b3a;
      }

      .cls-19 {
        fill: #775c3b;
      }

      .cls-20 {
        fill: #f3c988;
      }

      .cls-21 {
        fill: #d8d9d5;
      }

      .cls-22 {
        fill: #b89858;
      }

      .cls-23 {
        fill: #c5d9db;
      }

      .cls-24 {
        fill: #785c3b;
      }

      .cls-25 {
        fill: #b49555;
      }

      .cls-26 {
        fill: #775b3b;
      }

      .cls-27 {
        fill: #c8dadb;
      }

      .cls-28 {
        fill: #72502b;
      }

      .cls-29 {
        fill: #030403;
      }

      .cls-30 {
        fill: #795d3b;
      }

      .cls-31 {
        fill: #b59656;
      }

      .cls-32 {
        fill: #cadbdd;
      }

      .cls-33 {
        fill: #fbd08e;
      }

      .cls-34 {
        fill: #edc583;
      }

      .cls-35 {
        fill: #785c3a;
      }

      .cls-36 {
        fill: #d1a76e;
      }

      .cls-37 {
        fill: #b59655;
      }

      .cls-38 {
        fill: #c6d9db;
      }

      .cls-39 {
        fill: #78887a;
      }

      .cls-40 {
        fill: #807964;
      }

      .cls-41 {
        fill: #070605;
      }

      .cls-42 {
        fill: #eabd7f;
      }

      .cls-43 {
        fill: #eabc7f;
      }

      .cls-44 {
        fill: #6f8477;
      }

      .cls-45 {
        fill: #040403;
      }

      .cls-46 {
        fill: #d7ab74;
      }

      .cls-47 {
        fill: #c49b67;
      }

      .cls-48 {
        fill: #b79757;
      }

      .cls-49 {
        fill: #eec182;
      }

      .cls-50 {
        fill: #040404;
      }

      .cls-51 {
        fill: #ece14f;
      }

      .cls-52 {
        fill: #060504;
      }

      .cls-53 {
        fill: #d3a970;
      }

      .cls-54 {
        fill: #d5aa72;
      }

      .cls-55 {
        fill: #fafafa;
      }

      .cls-56 {
        fill: #cba469;
      }

      .cls-57 {
        fill: #bbc8ae;
      }

      .cls-58 {
        fill: #cfa66d;
      }

      .cls-59 {
        fill: #72512d;
      }

      .cls-60 {
        fill: #040303;
      }

      .cls-61 {
        fill: #fefefe;
      }

      .cls-62 {
        fill: #d1a86e;
      }

      .cls-63 {
        fill: #72512c;
      }

      .cls-64 {
        fill: #d0a76d;
      }

      .cls-65 {
        fill: #d7ab73;
      }

      .cls-66 {
        fill: #f6ca8a;
      }

      .cls-67 {
        fill: #eabc7e;
      }

      .cls-68 {
        fill: #050504;
      }

      .cls-69 {
        fill: #596b60;
      }

      .cls-70 {
        fill: #d7ac74;
      }

      .cls-71 {
        fill: #382816;
      }

      .cls-72 {
        fill: #cca56a;
      }

      .cls-73 {
        fill: #fbfbfb;
      }

      .cls-74 {
        fill: #fcfcfc;
      }

      .cls-75 {
        fill: #64796c;
      }

      .cls-76 {
        fill: #ecc482;
      }

      .cls-77 {
        fill: #f2c987;
      }

      .cls-78 {
        fill: #070606;
      }

      .cls-79 {
        fill: #facf8e;
      }

      .cls-80 {
        fill: #b69656;
      }

      .cls-81 {
        fill: #7e7f6b;
      }

      .cls-82 {
        fill: #728e84;
      }

      .cls-83 {
        fill: #fdfdfd;
      }
    </style>
  </defs>
  <path class="cls-12" d="M560.66,113.02l2,.9-.15,28.8,11.79-.42.39-23.46,2.02-1.42c-.71-4.88-.34-6.51,1.11-4.9h14.56c.42,5.32.3,10.49-.37,15.49,2.66.75,15.54,1.03,16.5-.2s.53-28.77.11-30.22c-2.41-1.53-1.98-2.69.96-1.43,5.09-.15,10.11.11,15.07.79l.31,47.11-.83,2.02-13.67.4-.33,11.57-2.04,1.32-.73.91c-4.94.26-9.88.35-14.82.29.25,4.72.16,9.84-.28,15.36.63.49.54.85-.25,1.08-4.62.9-10.26.87-15,0-.75-.17-.83-.53-.27-1.07-.2-5.41-.44-10.72-.73-15.94-14.34.89-31.18.84-46.02.01-.58-4.66-.74-9.46-.46-14.4,4.98.22,9.8-.07,14.48-.88-2.29-1.25-1.81-6.2.89-6.63-.5-13.45-.6-26.96-.31-40.51-1.52-2.16-.24-3.13,1.41-1.09h30.35c.41,5.84.32,11.63-.29,17.36-3.71-2.36-10.74-1.46-15.39-.84Z"/>
  <path class="cls-12" d="M412.94.08c1.42.24,2.74.56,3.96.97.91.36.83.7-.15,1.01l1.96,1.16c.38,3.11.52,12.03-2.41,13.06-4.75.52-9.65.69-14.38-.18-.26.86-.54.81-.84-.08l-2.72.92-172.86-.44-1.63.74c.73-5.56.98-11.2.76-16.94l188.31-.22Z"/>
  <path class="cls-12" d="M96.01,160.99c-4.4.81-9.71,1-14-.2-.3.91-.63.87-.98-.05-.85.49-1.11.21-.82-.76-.71-.19-.79-.54-.24-1.03-.6-4.12-.74-8.3-.43-12.54-4.24-1.02-8.88-1.31-13.91-.89.29,4.65,0,9.15-.84,13.49.83.36.75.67-.17.92.66.36.97.8.94,1.31.05.79-.45,1.04-1.52.77.2,15.63.55,31.23,1.06,46.81-5.56-.46-11.15-.6-16.78-.41l-.06-80.08,31.85-.21c.17-5.55-.64-10.53.65-15.17,2.52-.38,15.1-1.4,16.38-.72.36.19.62.57.86,1l.05,29.83c4.71-.24,9.3.11,13.75,1.04-.77,10.87-.61,21.73.49,32.58-5.02-.39-10.12-.48-15.28-.25-.16-5.16-.49-10.31-.99-15.44Z"/>
  <path class="cls-12" d="M672.01,336.96c.28,5.11.66,10.29,1.15,15.55,5.37.33,10.66.19,15.87-.41-.72,5.22-1,10.52-.86,15.9-5.2.03-10.27.38-15.2,1.06l-.19,111.38c-5.67-.38-11.28-.29-16.81.27.35-26.62.69-53.19,1.03-79.7-.68-21.67-.8-43.52-.33-65.55l1.19,1.04c4.92-.34,9.64-.18,14.15.47Z"/>
  <path class="cls-82" d="M422.01,2c4.01-.89,9.6-.85,14,0,.09-.55.19-.98.3-.98,3.4-.11,26.21-.55,27.45.04-.59,4.78-.51,9.43.25,13.96.27-.88.61-.88,1.03-.03l-.17,1.09c.76.13,1.89.39,1.96.94.17,1.42-.18,12.07-.58,12.56-.55.67-1.19,1.12-2.06,1.27,1.25,1.77,1.31,2.88.16,3.32-9.84.53-19.75.67-29.74.42l-.05,13.76-2.84,2.37c-1.38.68-29.43.42-30.82-.25s-2.15-1.19-2.39-2.82l-.48-29.14,1.98-1.5c-.33-.53.03-.86,1.08-.99l.84.08c4.75.87,9.62.69,14.38.18l.45-14.22c1.17-.85,3.95-.81,5.25-.06Z"/>
  <path class="cls-12" d="M47.59,336.94l-47.16-.18c-.58-5.69-.59-10.77.11-16.54l47.51-.31.68-14.97c5.13-.47,10.28-.84,15.45-1.13l1.54,1.51.26,13.58,13.64.17c1.97.73,2.72,1.65.9,2.81l-.31,14.28c-5.41.08-10.64.43-15.68,1.05l-.1,30.24c1.75,1.56-.14,1.91-5.68,1.06l-10.97.09c.72-10.21,1.2-21.65-.18-31.67Z"/>
  <path class="cls-12" d="M65.01,208c5.19.3,10.47.66,15.83,1.07l-.32,62.72c1.26.45.99.85-.5,1.21.24,10.54.65,21.21,1.23,32.01-.78,1.24-15.62,1.38-16.28.88-.99-.74-2.07-2.36-.72-2.82.39-4.86.27-9.57-.36-14.13l-15.26-.59-.15-14.82c-1.57-2.15-.26-3.13,1.35-1.04,4.89.29,9.63.09,14.21-.58l.03-62.85-15.76-.67,15.53-.62.2-45.78.92-.32c.2,15.21.57,30.42,1.09,45.65l-1.04.67Z"/>
  <path class="cls-12" d="M256,480.95l-15.63-.24-.41-15.85-46.95-.02-.08,15.13c-4.98.88-11.06.9-15.93.04-.58-9.89-.74-20.02-.49-30.4-1.54-2-.42-2.99,1.2-1.1,26.69-.1,53.32-.04,79.89.19l-1.11,1.2.05,29.61c1.21.7.96,1.17-.54,1.45Z"/>
  <path class="cls-12" d="M688.34,240.47c-.08.79-.32,1.97-.87,2.01-10.38.78-22.23.5-32.47-.24-1.21-4.67-1.64-9.62-1.3-14.85l-10.62-.2-.07,27.37-2,1.44c-.26.78-.6.75-1.01,0-.87-.28-.86-.62,0-1-.57-9.43-.73-18.94-.48-28.54-4.97-1.05-10.24-1.43-15.81-1.14-.44-10.21-.29-20.31.46-30.31-2.57-.75-2.3-1.67.33-2.04-1.71-.08-1.68-.63-.26-1.42.43-4.95.36-9.8-.19-14.55-.36,2.27-1.03,2.74-1.39.49-4.61.3-9.16.14-13.66-.49-.88-.04-1.34-.76-1.39-2.17l-.11-12.46c-4.29-.98-8.95-1.25-14-.81l.03,11.31c.09,1.61-.33,2.63-1.28,3.06l-.19-15.97c5.53-.05,11.23.53,16.02-.59.42-.72,1.07-1.52,1.79-1.39,1.88.34,11.91,1.94,12.84.63l.22-13.17,2.02-1.38,16.06.08.1,79.97,15.55.28.37,15.56,31.31.52Z"/>
  <path class="cls-28" d="M145.02,465c4.21-.59,8.64-.75,13.28-.47.52-1.32,1.56-1.67,2.35-.53-.48,5.47-.37,10.82.35,16.03.35-2.24,1.01-2.75,1.38-.53,4.76.41,9.08.13,12.98-.84l.65,1.33c.28-.87.62-.86,1,0l15.93-.04c.17.54-.26.99-.99,1l-14.94.08v29.91c-.01.69-.6,1.11-.98,1.08-.88-.28-.87-.62-.02-1.03l-2-.89v-27.1s-11.58-.04-11.58-.04l-1.37-2c-.22,1.14-.65,1.49-1.27,1.07-.64,4.29-.68,8.69.22,12.95.9.06.7.66-.14,1.12l-1.37,2.01c-5.04.43-9.96.22-14.77-.63-1.17-4.71-1.57-9.69-1.2-14.94l-43.72-.54c-.07-.99-.67-1.67-1.8-2.02-.66-.29-.64-.63,0-1,.64-4.36.82-8.82.53-13.38,4.28.2,8.45-.06,12.52-.77.48-4.8.65-9.64.51-14.52l2.01-1.39c10.1-.46,20.36-.6,30.78-.43,2.13-1.54,3.12-.28,1.13,1.38-.3,5.13-.13,10.17.51,15.11Z"/>
  <path class="cls-12" d="M160.56,109.09c3.43,1.62,1.41,3.75-1.59,4.95-9.41.36-18.84.48-28.29.36l-.38,27.62-2.01,1.42c-5.61.13-11.18-.03-16.71-.49-.48-9.55-.67-19.14-.57-28.77l-14.21-.54c-.85-5.49-.89-11.11-.13-16.86,5-1.45,10.01-.38,15.34-.67l.59-15.14c4.57-.49,9.21-.68,13.92-.58,2.47-1.69,3.81-.78,1.97,1.25-.34,5.18-.1,10.14.7,14.88l31.23-.26c-1.12,4.58-1.08,8.86.12,12.83Z"/>
  <path class="cls-12" d="M384.01,513.01c.28-.88.61-.86,1,0l.52,2.71c-.47,5.27-.15,9.2.95,11.8h28.05c-1.01-.41-.53-.69.97-.88-.3-4.6-.13-9.14.51-13.63.28-.87.62-.86.99,0,5.12-.6,10.34-.77,15.67-.49.19,10.76-.02,21.47-.64,32.15l-63.06.08c-.19-10.86-.55-21.65-1.07-32.37,5.45.03,10.82.24,16.1.64Z"/>
  <path class="cls-45" d="M352.01,481.01c.24,5.21.56,10.59.96,16.11-11.81-.73-24.27-.99-35.96-.06l-60.58-.08-.43-16.03c.17-2.3.83-2.73,1.2-.47,31.76-.26,63.36-.08,94.8.54Z"/>
  <path class="cls-82" d="M209.05,6.94l-.24,9.13c.76.13,1.9.37,1.97.93.18,1.43-.08,12.1-.48,12.59-.54.67-1.18,1.13-2.05,1.29,1.74,2.26,1.43,3.55-.93,3.88l-28.73-.17-.09,13.91c-.64,1.15-.78,1.28-1.83,1.97-.72.48-15.8.93-15.63-2.24-.92-5.86-.8-13.22-.03-19.23-.31-3.23-.64-6.56-1.01-10,0-.78.19-1.54.89-1.96,5.13-.18,10.16-.15,15.11.1.96-5.04,1.44-10.38,1.44-16.03,1.38-.63,27.99-.75,30.37-.28.7.14.36,14.38-.34,14.26-.45-.08-.02-8.95,1.57-8.15Z"/>
  <path class="cls-50" d="M528.42,16.27l.36,15.02c1.81,2.07.56,3.16-1.23,1.16l-61.35.42-1.2-.85c-.92.83-1.19.44-.82-1.17l.69-14.77,63.55.19Z"/>
  <path class="cls-50" d="M80.11,528.08l.24-63.11c4.96-.59,10-.79,15.11-.59,2.13-1.65,3.14-.35,1.08,1.35l-.09,61.55c2.45,1.52,2.05,2.7-.93,1.48-5.19.18-10.32-.05-15.41-.68Z"/>
  <path class="cls-3" d="M672.79,480.43l-15.81.43-.22,31.75-15.72.39-.38,15.84h-32.29s-.36-15.84-.36-15.84c-5.38-.28-10.26.74-15.63-.66,1.16-2.18,3.99-2.91,8.49-2.18,3.65-.79,6.03-.18,7.14,1.85.29-.87.62-.86,1,0,.36-2.26,1.05-2.74,1.44-.5h28.11c-1-.45-.53-.75.93-.95l.52-29.56c0-.89.72-1.35,2.17-1.39l12.49-.12c-1.11-.46-.67-.77.84-.98-.25-9.92-.12-19.79.39-29.62-.89-.05-.88-.31-.04-.77-1.94-.07-1.84-.83.15-1.12-.85-14.69-.85-30.3,0-45-.87-.28-.86-.61,0-1,.28-.87.62-.86,1,0v78.45s15.78.98,15.78.98Z"/>
  <path class="cls-78" d="M624.64,96.94l-15.44-.53-.23,32.58-15.99.03c-.86,0-.99-.68-.99-1.02.28-.87.62-.86,1.01,0,.35-2.25,1.01-2.74,1.38-.53.51.34,11.7.28,12.24,0,.03-.02-.25-.18-.61-.39.66-.06,1.24-.19,1.5-.55.84-1.13.54-26.76-.01-28.05-.41,1.01-.68.53-.88-.97-4.6.3-9.14.13-13.63-.51l-.83-.19c-.5-5.21-.94-10.31-1.32-15.3-5.04.26-9.87.04-14.48-.69-.61-.12-.7-.44-.29-.94-.78,0-.88-.29-.33-.87-.43-4.16-.51-8.36-.24-12.6l-.91-.86c-4.3.27-8.49.09-12.59-.55-.06,1.93-.81,1.9-1.4,0-.69.53-.88.31-.62-.58-1.93-.08-1.89-.84.02-1.42l-.51-1.4c.42-5.32.09-9.34-.98-12.08h-30.83s-.21-15.13-.21-15.13l-1-.86-60.45.18c-2.26.48-2.23.21-1.01-1.7l63.47-.13-.05-15.62.69,15.7,31.88.03.21,15.99,15.47.37.6,15.9,15.41.24.37,15.42,15.93.1.05,15.86,13.07.06c1.1,0,1.84.38,2.53,1Z"/>
  <path class="cls-52" d="M128.28,143.44l-.8,2.03-13.39.47.19,28.41c5.14-.06,10.16.38,15.06,1.32,1.11,4.78,1.67,9.81,1.68,15.07l29.9.28c.25-.41.52-.79.88-1.04,1.19-.84,25.74-.21,29.1.04l1.45,2c1.23,3.3-3.51,4.64-4.32,1.3l-25.54.23-.93.85c.27,4.63.1,9.18-.53,13.65.81,3.15-4.23,4.49-5.06,1.32l-28.28-.04-.27-16.58c.03,1.93-.73,1.93-1.4.06-4.7,1-9.49,1.16-14.35.46l-.25-16.6c.01,1.93-.74,1.93-1.4.05-3.89,1.26-8,.93-11.99.29-.35.91-.68.91-1-.01-.89.54-1.25.35-1.04-.62-1.92-.1-1.88-.84.04-1.36-.63-4.09-.8-8.29-.52-12.61-1.23-.66-.99-1.12.52-1.4.68.13,1.04.86,1.06,1.95l.24,13.11,13.67-.29-.17-30.39-14.8-.36-.03-32.46-15.23.39c.47-.49,1.17-.98,2.19-.98l12.99-.05c.42-5.24-.74-10.39.75-15.13l-.22,14.91,16.54.33.23,30.63,15.06.78Z"/>
  <path class="cls-8" d="M672.98,369.05c0-.35.15-1.06,1.02-1.08l13.69-.35.29-14.33-15.96-.29v-16.04c.27-.75.61-.75,1-.02l.52,1.39c-.42,5.65-.14,10.04.87,13.16,4.82.45,9.19.16,13.11-.88-.36-4.7-.07-9.18.84-13.44-1.14-1.43-.58-1.95,1-.98l.45-.58c5.77.38,10.33.06,13.67-.99-.27-4.63-.1-9.18.53-13.65-1.12-.8-.99-1.29.38-1.47l14.25-.04.87-1v-44.25c-.37,1.29-.68.92-.94-.69-9.6.23-19.13.07-28.59-.51-.95,1.6-1.14,1.19-1.29-.58l.85-2.02,28.8-.61.05-11.9,1.99-1.43c1.33,5.12.39,10.09.72,15.48l15.8.41v48.28s-15.85.36-15.85.36l-.37,15.62-15.7.24-.36,15.69-15.59.35-.36,15.75-15.69.39Z"/>
  <path class="cls-50" d="M720.38,256.47l.12,15.28-31.8.67c-.38,1.21-.61,1.15-.67-.15-1.95.08-1.9-.71.06-1.21-.71-4.08-.91-8.28-.62-12.63-.33,1.08-.62.61-.87-.92l-12.58-.22c-.81.18-1.03-.42-1.02-1.27l.87-2,12.41-.06.06-12.12,2-1.38c1.39,5.18.41,10.17.79,15.59l31.25.41Z"/>
  <path class="cls-50" d="M96.08,416.15c1.53.05,1.75.33.46.9.27,10.54.09,20.91-.53,31.12-5,.5-10.19.58-15.58.24l-.4-31.41c-5.38-.3-10.31.75-14.98-.99l.86-2,12.09.02-.08-8.45c-.33-3.02.6-4.65,2.77-4.91l2.11,1.96v11.66s11.88-.12,11.88-.12l1.4,1.98Z"/>
  <path class="cls-41" d="M96.01,448.17c.47-.99.83-.95,1.09.12,5.22.28,10.39.5,15.49.66l-.15,14.68c-.02,1.28-1.85.96-2.38,1.22-3.78.75-7.67.98-11.66.67,1.11.37.66.65-.86.87.28,4.31.1,8.51-.53,12.61v1c.87.28.86.62,0,1l.83.31-.34,45.5c.41-1.29.74-.92,1.01.7h44.26c-1.29-.35-.92-.64.69-.88-.26-4.72-.08-9.26.55-13.63.23-.79.58-.88,1.07-.24l2,.87.06,12.34,12.04.11,1.36,2.01c-.39.28-.85.87-1.55.86l-13.89-.08-.46,16.03h-48.29s-.45-15.85-.45-15.85h-13.01c-1.09.01-1.81-.41-2.8-.97l15.78.41.15-63.69-15.7.16c.55-.42.95-.93,1.67-.93l14.01-.09v-14.81s-15.59-.72-15.59-.72l15.58-.24Z"/>
  <path class="cls-2" d="M463.93,368.25c-.11.54-.23.97-.38.99-4.38.4-8.69.37-13.08.26.98.4.66.73-.96.97v28.42c2.28.48,1.65,1.24-.51,2.12.87.28.86.61,0,1,.87,9.49.85,19.49,0,29,.87.28.86.62,0,1,.87.28.86.62,0,1l.83.18-.34,77.61c.42-1.27.74-.89,1,.71l44.98-.05c-.3-4.59-.12-9.47.53-14.62l1,.17,2,.86.02,12.19,12.01-.02,1.37,2c-.48.65-1.22,1.02-2.31,1.02l-13.03-.05-.41,15.89h-48.29s-.44-15.86-.44-15.86l-14.85.05v29c-.01,1.13-.39,1.86-1.04,2.58l.18-31.55-15.21-.11-.17-1c4.53-.66,9.14-.84,13.82-.53l.86-1.03v-60.25c-1.27-.44-1.01-.83.5-1.19-.87-.29-.86-.62,0-.99,1.72-1.36,2.85-.83,2.97,1.3l.14,60.49c3.4.2,6.85.29,10.36.29.64-46.12.81-92.45.52-139l-11.01.17v60.01c.08,2.19-1.04,2.96-2.99,1.73-.87-.29-.86-.62,0-1-2.36.09-2.88-1.29-.49-1.8-.27-15.15-.14-30.25.4-45.3-.89-.02-.89-.29-.07-.78-1.94-.07-1.84-.83.15-1.12-.86-4.44-.86-10.01.08-14.25.07-.89.69-1.27,1.87-1.13l13.5-.17c-.22-4.66-.07-9.56.46-14.68l1.09.24,2,.86.04,12.16,11.54.2,1.34,2.02Z"/>
  <path class="cls-10" d="M592.01,385l-.86,2-12.15.05v74.5s10.72.55,10.72.55l.36-12.43c.32-1.55,1.53-1.62,2.91-.7,2.26.35,2.74,1.02.51,1.38v12.23c.41-1.08.69-.62.89.88,4.64-.26,9.19-.09,13.64.52.62.31.6.64-.03,1l-.84,2.02-12.45.53-.36,43.6-2.01,1.18-.56-47.23-14.79-.14-.38,15.7-15.55.63-.1,15.7h-16.99c-.87,0-.99-.34-.41-1.01l.82-2.01,13.24-.23.4-10.64c-10.49.34-20.85.05-31.09-.88-1.11-4.81-1.44-9.88-.99-15.2l-11.6-.02-1.38-2c.13-.53.27-.94.46-.96,4.34-.47,8.62-.59,12.98-.5l1.02-.92c-.24-4.63-.11-9.21.4-13.73-.89-.08-.86-.34-.02-.76-.83-.43-.76-.81.14-1.12-.28-15.3-.65-30.46-1.13-45.47l-15.1-.21c-.45-5.17-.38-10.28.23-15.31-.87-.29-.86-.62,0-1-.02-.9.32-1.02,1.01-.4l2,1.1c-.35,4.37-.12,8.47.7,12.29,3.52.19,6.94.07,10.28-.37v-10.82s2-1.4,2-1.4c0-.85.34-.97,1.01-.4.87.28.86.62,0,1,.59,4.06.77,8.26.53,12.59.4-1.06.68-.6.88.89,4.63-.26,9.17-.09,13.61.51.85.39.81.76-.08,1.12l-.87,2-12.08.15.03,58.73,11.56.23,1.34,2.03c-.11.54-.23.97-.38.98-4.37.4-8.68.36-13.06.24,1.02.45.54.73-.95.91-.4.47-.29,11.71,0,12.24.02.03.18-.25.38-.62.06.66.19,1.24.55,1.5,1.17.87,28.25.65,28.99-.6-.06-4.54.03-9.06.19-13.61.03-.77.6-1.19,1.35-1.3,4.38-.65,8.92-.84,13.64-.56-1.08-.47-.62-.78.88-.99-.27-20.56-.14-41.08.41-61.55-.89,0-.89-.27-.08-.78-1.94-.07-1.84-.83.15-1.12-.35-4.55-.71-9.05-1.11-13.49-4.39.26-8.75.16-13.1-.29-.69-.16-1.23-.33-1.25-.56-.48-4.88-.4-10.85.45-15.63-.87-.3-.85-.64.01-1.02,5.14-.52,10.5-.57,16.08-.16l.42,15.64c4.69-.09,9.37.1,14.03.56l.47.96Z"/>
  <path class="cls-50" d="M18.14,368.88c9.59-.51,19.24-.64,28.93-.4.5-.85.92-1.5,1.07-1.45.81.32.96,16.93.18,17.32-1.33.67-26.3.38-29.81.17-.75-.05-1.46-.11-2.13-.46l.02-14.77c0-.64,1.34-.42,1.75-.42Z"/>
  <path class="cls-17" d="M401.09,16.02l-1.08.99c.12.54-.45.76-.93.85l-172.74-.34c1.27.32.87.61-.75.86.23,4.21.09,8.38-.42,12.51,1.38.31,1.24.67-.42,1.09.58.61.37.81-.54.65-.35,2.66-1.25,2.65-2.19.15-3.83,1.08-8.08,1.07-11.95.17-2.3,1.93-3,.56-1.81-2.08l.56-14.81,15.19-.1.63-15.67.27,15.7,176.19.02Z"/>
  <path class="cls-2" d="M81.01,274c.79,4.26.83,8.73,0,13,.87.28.86.62,0,1,.87.28.86.62,0,1l.91.29c-.88,5.15-.71,9.88.51,14.22,4.76-.3,9.27-.06,13.52.72.78-.27,1.07,0,.86.81.86,5.18.98,10.53.37,16.03l-14.75.41c1.06.43.6.72-.89.91.28,4.72.1,9.26-.53,13.61l-.84,1.23c-4.59.33-9.19.43-13.8.3,1.11.45.65.75-.87.95v28.04c.4-1.02.69-.53.89.96,4.58-.2,9.13-.06,13.66.44,1.94-.02,1.88.75-.1,1.16l-.85,2.01-12.32.19.25,43.51-1.99,1.2-1.19-46.89-14.73-.1-.15,16h-30.94c-.71-.01-1.2-.7-1.66-.96l31.28-.25.87-14.84-30.38-.1c.01-.47.77-.91,1.8-.91h28.01s-.36-31.03-.36-31.03c.64,0,1.48.19,1.46,1.05l-.43,30.56c5.32-.71,9.45-1.11,15.21.08l.21-32.59,15.95-.05v-14.97s-15.98-.03-15.98-.03l-.32-16.51-14.98.46c.49-.49,1.21-.98,2.22-.98l12.91-.05.04-14.96c.35.01,1.14.16,1.12,1.04l-.39,13.97h15.41s-.02-30.96-.02-30.96c.28-.87.62-.86,1,0,.87.29.86.62,0,1Z"/>
  <path class="cls-50" d="M129.7,64.79c5.28-.03,10.49-.41,15.63-1.13-.72,5.41-1.16,10.85-1.32,16.32.97,2.72-.32,3.22-1.94.86l-2.89.73c-5.67-.22-8.01-.06-9.65.8-.64.34-.06,13.27.96,13.15,1.13.84,26.91.7,28.13,0,.35-.21.65-.49.9-.82-.26-4.67-.1-9.24.49-13.72.43-.83.8-.77,1.11.14l1.98,1.15.15,11.21c15.99-.53,32.01-.69,48.06-.49,2.19-.07,2.95,1.06,1.71,3-13.36.52-27.02.65-40.95.39l-1.66,1.98-7.81.25c.54,4.4-.14,7.9-2.03,10.47-2.64-.58-1.68-6.21-.8-12.21l-31.73.13-.05-16.25c-5.34.41-10.27.23-15.36.19.27-.32.65-.92,1.41-.93l13.98-.14.24-13.87c.02-1.03.76-1.29,1.45-1.23Z"/>
  <path class="cls-41" d="M369.01,512c.14-1.52.49-1.75,1.09-.5h12.02c1.83,0,2.46.5,1.9,1.51l-14.81.3-.22,31.43c-.62-.82-1.02-1.53-1.02-2.66l.08-29.02-15.65-.35-.44-15.53-34.94-.12c-.1-.4.33-1.09,1.05-1.08l33.65.17.3-15.14c.27-.88.61-.87,1-.01,2.25.35,2.74,1.01.52,1.38v12.22c.39-1.08.67-.62.87.89l14.09-.14c-.29,5.65-.12,11.2.51,16.66Z"/>
  <path class="cls-41" d="M543.6,495.98l.41,1.02-31.03.07-.57,14.97-15.38.03-.03-15.07c-.87-.29-.86-.62,0-1,4.44-.64,8.97-.82,13.57-.52l.91-.99.6-28.86.92-.63,2,.89v27.96s27.13.13,27.13.13l1.46,2Z"/>
  <path class="cls-3" d="M64.04,271.92c0,.36-.12,1.09-1,1.09l-14.09-.03-.32,15.37c-1.38-4.81-.32-9.99-.63-15.25l-15.54-.46c-.64-5.47-.69-10.59.22-16.15l16.12-.34.17,15.87,15.06-.11Z"/>
  <path class="cls-41" d="M159.94,48.09c.51-.87.87-.82,1.1.15,2.56.53,2.3,1.33-.24,1.77,1.39,4.48.94,9.29.43,13.91l-.79,2.04-13.45.57-.09,12.74c-.31,1.57-1.5,1.66-2.89.71.03-4.82-.16-9.58.21-15.23-5.39.36-9.88.42-14.52.04.47-.39,1.22-.82,2.24-.83l12.13-.06.71-15.11,15.17-.72Z"/>
  <path class="cls-8" d="M176.01,511.01l.02,1.03c.02.84-.9,1.06-1.89,1.05l-13.17-.14-.43,15.14-15.39-.07-.07-15.26.38-1c4.49-.3,8.99-.44,13.5-.42-1.51-.11-1.23-.36.51-.73-.24-4.63-.1-9.21.41-13.73-.89-.08-.87-.34-.02-.76l.14-1.12c-.91-4.22-.87-8.69-.22-12.95.17-.33.92-.96,1.27-1.07l2,.9-.02,27.33c1.6.71,3.39,1.01,5.38.89,3.25-.73,5.78-.43,7.6.9Z"/>
  <path class="cls-39" d="M209.05,6.94c-1.81,1.94-.33,5.06-1.57,8.15l-.67-14.03c-9.79,1.53-19.05.8-28.74.92l-.13,12.96c-.01,1.17-1.21,1.98-1.93,2.2-1.94.17-1.93-.61,0-1.15.03-4.91-.62-9.94.72-15.74l32.07-.19.24,6.89Z"/>
  <path class="cls-44" d="M465.02,1c-.39,4.72-.73,9.4-1.02,14.02-.44.01-.98-.29-.98-.99l-.06-12.04h-26.96c-4.72-.39-9.39-.72-14-.99-.74.88-3.87.77-5.11.04-1.4.01-2.92.17-3.96-.97L463.99,0c.9,0,1.03.65,1.03,1Z"/>
  <path class="cls-5" d="M176.02,15.99v1.15c-4.73,1.44-10.4,1.23-15.12-.1,1.03-.63,2.38-1.08,4.05-1.07l11.07.02Z"/>
  <path class="cls-40" d="M161.04,48.23c-.3-.01-.74-.26-1.1-.15l.07-19.08c.29-.87.62-.86,1.01,0l.03,19.23Z"/>
  <path class="cls-81" d="M465.04,14.99l-1.03.03-.05-12.09c0-1.07.38-1.82,1.06-1.93l.02,13.98Z"/>
  <path class="cls-1" d="M161.01,29h-1.01s0-10,0-10c.67.11,1.06.85,1.05,1.92l-.05,8.08Z"/>
  <path class="cls-83" d="M544.9,138.09c-.01,2.25-.05,4.53-.89,6.63-4.29.86-8.82,1.11-13.59.78,1.07.41.61.69-.9.89.25,4.37.08,8.58-.52,12.63.3,1.59-1.05,2.64-1.99.98-1.39-1.96-1.68-4.63-.89-8.01l-.57-4.69-11.36-1.17-1.18-2.13.77-1.36c3.98,1.07,8.33,1.3,13.07.69.43-1.45,1.04-1.39,1.8.03l-.25-46.85c.42-2.14,14.52-1.88,15.2-1.46,1.18.72,2.48,2.07.98,2.65-.29,13.52-.19,26.99.31,40.4Z"/>
  <path class="cls-24" d="M529.99,160.01h46.02c.55.31.54.65,0,1.03-.38,2.28-1.09,2.74-1.5.48l-44.26-.02c1.3.34.91.63-.72.87.2,4.91.03,9.79-.51,14.64l-46.77.53c1.3.3.92.58-.71.83.19,4.91.02,9.79-.52,14.64l-46.77.53c1.3.3.92.58-.71.83.19,4.91.02,9.79-.52,14.64l-46.81.52c1.29.38.92.7-.69.98v44.26c.34-1.29.63-.92.87.69,4.57.34,8.94.14,13.12-.6l.19-15.12c5.44.19,10.71-.1,15.79-.85l.1-14.65c.87-1.2,1.55-.93,1.45.54.77.1,1.89.3,2,.87.4,2.01.13,6.88-.01,9.18.65,3.27-.02,5.33-2.01,6.18l-1.14,2h-12.79s-.09,12.58-.09,12.58c-1.18.91-2.22,2.05-3.14,3.42l-12.78.03-.06,12.56-2,1.42c-.28.87-.62.86-1,0l-.86,2-12.13.02-.02,11.6-2,1.38c.84.38.79.72-.11,1.01l-1.13,2h-12.7c-.06,3.65-.07,7.31-.02,10.96l12.28.05c.95.82,1.53,1.91,1.74,3.28l2,1.13.18,11.59,27.4.93,1.37,2.05c-.36,2.26-1.05,2.74-1.45.51l-30.86-.11-.47-15.57c-5.05-.44-10.22-.62-15.51-.52l.04-17.51,15.41-.6c.44-5.04.62-10.2.52-15.47l14.89-.23c1.62-3.59,1.24-10.06.28-13.99-5.12.28-10.07.11-14.85-.52-.87-.29-.86-.62,0-1l.85-2,13.16-.23v-42.14c-3.44-.7-7.09-.9-10.96-.59l-.53,27.55-2.03,1.41c-.83.6-1.33.6-1.49.02l-1.42-1.52c.12-10.55.52-21.05,1.21-31.49,4.79-1.12,9.84-1.45,15.15-.99l.09-21.58,2-1.43c-.87-1.9-1-4.08-.02-5.98l2.03.83,1.21,28.17,42.71-.03.05-10.6,2.01-1.39-2.49-1.12c-.87-3.13,1.53-4.12,3.4-1.43l.95-1.99,43.47.63c.97-3.53,1.09-7.3.36-11.28l1.61-1.96c-2.66-2.46.14-4.64,1.91-1.43l.95-1.99,43.16.67c.84-4.16,1.06-8.53.67-13.09-.87-.29-.86-.62,0-1,.28-.87.61-.86,1,0l1.99-.98c.34-.31.67.02.99.99Z"/>
  <path class="cls-74" d="M576.71,117.41l-.28,26.8-15.93.6.17-31.8c5.38-.22,10.63-.61,15.73-1.18l.31,5.58Z"/>
  <path class="cls-30" d="M513.01,80c.55,4.82.71,9.67.49,14.57,3.59,1.62,10.07,1.24,14.01.28-.22-4.98-.05-9.93.5-14.85,5.74-.59,11.5-.71,17.3-.36l.22,14.95c.47-1.04.77-.57.96.9l30.52.51.77,15.17,15.23.83c.55,4.82.72,9.68.49,14.58,1.26.66,1.03,1.13-.49,1.42h-1.01s0-14.99,0-14.99l-15.05.02-.24,4.38-.93-4.33-15.11-.07c.76-.86,1.81-1.13,3.23-1.11l12.09.24v-15.16s-30.88,0-30.88,0l-.2,41.11c-.48-.34-.93-1.03-.93-2.04l.1-39.04h-14.97s-.45,46.33-.45,46.33c-1.34.13-1.73-.05-.82-.67.16-15.34-.11-30.57-.82-45.69-.42,2.89-9.01,2.45-11.65,2.01l-1.35-2-1.01,1.97c-1-.39-2.12-.89-3.37-1.49l-27.15.02c.99.51.5.81-.96.98-.26,10.58-.09,20.76.49,30.52,1.77,1.78,1.43,2.16-1.03,2.12-4.24.03-8.58-.1-13.01-.39l-1.15-2.51c.63-3.17,10.01-3.21,11.03-.21l1.42-1.17c.55-10.05.47-20-.24-29.86l-.08,1.33c-14.4.7-29.06.99-43.99.86l.11,7.01c.35,3.71-.66,5.64-3.05,5.81-1.51-.15-1.75-.52-.51-1.14-.2-4.98-.03-9.93.5-14.86l46.84-.53c-1.29-.29-.93-.56.67-.83-.21-4.91-.04-9.79.5-14.64h32.99Z"/>
  <path class="cls-73" d="M624.95,144.05l-.23,16.45-10.76.55c-2.45.12-4.31-1.03-5.88-1.68l.43-14.94,16.44-.37Z"/>
  <path class="cls-33" d="M576.01,161.04c.25,4.86.49,9.82.73,14.89.21.19.4.69.27,1.07l-1.31.41-2.32-1.05c-.21-4.45-.52-8.57-.93-12.37h-39.88c-.38,3.76-.78,7.81-1.2,12.16l-2.36.85.04-16.01,46.96.04Z"/>
  <path class="cls-33" d="M609.01,177c-.07.39-.51.5-1.32.32l-2.32-.99c-.53-3.99-.63-8-.3-12.02l-9.12-.26c.31,4.12.21,8.22-.31,12.32l-2.32,1.06-1.32-.41c-.12-.39.1-.87.25-1.08,1.68-4.4.39-9.67.75-14.87l14.98-.05.05,13.02c0,1.26.53,2.27.98,2.97Z"/>
  <path class="cls-45" d="M544.01,144.72c-.27.68-.54,1.38-1.91,1.37l-12.07-.06-.03,13.97c-.58,0-.99-.39-.99-.99l.03-14.03,14.98-.27Z"/>
  <path class="cls-33" d="M592.01,177l1.32.41c-3.25,4.06-14.39,4.06-17.63,0l1.31-.41h15Z"/>
  <path class="cls-45" d="M576.74,175.93c-1.63-4.58-.77-10.07-.73-14.89v-1.04c.35,0,1.02.13,1.02.99l-.28,14.95Z"/>
  <path class="cls-17" d="M416.31,16.28c-4.21,1.19-11.22,1.33-14.38-.18l14.38.18Z"/>
  <path class="cls-69" d="M422.01,1.01c.87.28.86.61,0,1l-5.25.06c0-.25.24-.71.15-1.01l5.11-.04Z"/>
  <path class="cls-57" d="M80.2,159.98c.24.24.55.62.82.76l1.97,1.75c-.41,4.29-.26,8.33.46,12.11l11.08-.22,1.44,1.97c.32.26.69.5,1.04.62l1.99,1.19-.12,27.94c4.87.14,9.84.52,14.92,1.14,1.12,4.51,1.46,9.29,1.02,14.34l-1.99,1.4c1.98,1.99.68,2.74-1.66,3.55l-12.61.07.52,28.3-1.97,1.48c.56,1.21.01,1.56-.98.67-2.98,2.64-11.02,2.37-14.12-.07-.65-.33-.62-.67.05-1.01-.58-15.43-.71-31.2-.4-47.3-.76,1.41-1.3,1.46-1.6,0-4.15-.03-8.16-.25-12.04-.68l-2.19-.68c-.22-15.19-.55-30.34-1-45.43l.73-.68c-1.03.05-1.03-.86-.94-1.31,1.67-1.58,4.1-2.05,7.29-1.4,3.77-.88,6.53-.4,8.3,1.46Z"/>
  <path class="cls-28" d="M96.01,175l-.04,1.36-15.23.3.28-15.91c.27.14.73.03.98.05,4.19.86,8.67,1.1,13.42.72-.21,4.6-.01,9.1.58,13.49Z"/>
  <path class="cls-28" d="M79.96,158.94c.21.17.42.63.24,1.03-5.08.39-10.52,1.05-15.59-.06l.17-.92c.92-4.28,1.16-8.76.75-13.44,4.66-.04,9.33-.05,14,0-.29,4.51-.15,8.98.44,13.39Z"/>
  <path class="cls-38" d="M68.02,208.02c-.3.88-2.26.68-3.01-.01v-44.93c0-.72-.61-1.13-.97-1.07,0-.29.47-.69,1.52-.77l.43,41.79c.02,2.37.13,4,2.04,4.99Z"/>
  <path class="cls-24" d="M79.96,158.94c-2.06-3.66-.58-8.36-.92-12.86l-12.98-.06.06,10.11c0,1.41-.55,2.35-1.34,2.88.47-4.49.14-8.91.21-13.99h15.01s-.05,13.92-.05,13.92Z"/>
  <path class="cls-24" d="M96.01,160.99v14.01c-.67-.11-1.06-.86-1.06-1.92l.02-11.05-11.96-.05c-.77,0-1.15-.72-1.01-1.19,4.66.42,9.33.15,14,.2Z"/>
  <path class="cls-63" d="M656.25,256.62c2.12.05,2.41.79.88,2.21l.42,76.63c4.64-.23,9.64-.11,14.99.35l-1.99-.89c.07-4.19.14-8.38.21-12.58l2.02-1.33c5.05-.4,10.21-.81,15.5-1.24l-1.93-.69c.05-15.16.16-30.32.33-45.49l2.01-1.16c.21.97.98.59,1.29.58,9.89.41,19.74.69,29.53.85v45.54s-15.13.1-15.13.1c.96.71.04,1.4-.38,1.47-.63,4.7-.81,9.5-.53,14.39-5.19-.07-9.89.2-14.12.82-.23.35-.62.85-1,.98-.93,4.53-1.22,9.29-.86,14.27l-13.91.06c.24-4.97.05-9.82-.57-14.55l-1.01.02-15.01.09v63.95s-.99,0-.99,0l-2-.93v-61.01s-10.98,0-10.98,0c.33,15.66.03,31.21-.93,46.64-4.77,1.16-9.8,1.6-15.09,1.32l-.08,12.73-2.01,1.36-2.05-.74-.75-13.23-11.13-.09.1,42.69c.15,2.38-1.21,2.8-3.31,3.42-.11.77-.32,1.91-.87,1.99-1.41.22-12.06.27-12.56-.12-.69-.52-1.16-1.15-1.34-2.01-.59-.33-.56-.68.05-1.03.35-2.25,1.01-2.74,1.38-.53.64.43,13.48.23,13.07-1l.07-46.73,15.07-.25.87-1.02v-44.22c-.35,1.29-.64.92-.88-.69-4.57-.34-8.95-.14-13.12.6l-.18,15.14c-.67.57-17.01.69-17.63.06s-.61-16.97-.05-17.65c6.44.22,11.73-.18,15.87-1.18l.09-30.8c5.88-.08,11.77-.11,17.67-.07l.32,30.86c.1.33.44.67.79.99.49.46,12.53.09,13.13-.8l-.28-77.03.77-.69c-.87-.28-.86-.62,0-1,.17-.14.71-.1,1.01,0l2,.93-.02,76.35c3.41.75,7.07.97,10.96.64l.28-76.11,2-1.19Z"/>
  <path class="cls-28" d="M464.18,30.85c.59-.01,1,.58.82,1.17.32.28,1.02.58,1.01,1.7l61.46-.13.21,15.95h31.71c-.19,4.59.01,9.08.62,13.47l-.02,1.42-.7,2c-41.47,0-82.96,0-124.45,0l-1.22-2c-.13,5.45-.67,10.71-1.64,15.79.59,2.91-12.18,2.54-12.96,2.19-.74-.33-1.1-1.2-1.41-1.98-.63,5.41-1.18,10.71-1.65,15.9-7.3,3.04-18.12,2.8-26.28,2.01-.8-.08-1.58-.4-2.35-.77s-1.57-.91-2.3-1.47c-.42,5.29-.76,10.6-1.03,15.92-.29.66-.63.65-1,0-4.34-.6-8.81-.78-13.41-.53.24-4.94-.07-9.7-.95-14.28-.96.34-1.26,0-.92-.97-9.84-.73-19.86-.98-30.06-.75.03-4.96-.19-9.79-.67-14.47-.27.89-.64.9-1.1.06-.9-.13-.91-.45-.09-.95-20.36-.56-41.04-.88-62.04-.97l-.42,1.06c.85.38.74.67-.23.87-.38.85-.74.81-1.1-.08-.64,4.7-.82,9.5-.53,14.4-5.18-.09-9.89.16-14.13.78,1.45,1.48.82,2.11-.99.98-1.25,4.58-1.39,9.47-.4,14.67l-14.29-.37c.01-4.96-.21-9.78-.68-14.47-.3.87-.64.86-1.04,0-.86-.33-.83-.66.05-1-4.7-.61-9.51-.76-14.42-.43.03-5-.17-9.86-.59-14.58-.26.89-.63.9-1.11.07-.9-.13-.9-.45-.09-.95-21.07-.92-42.23-1.12-63.5-.6,2.19.32,3.09.83.8,1.61l-1.11-.14c-.6,4.65-.77,9.44-.49,14.37-1.36.61-28.52.79-29.87.17-.63-.29-.51-13.34-.12-13.91,4.36.29,8.54.04,12.54-.77.45-.31,1.54-.1,1.94-.86.44.06.95-.32.94-1l-.08-14.37,16.35-.7c.83-4.76.69-9.4-.43-13.91-.04-.57.19-1.51.24-1.77l15.59.53-.15-16.19,29.33.09c.79,0,1.73.53,2.12-.26.28-.56.27-1.16.32-1.53l1.81,2.08c3.88.89,8.1.89,11.95-.17l2.19-.15c2.44,1.86,2.63,1.64.54-.65-.1-.38.09-.97.42-1.09.29-4.69.59-9.15.9-13.37l173.01.34c-.35-1.03.61-1.09.93-.85l.52,31.52,32.11.2-.15-16.13,28.74.05c.78,0,1.56.37,2.05-.05.57-.49.84-1.1.91-1.74Z"/>
  <path class="cls-75" d="M436.01,2h-14s0-1,0-1l12.07-.06c1.07,0,1.82.39,1.92,1.05Z"/>
  <path class="cls-25" d="M68.02,208.02c4.32.01,8.76-.72,13.64.68.23,15.92.01,31.69-.64,47.31.61,4.63.78,9.48.53,14.56.33-1.06.62-.59.86.94,4.21-.27,8.39-.19,12.55.26,1.26-1.41,1.8.92,1.08,2.25-.25.4-.53.76-.88,1.02-.61.45-14.49.65-14.14-2.02h-1s0-63.94,0-63.94l-14.04-.06c-.85,0-.98-.64-.98-1h3.01Z"/>
  <path class="cls-24" d="M144.01,432c.29-.87.62-.86,1,0,.36-2.27,1.05-2.74,1.45-.5,10.02-.26,19.9-.1,29.63.48,1.29-1.48,1.89-.88.96.92.25,4.82.66,9.69,1.21,14.61l76.47-.03c-1.28-.35-.89-.64.76-.9-.24-4.68-.08-9.32.47-13.94.31-.7.66-.73,1.04-.09l2,1.09.29,12.31,60.38.29,1.2,2.01c.68,0,.7.26.15.76-4.95.88-11.12.83-16.01-.01-.11,1.43-.46,1.74-1.12.66-2.41-.5-3.96-.05-4.67,1.34-1.85-.86-3.81-1.33-5.89-1.43-.61,1.86-1.2,1.87-1.77.02-2.31.42-3.49.23-3.55-.58-4.34.91-10.25.84-15,.05l-.84,2.01c-4.49-.16-8.88,0-13.19.5l.03,12.03-2,1.41c.29,4.96.71,9.79,1.27,14.51h92.45c-1.28-.36-.89-.64.73-.87l.23-14.9c10.75.11,21.35-.18,31.79-.88l.21-15.12c10.75.11,21.35-.19,31.79-.88l.21-15.14c5.47.17,10.69-.19,15.66-1.05l.66,1.33v1s-.87,2-.87,2h-12.13s0,10.99,0,10.99h11.61s1.38,2.01,1.38,2.01v.99c-.35,2.24-1.01,2.74-1.39.54h-12.22c1.11.34.65.63-.89.88l-.18,15.11h-30.83c-1.1,2.72-1.43,6.74-.99,12.07l-.51,1.4c.35,1.51-.26,1.65-1.05.32l-2-1.11-.09-11.22h-26.72s-.13,12.64-.13,12.64l-2,1.37h-1s-96.01-.05-96.01-.05v-31.95s-78.98-.01-78.98-.01v31.02s-1.02,0-1.02,0c-2.27-.36-2.74-1.05-.49-1.44.76-1.19.6-26.84,0-28.11-.01-.03-.18.22-.39.55-.06-.66-.19-1.23-.55-1.5-1.12-.85-26.8-.57-28.08,0-.03.01.22.17.56.37-.64.05-1.2.17-1.49.52-.43.51-.3,11.8.8,12.98l-1.33.64c.88.28.87.61,0,1-.68-.11-1.06-.86-1.06-1.93v-14.06s-31.37-.07-31.37-.07c-5.04-.01-10.76.8-15.49-.66l.91-2.01,43.96-.27v-10.98s-28.52-.17-28.52-.17l-1.44-2.01c.09-.7.27-1.03,1-.84.09-.78.32-1.92.89-2,5.58-.74,23.04-.71,28.66,0l1.44,2Z"/>
  <path class="cls-28" d="M624.51,192.97l-.33,2.04c-.71,9.94-.9,20.05-.54,30.31l15.9.35c-.25,9.88-.09,19.66.48,29.34v1c-1.01.41-1.64,1.08-1.88,2.01-35.88.23-71.76.46-107.63.69l-1.24-1.99c0,5.39-.43,10.58-1.3,15.58l-.67,2c-14.83.04-29.66.08-44.49.11l-1.19-2c-.13,5.45-.67,10.72-1.62,15.8l-1.07,2.02-12.42.21.12,12.13-1.99,1.4c.11,1.76-.43,1.77-1.63.02-15.03-.65-30.15-.81-45.35-.47l-.12-13.92c9.24.17,18.41-.07,27.52-.71-.99-2.78,2.22-3.52,3.62-1.02.89-4.61,1.18-9.4.88-14.38,4.18.27,8.33.16,12.44-.32-.21-.56.44-.99,1.94-1.3-.03-.9.21-.89.7-.07,1.25-2.45,1.07-9.73.59-14.68-1.44,1.75-2.17,1.3-1.42-.85-3.86-.98-9.04-1.22-15.53-.73,2.17.39,3.12.7.84,1.56-.42.83-.79.78-1.11-.13-.65,4.67-.83,9.45-.54,14.33l-29.93.17-.17.69c1.31,1.57.73,2.14-1,.98-.94,4.49-1.23,9.21-.87,14.17-1.38.56-28.49.76-29.85.14-.63-.29-.52-13.28-.13-13.85,4.29.2,8.48-.05,12.57-.75-.58-2.96.75-3.25,2.59-.96.91-4.51,1.19-9.28.84-14.29,4.29.2,8.48-.05,12.57-.75-.58-2.96.75-3.25,2.59-.96.91-4.51,1.19-9.27.85-14.28,4.29.2,8.47-.08,12.55-.83.72-4.85.97-9.79.77-14.82l2.02-1.36,1.11-2,12.52-.05.24-12.2,2.02-1.35c20.96-.88,42.17-1.35,63.61-1.41-2.82-.17-2.23-10.7-1.63-12.62.35-1.12.73-1.75,2.06-1.96,36.5-.92,75.17-.86,111.73-.05Z"/>
  <path class="cls-12" d="M688.34,240.47v15.49s-15.35.07-15.35.07c-5.34.62-10.93.82-16.74.59l-.29,79.3h-14.96s.02-79.92.02-79.92l.08-30.92,14.57.25.36,15.67,32.32-.53Z"/>
  <path class="cls-33" d="M624.06,177c.67,5.1.64,10.26-.1,15.49-37.13.28-74.11.12-110.95-.49-1.33-1.69-.87-2.82,1.22-3h105.99c.82-2.49,1.07-5.51.73-9.06-4.1.32-8.19.22-12.26-.31l-.99-2.32,1.32-.32h15.04Z"/>
  <path class="cls-25" d="M624.51,192.97l-111.73.05c-.79-.48-.7-.82.23-1.02h110.92s.13-15,.13-15c.83,0,1.06.91,1.02,1.88l-.58,14.09Z"/>
  <path class="cls-24" d="M640.01,255c-.4.06-.99-.36-.99-1.05l.02-27.66-15.82-.62-.24-29.64c0-.79.83-1.21,1.2-1.02l-.19,29.96,16.03.06v29.97Z"/>
  <path class="cls-67" d="M159.86,496.12l.02.76c-.53,4.77-.67,9.61-.41,14.52-5.21-.17-10.37.03-15.5.59-.42,5.24-.71,10.42-.87,15.52h-45.39s.13-46.07.13-46.07c.27,1.89,0,1.74-.83-.44v-1s47.48.5,47.48.5l.27,15.78,15.11-.15Z"/>
  <path class="cls-43" d="M161,480.04c-.43,0-1-.21-1.02-.99l-.29-13.76-14.67-.29v-1c.59-4.75.77-9.55.53-14.4,1.38-.57,28.78-1.16,29.84-.11s.72,28.51.13,29.88c-4.91-.12-9.75.1-14.52.66Z"/>
  <path class="cls-68" d="M176.01,511.01c-4.56,1.66-9.75,1.17-14.98.33l.02-30.36,14.94.05.02,29.98Z"/>
  <path class="cls-20" d="M176.01,480l-15.01.04.23-15.06c.21,0,.58.1.77.52l.02,13.48,13-.02v-28.97s-28.97,0-28.97,0l-.02,12.99,12.48.03c.4.19.54.54.54.8l-14.04.2.03-15.01h30.97s0,31.01,0,31.01Z"/>
  <path class="cls-24" d="M110.06,464.85c-.64.48-1.42,1.3-2.95,1.29l-9.06-.07.02,11.02c0,1.06-.39,1.81-1.06,1.92l.03-14.01,13.02-.14Z"/>
  <path class="cls-24" d="M160,495c-1.63-2.37-1.55-10.37-.22-12.95l.22,12.95Z"/>
  <path class="cls-61" d="M172.06,96.39c17.52.15,34.98.11,52.37-.12l.44,1.6c.76.11,1.76.28,1.98.91.51,1.4.54,13.09-2.23,13.16.73,2.44.02,2.55-1.79.82l-1.05,2.02-11.08.27.5,18.37-1.96,1.47c.09,3.21.34,6.29.76,9.26-.94.48-1.83.69-2.65.62l-1.08,2.02-11.36.2.05,26.66-2,1.45c1.02.22.45,1.4-1.71,3.54l-28.47.34.05,10.23-1.91,1.79c-.25,1.06-1.25,2.06-2.86,2.05l-29.17-.35-.63-15.81-14.93-.46c-1.07-.33-1.29-3.24-1.29-4.37l-.04-28.06,16.27-.57.28-30.91c11.18-.88,30.09.91,31.41-1.04.36-.53.66-1.63.58-2.4-.39-3.85-.18-7.67.31-12.13,4.06-.75,7.67-.62,11.19-.57Z"/>
  <path class="cls-33" d="M432.01,449v62.93s-13.08.02-13.08.02c-1.07,0-1.81.38-1.93,1.05h-.99s-.32-1.31-.32-1.31l.99-2.32,12.33-.6v-56.08c-2.57-.73-5.59-.95-9.06-.64.3,4.11.2,8.21-.29,12.3l-2.32,1.19-.32-16.52,14.99-.02Z"/>
  <path class="cls-77" d="M385.32,481.31l-.98,2.32-12.32.52v24.69s12.32.52,12.32.52l.99,2.32-.32,1.31h-1c-.1-.66-.85-1.06-1.93-1.05l-13.08.05c-.59-5.19-.76-10.46-.51-15.82-1.94-.45-1.94-.9,0-1.34l.14-14.08c.59-.54,13.95-.69,16.06-.62.22,0,.43.52.63,1.18Z"/>
  <polygon class="cls-33" points="415.69 511.69 416.01 513 415.98 528.01 385.04 528.01 385.01 513 385.33 511.69 387.65 512.68 388.16 525 412.86 525 413.38 512.67 415.69 511.69"/>
  <path class="cls-28" d="M656.01,401.01v1c-.84,14.76-.86,30.31,0,45l-.15,1.12c.3,2.79-11.83,2.71-12.83,2.27-.73-.33-1.1-1.2-1.41-1.97-.63,5.4-1.18,10.68-1.63,15.86-.08.78-.33,1.96-.88,2.01-3.23.25-26.96,1.1-27.99.16.01-1.66-.72-2.03-2.12-1.99l.84.91-.34,45.45c1.28.44,1.01.83-.49,1.18h-1s-2-.93-2-.93c0-14.95,0-29.91.01-44.88l2-1.2.03-1c-4.7-.59-9.52-.76-14.45-.52l-.08-13.87c4.28.2,8.46-.08,12.53-.81-1.13-2.56.33-2.96,1.96-.78.05-2,.82-1.96,1.38.03l.13-14.38c4.29.15,8.47-.12,12.57-.8-.58-2.96.75-3.25,2.59-.96,1.36-9.54.95-20.22.27-29.83-.88-.26-.87-.58-.02-.97.09-.78.34-1.96.89-2,3.22-.26,27.4-.6,28.74-.09.76.29,1.14,1.21,1.45,2Z"/>
  <path class="cls-67" d="M655.86,448.12l.04.77c-.49,10.13-.64,20.32-.44,30.59l-15.99.19v31.72s-29.76.12-29.76.12c.04-15.73-.2-31.41-.72-47.05l31-.18c.07-.92.41-1,1.02-.27,1-4.9.87-10.45.61-15.58l14.24-.3Z"/>
  <polygon class="cls-17" points="608.02 465 608.01 512 592.37 512.34 592.76 465.33 608.02 465"/>
  <polygon class="cls-17" points="640 527.99 609.04 528.02 609.04 512.99 639.95 512.99 640 527.99"/>
  <path class="cls-33" d="M639.48,479.67c1.78-.27,2.12.35.54,1.33v31s-31.01,0-31.01,0v-47.55s1.63.43,1.63.43c.49-.04-.56,1.55-.56,2.24l-.08,43.89h28.98s.51-31.33.51-31.33Z"/>
  <path class="cls-33" d="M640.01,481l-.54-1.33c5.23-1.44,10.15-.36,15.53-.67l-.02-28.07c0-1.02.38-1.75.92-2.04l.12,31.07-13.05.07c-1.26,0-2.27.52-2.97.98Z"/>
  <path class="cls-24" d="M656.01,447c-.38.06-1-.35-1-1.07v-42.86c0-.72.61-1.13,1-1.07v45Z"/>
  <path class="cls-67" d="M559.99,64.42c.21.11.45.4.62.58l2.02,1.39.13,11.82,11.87-.28,1.46,1.96.29.94c4.14.65,9.18.9,15.12.74-.06,5.36,0,10.61.2,15.75,5.67-.05,10.94.22,15.82.8.75,1.25.64,27.94.01,29.26-.3.63-13.45.47-14.02.06.22-5.18.05-10.33-.5-15.44-5.13-.55-10.29-.72-15.49-.52.2-5.19.02-10.35-.52-15.48l-31.43-.52-.26-15.84c-5.78-.35-11.55-.23-17.3.36-.55,5.1-.72,10.23-.5,15.39-4.66.12-9.33.14-14,.06.21-5.18.04-10.33-.5-15.44h-32.99c-.53,5.08-.7,10.2-.5,15.34l-47.51.66c-.53,5.13-.7,10.29-.51,15.49-5.2-.2-10.36-.03-15.49.51-.54,5.1-.7,10.23-.48,15.4l-29.91.1c.14-10.3-.07-20.47-.62-30.5-.63-.24-.6-.55.03-.92,10.22.69,20.71.31,30.94.23.09-1,.43-1.11,1.03-.3.87-5.15,1.07-10.34.62-15.6l14.36-.21c.19-.94.52-1,1.01-.19.87-5.15,1.08-10.35.62-15.6h126.37Z"/>
  <polygon class="cls-12" points="560.44 47.69 529.04 48.06 529.06 32.75 559.99 33 560.44 47.69"/>
  <polygon class="cls-8" points="576.05 63.89 561.02 64 561.06 48.58 576 48.99 576.05 63.89"/>
  <polygon class="cls-68" points="608.6 95.53 593.02 95.99 593.04 80.77 608.01 80.98 608.6 95.53"/>
  <path class="cls-28" d="M575.75,79.01c.2.14.32.57.33.87l-15.31.37-.17-15.26h1.4c4.39.63,8.89.83,13.5.58-.26,4.51-.18,8.98.24,13.43Z"/>
  <path class="cls-24" d="M527.68,49.53c-1.46-5.2-.34-10.19-.7-15.47l-60.97-.35,61.95-.72-.28,16.54Z"/>
  <path class="cls-33" d="M593.01,128v-16c1.83,4.58.67,9.66,1,14.94h13.02s-.02-28.95-.02-28.95c-5.32-.34-10.41.83-15.31-.69-.4-1.88.32-2.03,1.32-.32l15.01.03v30.94s-15.01.03-15.01.03Z"/>
  <path class="cls-24" d="M560.01,63c-.67-.11-1.06-.85-1.06-1.93l-.02-11.02-31.25-.52,32.29-.54.04,14.01Z"/>
  <path class="cls-33" d="M576.38,80.82l15.6.17.05,13.03c0,1.26.53,2.27.98,2.98l-1.32.32c-1.51-4.89-.36-10-.68-15.28l-17.06-.08c.26-1.48,1.59-1.46,2.42-1.13Z"/>
  <path class="cls-24" d="M575.75,79.01c-1.6-3.89-.45-8.36-.72-12.94l-11.1-.02c-1.06,0-1.81-.39-1.92-1.06l13.98.02-.24,13.99Z"/>
  <path class="cls-28" d="M223.5,177.34c4.83.73,9.63.71,14.4-.05-.53-.95.13-1,1.17-.6.82,5.26,1.13,10.7.94,16.31,9.43.44,18.77.44,28,0,.3-.65.64-.64,1,0,1.35-.04,2.08.35,2.21,1.17l.78,14.83c4.63.65,9.37.95,14,0-.08-.86,1.59-.69,2.11.04.77.09,1.92.29,2.01.85.63,3.96,1.36,15.48-2.93,16.38-.98.46-13.63.98-13.58-1.86-.63,5.38-1.18,10.64-1.63,15.79l-1.07,2.01c-3.1.52-12.03,1.06-13.2-1.83l-1.49,31.87-15.21.74c-.3,5.13-.63,10.12-.99,15l-79.27.42-.22-15.81-1.74-.66-.21-13.26-13.61-.47c.23-1.71-.92-2.21-2.36-2.83l-.1-28.81-27.26-.16c-2.42-.3-3.69-1.1-2.43-3.45l-.06-14.52-15.9.17.14-31.65c.29.1.7.02,1,.01,4.13.89,8.13.79,11.99-.29l1.4-.05.25,16.6c4.84.66,9.63.51,14.35-.46l1.4-.06c.08,5.69.36,11.25.82,16.69l27.73-.08c1.72-.03,3.55-.58,5.06-1.32.64-4.7.82-9.51.53-14.42l26.47-.31c1.32-.04,3.18,0,4.32-1.3l-1.98-1.14c-.19-1.57-.14-12.49.28-13,.71-.86,2-1.69,3.08-1.89,4.91.86,9.69.87,14.34.03.22-.88.54-.85.95.01.59-10.01.75-20.14.49-30.4l13.84-.07.15,31.8Z"/>
  <path class="cls-45" d="M208.07,176.01c.02.91-1.09,1.11-1.89,1.05-4.73,0-8.62-.02-13.5-.52l-.33,15.47-25.38.04c-2.35,0-4.39-.13-6.05-1.04-.21-4.46-.73-8.97.12-14.14l29.86-.16c1.12,0,1.85-1,2.06-1.59,1.41-1.48,3.53-1.84,6.34-1.08,4.18-.75,7.11-.09,8.76,1.98Z"/>
  <polygon class="cls-45" points="160 207.99 129.04 208.02 129.06 193.82 159.98 194 160 207.99"/>
  <polygon class="cls-33" points="112.06 143.86 97 143.97 97 113.03 112.02 113.02 112.06 143.86"/>
  <path class="cls-24" d="M188.03,193.31l-25.96.76v12.02c0,1.12-.47,1.67-1.05,1.95l.02-15.04,26.99.31Z"/>
  <path class="cls-24" d="M155.96,209.36l-28.62.53.07-17.14c1.4,5.13.25,10.44.62,16.26l27.94.36Z"/>
  <path class="cls-19" d="M111.66,193.26c-1.45-5.44-.31-11.22-.25-16.6,1.38,5.33.28,10.89.25,16.6Z"/>
  <path class="cls-24" d="M126.01,192.8c-.85,1.95-9.21,1.7-14.35.46l14.35-.46Z"/>
  <path class="cls-24" d="M110.01,176.71c-.66,1.98-8.2,1.93-11.99.29,4-.05,8.01-.15,11.99-.29Z"/>
  <path class="cls-50" d="M735.99,316.35c0,2.74-1.76,3.75-3.87,3.79l-11,.18v-47.79s14.91.5,14.91.5l-.04,43.33Z"/>
  <polygon class="cls-3" points="719.91 335.63 705.34 335.76 705.03 321.02 720.23 321.08 719.91 335.63"/>
  <path class="cls-24" d="M704.39,319.5l14.63-.52v-44.96s-27.96-.03-27.96-.03c-.69,0-1.11-.58-1.06-.98h30.03s0,46.95,0,46.95l-15.63-.46Z"/>
  <path class="cls-24" d="M688.36,337.16l-.33,14.82h-15.01s0-15.05,0-15.05c.74-.01,1.08.84,1.08,1.96l-.06,12.09h12.95s-.11-11.12-.11-11.12c-.02-1.56.43-2.35,1.49-2.7Z"/>
  <path class="cls-24" d="M689.36,336.18c-.42-.07-1.2-.3-1.36-1.14l14.97-.05-.02-12.06c0-.98.57-1.63,1.05-1.95l-.02,15.04-14.63.18Z"/>
  <path class="cls-67" d="M688.03,272.27c.15.29.45.64.67.15l-.41,47.34c-5.08-.49-10.23-.77-15.28.24.79.47.7.8-.22,1l-.25,14.8c-5.4-.17-10.41-.49-15.04-.95l-.37-77.46c5.15.22,10.11.09,14.88-.4.63-.44,1.62-.06,2.97,1.13l-.15,12.17,11.79-.02,1.41,2Z"/>
  <path class="cls-14" d="M673,256.03c.31.26.87.71,1.02,1.27,4.43.4,8.88.47,13.36.21-.18,4.64.05,9.15.71,13.55l-.06,1.21-15.23.03.19-15.07c-.36-.25-.8-.24-.98-.24-.06,1.18-1.37,1.31-3.95.41l-9.79-.02c-.55,2.06-1.25,1.26-2.01-.77l16.74-.59Z"/>
  <path class="cls-24" d="M688.09,271.06c-.72-.1-1.15-.83-1.15-1.97v-11.1c-4.64-.31-8.95.91-12.92-.69l13.97-.27.11,14.03Z"/>
  <path class="cls-45" d="M79.95,369.1c.15-.79.4-.74.75.04l.71,1.36c-.37,5.59-.05,9.92.98,13.02,4.82-.31,9.34-.04,13.59.8.87.11.87.24,0,.38.42,5.34.77,10.91,1.03,16.69-5.24-1.27-10.68-1.5-16.33-.71-1.51,4.95-.34,9.98-.69,15.36l-14.95-.03-.33-46.68,15.23-.23Z"/>
  <path class="cls-59" d="M96.08,416.15l-15.51.2c.75-5.72.4-10.47.12-15.68l16.07-.24c.61.28,1.16.6,1.5,1.08.67.92.89,14.18-2.18,14.64Z"/>
  <path class="cls-35" d="M144.03,416c1.53-1.6,2.16-1,.98.98.62,4.26.79,8.8.52,13.63,1.23.66.99,1.11-.52,1.39h-1s-2-.86-2-.86l-.03-12.14h-26.83s-.14,11.62-.14,11.62l-2,1.38-1,.84-2-1.13v-12.7s-11,.14-11,.14l.08,27.67-2,1.46c-.24-.11-.65-.33-1.09-.12l.07-32.02,1.11-2.01,12.8-.21v-11.82s1.99-1.41,1.99-1.41c.39-.77.79-.76,1.22,0,.47,4.6.58,9.23.32,13.91l.97.88c9.99-.23,19.84-.06,29.54.52Z"/>
  <polygon class="cls-17" points="143.81 543.84 97.03 544.05 96.5 529.13 144.18 529.03 143.81 543.84"/>
  <path class="cls-33" d="M143.97,511.99c.88.25.88.59.04,1.01l-.05,15.01h-46.96s0-47.01,0-47.01l1.63-.12c.49-.04-.56,1.54-.57,2.23l-.08,43.89h44.96s.03-13.08.03-13.08c-.13-1.04.39-1.86.99-1.94Z"/>
  <path class="cls-33" d="M145.09,512.76c-.21.14-.68.36-1.07.24l-.04-1.01c.11-.75.79-1.08,1.93-1.07l13.08.07v-12.07c0-1,.36-1.72.89-2.02l.07,15.12c-5.2.36-10.46-.93-14.87.75Z"/>
  <path class="cls-67" d="M416,400.24c.1-.92.43-.98,1-.22.87-5.15,1.08-10.35.62-15.6.07-2.83,9.39-2.71,11.53-2.24,1.11-.31,2.01.34,2.71,1.94l.07.78c-.54,15.33-.67,30.73-.4,46.21l-15.83.61-.21,15.59c-10.57.25-21.16.35-31.79.31l-.21,15.7c-10.57.25-21.16.35-31.78.3l-.25,15.72-93.77.17c.15-4.94-.07-9.78-.66-14.51l-.04-15.81,16.03-.13c5.06.35,10.06.66,14.99.94.51,4.6.84,9.4.99,14.39,0-.77.2-1.52.84-2.01.54-.41,13,.02,13.44.54.31.36.5.83.65,1.33.11-4.76.42-9.51.92-14.25,4.39-.89,10.57-.81,15.18,0,.28,4.68.6,9.48.95,14.4-.31-2.89,10.5-2.4,12.3-1.88.57.17,2.45,1.59,2.68,2.03l.2-12.17c-.28-2.11,0-3.24.85-3.39-.69-.29-.67-.63,0-1,.89-10.12.82-20.98,0-31.04-.25.83-.58,1.17-1,1.01-.73,1.47-2.42,1.66-5.07.57-9.03.35-17.99.11-26.87-.71.4-10.99.64-22.01.7-33.06l16.2-.83,1.52-1.99,77.7.63,1.35.66c1.17,4.73,1.57,9.73,1.2,15h11.86s1.41,2.01,1.41,2.01Z"/>
  <path class="cls-67" d="M527.86,448.12l.02.76c-.52,4.78-.66,9.63-.4,14.55-4.76-.04-9.5.18-14.23.67l-1.17,1.79-.64,29.58-15.75.22c-.07,5.18-.25,10.46-.55,15.82h-45.53s-.09-76.39-.09-76.39c.5-.92.33-1.62-.52-2.12v-1s1.2-1.99,1.2-1.99c15.91-.23,31.69.19,47.33,1.25,1.16,4.76,1.56,9.78,1.2,15.06l27.65-.19,1.47,1.99Z"/>
  <path class="cls-28" d="M512.01,385v1c-.63,5-.72,10.11-.25,15.31l15.59.22c-.07,15.2.15,30.36.66,45.47l-.14,1.12-31.08.29-.29-15.92-47.49-.49v-1c.87-9.46.84-19.53,0-29v-1c.24-1.91.85-2.75,1.44-1.02,10.14-.44,20.12-.25,29.94.55,0-1.17-.57-1.73-1.96-1.73-.54-.51-.43-13.95,2.35-13.79,9.8-.86,21.2-.83,31.23-.02Z"/>
  <path class="cls-28" d="M415.93,336.25c0,.88-.56,1.26-1.71,1.14-6.07-.22-10.29.11-12.67,1-.42,4.61-.22,8.94.6,12.99l-1.35.62c4.35.67,8.85.9,13.51.7.5-1.44,1.53-1.83,2.34-.66-.49,5.42-.38,10.76.32,16.02l13.4-.06.64,1c.32,4.53.66,9.19,1,14l-.15,1.12-14.23.3c-.64,5.38-1.18,10.66-1.62,15.82l-15.24.06-.28-15.84-79.53-.53c-.88-.21-.86-.52,0-.94.64-4.3.83-8.74.58-13.32l27.4-.35c-.45-2.92,2.56-3.76,4.08-1.29.49-4.87.79-9.7.91-14.48h43.99c-.34-9.71-.51-14.56-.51-14.56h-43.47s-1.18-2.01-1.18-2.01c-.79-.41-.75-.74.12-.97,14.91-.6,30.22-.77,45.91-.51-1.31-.35-.95-.64.67-.89.43-4.75.17-9.08-.78-12.98l1.34-.64c2.3.18,3.3,1.97,3.01,5.38v7.63s11.57.22,11.57.22l1.34,2.03Z"/>
  <path class="cls-45" d="M432.01,448.01h-14.99s0-15,0-15h14.99c.38.05,1-.35,1-1.1v-62.85s15,.04,15,.04v143.26c-4.83-.63-9.12-.45-14.89.06l-.14-63.32c0-.76-.58-1.14-.97-1.09Z"/>
  <polygon class="cls-50" points="496.06 528 449.03 528.02 448.93 513 496.27 513.04 496.06 528"/>
  <path class="cls-41" d="M465.01,368c-.23.79-.58.89-1.08.25l-14.91-.26-.02-14.99c-.87-.29-.85-.63.01-1,1.87-.49,15.52-.74,16.1-.16s.27,14.09-.1,16.16Z"/>
  <path class="cls-33" d="M495.7,495.69l1.32.32v1c-.67.11-1.06.86-1.06,1.93v13.09s-46.96,0-46.96,0v-79s1.64-.12,1.64-.12c.51-.04-.59,1.52-.59,2.28l-.05,75.85h45c.36-5.32-.83-10.43.7-15.32Z"/>
  <path class="cls-76" d="M465.03,369c1.14,1.38,1.12,2.57-.59,2.92l-12.42.11-.02,24.82,27.28.24c.71.95,1.07,2.11,1.1,3.45l-31.39.46.03-31.99c5.24-.38,10.5.93,14.9-.76.21-.14.68-.36,1.08-.25.55.29.54.63.02,1Z"/>
  <path class="cls-76" d="M449.02,352v1c-.68.11-1.06.86-1.06,1.93l-.02,13.07c-5.5.38-11.11-.92-15.85.75-.07,1.28-.35,1.37-1.08.26l-13.06.02c-.73,0-.98-.52-.97-.95-.6-4.47-.77-9.04-.52-13.71-2.48-2.22,1.09-3.91,3.47-.88l.26,11.54h24.64s.26-12.41.26-12.41c.36-1.71,1.55-1.77,2.92-.61.32-.42.65-.4,1,.02Z"/>
  <path class="cls-33" d="M432.02,432h-15.99s-.05,16-.05,16h-31.94s-.06,16-.06,16h-31.94s-.09,16.01-.09,16.01h-94.87s-.06-15.01-.06-15.01c.66.11,1.05.86,1.05,1.92l.04,12.08h92.86s.4-15.8.4-15.8l31.63-.23.37-15.77,31.63-.23.38-15.63,15.67-.64-.06-43.75c0-1.05.39-1.77.95-2.06l.1,47.11Z"/>
  <path class="cls-24" d="M449.01,431v-29c.67.11,1.05.86,1.05,1.94v25.12c0,1.09-.38,1.83-1.05,1.94Z"/>
  <path class="cls-18" d="M432.01,383c-.66-.11-1.05-.86-1.05-1.93l.05-12.07c.38.12.88-.07,1.08-.26l-.08,14.25Z"/>
  <path class="cls-67" d="M575.86,400.12l.08.78c-.55,20.74-.69,41.56-.41,62.46-5.26-.16-10.43.05-15.52.63-.32,5.53-.71,10.71-1.15,15.53-1.29.68-27.91.63-29.23,0-.63-.3-.51-13.31-.08-13.86,5.2.06,10.36-.15,15.48-.66.72-15.66.97-32.3-.21-47.97-.98-.16-1-.51-.12-1.05.79-1.56,1.72-2.22,2.79-1.96,2.87-.46,11.57-.67,12.52,2.2.11-.91.44-.97,1-.2.87-5.15,1.08-10.35.62-15.6.07-2.83,9.39-2.71,11.53-2.24,1.11-.31,2.01.34,2.71,1.94Z"/>
  <path class="cls-45" d="M592.01,385c-.07,16.1.26,32.1,1,48.01l14.77.14c1.16,3.98,1.31,10.65.23,14.87l-1.96.78c-3.73.79-7.62,1.03-11.68.71-.64,1.21-1.08.96-1.36-.53-.41-.03-.96.37-.98,1.05l-.36,14.47-14.65-1.09-.03-78.35,15.02-.07Z"/>
  <path class="cls-28" d="M561.8,385.22c4.49.45,9.02.55,13.57.29-.14,4.59.07,9.09.63,13.5l-.15,1.12-14.23.3c-.64,5.38-1.18,10.64-1.62,15.8l-15.31-.24c-.76-.65-.62-.99.4-1.01.55-4.36.94-9.79-.43-13.81-.15.88-.39.83-.72-.05l.08-1.12c-4.67-.61-9.48-.78-14.42-.51.16-4.61-.04-9.11-.6-13.48v-1c10.2-.32,20.54-.65,31.01-1-1.51-.13-1.75-.48-.53-1.09-.24-4.77-.1-9.49.42-14.15l1.09.26c-.06,5.18-.87,10.82.8,16.19Z"/>
  <polygon class="cls-8" points="576.09 479.99 561.34 480.42 561.02 465.01 576.37 465.03 576.09 479.99"/>
  <path class="cls-33" d="M640.01,257v78.93s-15,.04-15,.04v-31.95s-17,0-17,0v31.95s-16,.04-16,.04v16.98s16.98,0,16.98,0l.03-15.99,15,.03v46.92s-16.02.08-16.02.08v47.92s-14.95.03-14.95.03c-.8-15.38-1.15-31.04-1.04-46.99-4.73-1.74-9.6-.71-14.99-1l-.36-15.66-15.64-.34c-.3.8-.64.78-1-.02-.54-.84-.85-1.91-.2-2.51,1.23-1.14,16.37-.41,18.92.64,1.15,4.68,1.57,9.62,1.24,14.82,5.08-.13,10.04.26,14.88,1.15l1.03,2.18.15,44.09c2.65.79,5.64.92,8.97.39-.34-15.6-.04-31.08.92-46.43,4.74-1.19,9.74-1.62,15.02-1.28.25-13.72.19-27.38-.2-40.98l-8.1-.02c-.51,4.71-1.08,9.59-1.7,14.66-2.62,1.4-18.97,1.65-20.58.29-1.92-1.61-1.17-17.68-.3-20.69,4.68-1.24,9.64-1.74,14.87-1.5-.15-10.26.18-20.41,1.02-30.44,6.14-1.85,14.37-1.28,20.79-.33l1.07,2.15.39,28.89,8.82-.09-.03-73.1c-1.03-3.01.56-4.38,3.04-2.86Z"/>
  <path class="cls-33" d="M561.01,464c-.31.58-.64.56-1-.02.11-.65.86-1.03,1.92-1.04h13.09s-.04-59.97-.04-59.97c0-1.09.38-1.79.96-2.08l.09,63.05-15.03.06Z"/>
  <path class="cls-33" d="M545.03,465c0,.36-.19,1.01-.99,1.01h-14s.02,13.01.02,13.01h28.93s.03-14.03.03-14.03c0-.81.64-1.01,1.01-1l1,.02c-.64.99-1.04,2.3-1.04,3.92v12.09s-30.93,0-30.93,0l.03-15.02c5.21-.36,10.47.93,14.87-.75.1-1.07.46-1.14,1.09-.25.57.3.55.63,0,1Z"/>
  <path class="cls-13" d="M560.01,367.98l1,.02v1.02c-.67.08-1.07.84-1.06,1.9l.07,13.07c-10.37.49-20.87.73-31.49.7l-.02-15.33c-1.25-.65-1.01-1.09.5-1.37l1.5.25c1.55,3.59,2.1,7.84,1.65,12.76h24.67s.26-12.4.26-12.4c.36-1.71,1.55-1.77,2.92-.61Z"/>
  <path class="cls-24" d="M606.05,448.8c-.59.73-1.43,1.33-2.92,1.32l-9.1-.06v12.92s13.01.02,13.01.02c.8,0,1.03.64,1.02,1l-15.02-.02-.02-15,13.04-.18Z"/>
  <path class="cls-24" d="M576.01,399c-.66-.11-1.05-.86-1.05-1.92l-.02-11.1c-4.52-.31-9.04.95-13.13-.77l14.18-.2.02,13.98Z"/>
  <path class="cls-16" d="M224.2,32.63c.11-.25.28-.46.54-.65l47.85.47.04,16.07,16.03-.12-.06,16.16h-80.18s-.08-16.17-.08-16.17l16.38.24-.52-16Z"/>
  <path class="cls-24" d="M399.07,17.86l-172.98.18c-.54,4.57,1,9.1-.93,12.85l-.06-13.89,173.97.86Z"/>
  <path class="cls-24" d="M222.01,32.79c-1.65,1.99-10.48,1.86-11.95.17l11.95-.17Z"/>
  <path class="cls-51" d="M160.45,289.03c.78.1,1.96.37,1.99.91.21,3.89.02,31.09-1.27,32.14-2,1.62-15.55,1.87-17.08-1.43l-2-.67-.08-28.94-11,.14.18,27.93-1.99,1.48c-1.08,3.15-14.25,3.04-16.29,1.94-1.49-.8-2.2-1.32-2.34-3.16.22-4.19.13-8.31-.27-12.34l-10.89-.02-1.4-2c-.11,1.73-.74,1.8-1.2.04-.4-.15-.68-.48-.86-.81-.81-.51-.76-.93.14-1.26-2.82.23-2.08-12.01-1.54-13.43.25-.64.97-1.1,1.83-1.51.6-.85.78-15.8-1.67-17.11-.6-3.64-1.08-11.53,1.41-13.85-.13-.58.59-1.07.98-.67l.68-2,46.4.11c-.15,1.69.95,2.26,2.41,2.8-.16,4.46-.04,8.85.37,13.17l13.01.02c.71,5.64.96,11.36.77,17.17,1.46.57,1.32,1.03-.28,1.38Z"/>
  <path class="cls-67" d="M96.13,257.07c.84,3.87.04,7.97.44,12.13.73,7.41.17,14.59-.08,22.01l-.4,11.77c-4.44.73-9.27.9-14.48.53.23-4.93.03-9.76-.59-14.5v-1s2.58-1.74,2.58-1.74c3.58.46,7.09.37,10.54-.26l-.09-10.61,1.99-1.39c0-.6-.3-1.9-1.08-2.25-4.39-.43-8.81-.52-13.27-.26-.43-4.98-.32-9.81.33-14.49,4.65-.7,9.46-.37,14.12.07Z"/>
  <path class="cls-28" d="M96.03,274l.12,14.3c-5.5.28-10.32.3-15.15-.3v-1c.83-4.29.78-8.69,0-13v-1s11.07-.03,11.07-.03c1.63,0,2.94.4,3.95,1.03Z"/>
  <path class="cls-33" d="M81.03,337c1.14,1.38,1.12,2.57-.59,2.92l-12.44.26v24.67s7.75.18,7.75.18c2.89-.2,4.32.77,4.3,2.9l-15.05.04v-30.92s12.09,0,12.09,0c1.63,0,2.94-.4,3.92-1.04.49.29.49.62.02,1Z"/>
  <polygon class="cls-24" points="80.05 319.97 65.02 319.99 65.02 305.01 80 305 80.05 319.97"/>
  <path class="cls-33" d="M81.03,337l-.02-1,.02-15,15.64-.34c.69-5.49.37-10.69.15-15.62l1.2-.04c.77.11,1.92.36,1.98.93.54,4.85-.11,11.99-1.07,16.78-4.68,1.16-9.61,1.58-14.81,1.24l-.15,12.09c-.24,1.72-1.42,1.88-2.93.95Z"/>
  <path class="cls-33" d="M96.09,302.97c-.01.36-.12.9-.14,1.26l-14.9-.22-.04-15.01c.57-.44,2.13,0,1.92.42l-.82,1.64-.07,11.93,14.05-.02Z"/>
  <path class="cls-24" d="M81.01,287v-13c1.55,3.14,1.58,10.04,0,13Z"/>
  <path class="cls-12" d="M223.81,80.11l.09.95c.41,5.01.73,10.27.94,15.78-4.09-.07-8.03-.35-11.84-.84.07-.38-.35-1-1.07-1l-41.9.04-9.14.61.21-14.52c.12-.18.63-1.18-.8-1.61,21.27-.53,42.43-.33,63.5.6Z"/>
  <path class="cls-71" d="M240.02,96.01l-.05,1-1.38,1.98c-4.02-.43-7.98-.3-11.9.39l-1.81-1.5c-1.26-.6-2.83-.83-4.84-.86l-47.98-.63,40.95-.39,10.98.1-.08-15.03,1.11-.07c.53,4.38.67,8.98.44,13.81l.77.77c4.7-.31,9.3-.16,13.8.44Z"/>
  <path class="cls-24" d="M142.07,80.84c-.61.51-1.45,1.31-2.96,1.29l-9.09-.08.03,12.98,28.92-.09.04-12.96c0-.73.53-1.03.99-1l.05,15.11-31.02-.08v-15.02c4.73-.07,8.81.25,13.03-.15Z"/>
  <path class="cls-26" d="M385.32,481.31l-16.32-.29v30.97c-.67-.11-1.05-.86-1.05-1.92l.03-14.06-14.97-.04v-14.98c.1-.77.31-1.88.89-1.99,2.7-.52,12.2-.65,13.04,2.17l.92-.67c.04-.78.16-1.92.71-2.06,1.46-.36,13.21-1.27,13.86-1.02.76.28,1.17,1.14,1.52,1.89.13-.39.71-.48,1.05-.32.5.24.6,1.01.31,2.31Z"/>
  <polygon class="cls-50" points="543.6 495.98 513.01 495.95 513.01 465 527.99 465.02 528.03 481 560.21 481.1 559.7 495.69 543.6 495.98"/>
  <path class="cls-33" d="M513.01,465l-1.05,30.96-14.95.05-1.32-.32c4.88-1.52,10.02-.34,15.27-.7l.24-31.64,15.77-.35v-12.09c.01-1.01.37-1.72.9-2.03l.1,15.12c-5.36.3-10.28-.77-14.97.99Z"/>
  <path class="cls-24" d="M161.22,63.92c0-4.68-.08-9.33-.43-13.91,1.98.95,1.75,9.83.43,13.91Z"/>
  <path class="cls-68" d="M543.95,401.11l.72.05c1.44,3.97.97,9.49.43,13.81-.14.2-.37.65-.4,1.01s-.02.7.12,1.05c.5.1.9.2.9.31.23,15.4-.24,31.5-.69,46.66-.4-.12-.88.1-1.09.25l-14.93-.3v-62.89s14.94.06,14.94.06Z"/>
  <path class="cls-50" d="M528,385.4v14.58s-14.98,0-14.98,0v-15.38c-1.51-.14-1.75-.5-.52-1.11l.03-14.84,15.86-.14.14,15.49c1.23.67.99,1.12-.52,1.4Z"/>
  <path class="cls-25" d="M529.01,368l.03,16.01h30.98c0,.33-.13,1.02-1.01,1.02l-30.01-.02-1.01.4v-16.38s-14.98,0-14.98,0v15.58s-1.01.4-1.01.4l-31.23.02c-.79-.48-.7-.82.23-1.02,10.24-.26,20.4-.64,30.48-1.14l.21-15.14c5.74-.35,11.59-.46,17.31.27Z"/>
  <path class="cls-24" d="M528.01,447c-.68-.13-1.04-.85-1.04-1.97l.05-43.01-15.64-.38-.41-13.7c-.03-1.1.37-1.83,1.03-1.94l.02,14.98,16,.06v45.96Z"/>
  <path class="cls-24" d="M544.03,400h-15s-.02-14-.02-14c.43-.04.95.35.96,1.03l.08,11.95,13,.03c.71,0,1.02.54.99.99Z"/>
  <path class="cls-67" d="M96.13,382.97c-4.43.76-9.27.94-14.54.53.26-4.97-.04-9.76-.9-14.36l-.75-.04.1-1.16c.14-.91.43-.87.86.02l1.21-1.96c2.38-.25,14.68.16,15.87,1.33,1.27,1.25.68,12.11.22,14.36l-2.07,1.28Z"/>
  <path class="cls-61" d="M513.02,144l14.42,1.48c1,4.88.94,10.09-.43,14.52h-1c-9.18.58-18.62.74-28.3.49-.56-10.32-.76-20.64-.61-30.98-4.68-.98-9.55-1.36-14.6-1.14-1.43-.61-2.03-29.6-.98-30.75s28.98-.62,30.03.46c.35.36.48.83.47,1.32l1,44.59Z"/>
  <path class="cls-68" d="M527.01,97c.43-.08,1.04.32,1.04,1.06l.6,45.29c-5.55,1.36-10.64.39-15.63.64l-1-44.34.98-.67c0-.76-.13-1.97,1.01-1.97l1.33.08c.64,14.41.96,29.03.94,43.85,3.11.27,6.02.09,8.74-.54v-42.23s1.99-1.17,1.99-1.17Z"/>
  <path class="cls-67" d="M575.7,177.41c5.68.99,11.95.99,17.63,0,1.51-5.13.35-10,.68-15.37h13.01c.33,5.3-.83,10.37.68,15.28,4.91,1.51,9.98.35,15.27.68l-.05,13.01h-108.75c-.83-.01-1.19.62-1.15.99l-.23,1.02-.42,14.58-62.09-.13-1.26.59c.85.46.74.77-.26.95l-.24,15.54-15.65.06-1.11,2.01-13.29.12-1.42-1.99c-.22.1-.97.45-1.45-.54l-.09,15.23-15.8.28-.19,15.67-13.8.05-.2-45.77,47.5-.68c.54-5.07.72-10.17.53-15.3l47.47-.7c.54-5.07.71-10.17.53-15.3l47.47-.7c1.75-4.74.7-9.6,1.01-15.01h44.97c.36,5.4-.82,10.31.7,15.42Z"/>
  <path class="cls-67" d="M320.32,224.48c.09-.78.37-1.97.92-1.99,4.06-.21,31.1-.22,32.42,1s.84,12,.41,14.24l-2.06,1.29c-4.89.28-9.89.61-15,.99.77.5.68.83-.25,1.01l2,.88.05,12.22,27.74-.11,1.47,1.99v1c-.32.47-.65.45-1-.02-.1.78-.36,1.95-.9,1.99-3.07.22-26.4.29-27.69-.22-.75-.3-1.12-1.22-1.42-2.01l-.93,1.99-61.03-.35c-.21,5.07-.63,10.19-1.26,15.36-4.53.98-9.32,1.13-14.36.47l-1.32-2.05c-.58-10.31-.71-20.9-.39-31.76l14.28-.19c.13-.91.47-.96,1.01-.19.87-5.15,1.07-10.35.62-15.6l14.69-.15-.2-15.22c5.74-.73,11.77-.85,18.09-.35.5,4.45.67,8.97.5,13.55l12.25.22,1.36,2.02Z"/>
  <path class="cls-12" d="M416.01,193.01c5.38.32,10.72.65,16,.99l-.06,14.02h-46.9s-1.04-31-1.04-31c-1.23-.1-1.11-.47.38-1.11-.9-.05-.93-.36-.16-.91-.81-4.08-1.06-8.28-.74-12.6-1.21-.65-.96-1.11.52-1.41-4.83-.43-9.69-.7-14.57-.81l-.4-1.01-2-1.08c-.38-4.81-.14-9.51.72-14.1,4.71-1.28,9.69-1.82,14.94-1.65l.3-9.82,2.02-1.33c-2.01-2.22-2.13-3.13-.37-2.74l31.82-.16.03,61.17c.44,1.73.28,2.91-.49,3.54Z"/>
  <path class="cls-12" d="M479.01,96.99c.61,3.51,1.09,29.8-.17,30.7-.27.19-.62.28-1,.33l-11.03.21c-1.58,2.57-2.68,1.2-3.87-1.12l-.64-12.56-11.8.07c-.42,19.96-.32,39.98.31,60.08l27.05.14,1.46,2.01c1.28,4.8.61,9.61.61,15.28l-47-.68-2.01-.91c-.16-20.11-.32-40.24-.48-60.37l1.99-1.22c-5.24-.7-10.56-.82-15.96-.34l.08-16.1c5.19.22,10.34.05,15.46-.5,1.84-4.59.65-9.67,1.02-14.99l45.99-.02Z"/>
  <path class="cls-57" d="M384.4,175.91c.05.28-.18.9-.38,1.11-.97,1.91-.83,4.06.02,5.98l-.03,25-16,.04v28.98c0,1.25-.57,2.31-1,2.99-4.03.87-9.77.81-14,0-.82-.2-1.16-.53-1-.99l.6-14.34-32.28-.19c-2.24-1.41-2.72-13.47-2.03-15.4,1.43-3.96,12.24-3.25,16.35-2.61l1.36,2.03c.61-5.25.79-10.58.55-16.01l15.73-.08c-2.72-3.7-2.76-11.89-.28-15.72.61-.83.94-.73.99.3,4.85.79,10.11.99,14.89-.28-.25-1.03.05-1.18.89-.48,3.52-2.66,11.88-2.62,15.62-.31Z"/>
  <path class="cls-60" d="M463.98,319.97c1.87-.35,2.14.19.81,1.62l-46.55-.05c-.52,4.78-.93,9.6-1.23,14.46-.23.79-.58.88-1.08.25l-14.92-.28c-.3-5.36.77-10.28-1-14.97l-30.95-1.05v-14.64c4.62-.92,9.71-1.25,15.27-.97.43-5.45.49-10.92.2-16.42,10.12.76,20.4.95,30.84.57,1.02-1.11,1.77-1.14,2.2.15-1.9,4.29-1.52,13.26-.03,15.87l46.76.03c.37,5.24.26,10.38-.33,15.43Z"/>
  <path class="cls-61" d="M466.81,128.23c4.97,2.42,11.84-1.51,14.16,2.9.78,0,1.98.18,2,.67.65,11.17.94,26.52.22,37.57.67,3.31.01,5.32-1.97,6.04-.73-.01-2.22.05-1.91,1.43l-30.67-.16c-.77-19.7-.31-38.21-.05-57.27.03-2.49-.77-4.73.73-7.08l15.02.25.43,13.44c.06,1.81,1.3,1.85,2.04,2.21Z"/>
  <path class="cls-45" d="M526.01,161.01c.43-.03,1.06.07,1.36.31.53.42.78,1.49.76,2.54l-.23,12.28-46.66-.72-.25-44.28c0-.73.58-1.61,1.03-2.12,4.04-1.03,10.77-.73,15.23.47-.24,10.06-.14,20.11.31,30.17.5-1.12.82-.69,1.02.84,9.29-.24,18.44-.07,27.45.51Z"/>
  <path class="cls-83" d="M432.44,128.94l.49,62.5c-1.09-.02-2.2.46-3.4,1.43-2.97,1.04-8.15.89-11.46.12-1.27-.21-1.79-1.21-1.56-2.99v-61.5c5.35-.35,10.67-.2,15.93.44Z"/>
  <path class="cls-17" d="M463.95,271.89c-.3.83-1.27.98-1.94,1.3-3.85.49-7.74.6-11.67.32-.97,3.44-1.29,7.78-.95,13.02l-.7,1.36-3.62,1.02c-8.79.7-17.64.89-26.56.59.98.44.5.72-.96.89-.34,4.6-.11,8.97.68,13.14,14.99-.33,29.92-.18,44.79.47l1.63-.02c.78.08,1.93.27,2.02.82.39,2.32.7,14.12-.25,15.61-.41.65-1.65.22-2.44-.44v-14.96s-47.93,0-47.93,0l-.07-16.05-31.2.25c.18,5.81.91,10.51-.45,15.13l-2.01-1.1-.11-12.42-11.88.17-1.44-1.98.11-1.01.89-1.99,12.09.16.03-11.78,2-1.4h1c2.26.35,2.74,1.02.51,1.39-.42.61-.27,12.36.96,13.08s26.89.71,28.1,0c.36-.21.66-.5.93-.84-.35-4.7-.06-9.19.86-13.47.38-.13.77-.63,1-.98l.3-.69,28.75.06c-.12.08.24-.24,1.05-.95-.27-4.64-.09-9.18.54-13.61l1.11.13,1.99.87-.07,11.31c3.59.74,7.43.94,11.52.59l1.39,1.99Z"/>
  <path class="cls-60" d="M368.01,256c-.87-.28-.86-.62,0-1-.74-3.92-.87-9.15.21-13-.87-.31-.84-.65.02-1.02-2.02-.27-1.8-.97.25-1l.56-30.95h14.95s0,46.94,0,46.94l-16.01.03Z"/>
  <path class="cls-11" d="M432.86,224.62l-.22,13.4c-.02,1.08-.13,1.81-.69,2.32-.46.42-1.43.29-1.88.46-3.78.79-7.68,1.03-11.69.72-.64,1.21-1.08.95-1.37-.53l.02-16.23,15.82-.14Z"/>
  <path class="cls-17" d="M417.01,240.99c2.23.4,2.72,1.07.5,1.39.34,4.75.06,9.26-.83,13.52-.74.19-2.02.52-2.59.96-3.81.74-7.72.96-11.72.66l-.86.86c.34,4.75.06,9.26-.83,13.52-.74.19-2.02.52-2.59.96-3.8.74-7.71.96-11.71.65-.64,1.22-1.08.97-1.37-.52v-15.98s15.98-.03,15.98-.03l.03-15.97,15.98-.02Z"/>
  <path class="cls-2" d="M368.89,289.02l1.99.89-.19,12.04,12.3.35,1.34,2.04-15.26.97c-.29-.47-1.08-1.33-2.03-1.33h-14.01s0-14.97,0-14.97h15.87Z"/>
  <polygon class="cls-12" points="384.01 273 383.98 288.21 369 288 369.02 273.02 384.01 273"/>
  <polygon class="cls-33" points="433.01 209 386.01 210.05 385.99 254.94 399.01 254.97 399.36 239.35 415 239 415.59 224.22 416 239.98 400.03 240.02 399.99 255.99 385 255.96 385 209 433.01 209"/>
  <path class="cls-33" d="M400.01,321l-.05,15h-47.08c-3.23,1.14-3.46-1.71.2-3.01l43.87-.27-.16-8.73c-10.28.29-20.44-.03-30.48-.97-1.18-4.71-1.6-9.7-1.26-14.95-5.06.1-9.97-.29-14.72-1.17-1.87-5.99-1.34-13.95-.56-20.29,4.53-1.81,9.49-2.34,14.85-1.57.22-4.94.72-9.87,1.51-14.78,4.67-1.15,9.6-1.56,14.79-1.23l.04-9.03-13-.08c-1.73-.25-1.89-1.44-.95-2.96l1,.02h15.99s0,14.99,0,14.99l-15.97.03-.03,15.97-15.98.03v16.96s15.98.03,15.98.03l.05,15.99h31.97Z"/>
  <path class="cls-61" d="M512.99,98.99l.02,45.01-1.45-24.54-.57-21.45h-28.98s-.06,29.71-.06,29.71l15.84.62.23,31.66h27.98s0,1.01,0,1.01h-28.91s-.24-9.89-.24-9.89c-2.53-12.52,2.05-21.76-1.09-21.83l-13.76-.28c-.57-1-1.03-2.34-1.02-3.95l.03-28.04,27.07-.12c2.3,0,3.99.35,4.91,2.08Z"/>
  <path class="cls-33" d="M529.01,177l-46.98,1.07c-.35,5.28.73,10.22-1.02,14.93l.04-16.01h47.96Z"/>
  <path class="cls-33" d="M481.01,193l-46.97,1.07c-.35,5.27.73,10.23-1.03,14.93l.04-16.01h47.96Z"/>
  <path class="cls-25" d="M353.01,240h14s1.49-.02,1.49-.02c-.63,0-.6.72-.25,1-.75.55-1.24,1.21-1.47,2l-28.55.03-1.47-2,.25-1.01c5.09-.91,10.94-.83,16,0Z"/>
  <path class="cls-12" d="M418.07,193l11.46-.12c.43,0,1.43-.11,1.88.02.36.1.61.56.61,1.1l-15.03.02c-.87,0-.97-.67-.97-1.01.19-2.65.87-2.66,2.05,0Z"/>
  <path class="cls-32" d="M384.04,182.99c-1.69-1.44-1.52-4.49-.02-5.98-.49,1.83.02,4.04.02,5.98Z"/>
  <polygon class="cls-29" points="527.01 97 527.02 142.94 514 142.94 514.01 97.01 527.01 97"/>
  <polygon class="cls-68" points="512.01 95.93 481.04 95.72 481.04 80.99 511.98 80.99 512.01 95.93"/>
  <polygon class="cls-68" points="544.05 96.06 529.01 95.95 529.02 81.01 544 81 544.05 96.06"/>
  <path class="cls-33" d="M432.01,96l46.98-1.07c.36-5.29-.76-10.2,1.03-14.93l.03,16.01h-48.04Z"/>
  <path class="cls-33" d="M577.01,96h-31.97s-.05-15.99-.05-15.99h-16.98c5.41-1.59,11.52-1.03,17.63-.74l.4,15.68,30.97,1.05Z"/>
  <path class="cls-33" d="M528.01,80v15.99s-15,0-15,0v-15.99c1.76,4.78.69,9.56.99,14.97h13.01c.32-5.35-.82-10.3,1-14.97Z"/>
  <path class="cls-33" d="M513.01,80h-32.99s32.99,0,32.99,0Z"/>
  <path class="cls-68" d="M477.84,128.02c.64-.74,1.02-1.72,1.2-3.01l-.02-28.02c.33,0,1.03.13,1.03,1l-.09,29.76c-.43.4-1.77.26-2.12.26Z"/>
  <path class="cls-33" d="M593.01,112.01h-15.99s-.01-16-.01-16c1.78,4.67.68,9.64,1.02,14.99,5.29.36,10.41-.82,14.98,1.02Z"/>
  <path class="cls-33" d="M432.01,112c-4.82.55-9.68.72-14.58.49-.66,1.26-1.13,1.03-1.42-.49,4.57-1.83,9.69-.66,14.98-1.01.33-5.38-.73-10.26,1.02-14.99v16Z"/>
  <path class="cls-67" d="M240.02,288c.28-.87.61-.86.99,0l-.67,2.01c-26.21.34-52.43.67-78.65,1.01l-1.24-1.98-.2-16.67-15.63.12-.03-16.04-47.49-.05-.59-31.86,14.3.07c.91,0,1.69-1.14,2.02-1.61.57.84,1.62,1.49,3.07,1.49h28.61s.11,31.8.11,31.8l15.93.24.49,31.49h78.97Z"/>
  <path class="cls-23" d="M82.06,255.99c-.29.88-.64.87-1.04.01l.64-47.31.4,47.3Z"/>
  <path class="cls-33" d="M82.01,257l.05,14.01c4.61.36,9.03-.98,12.88.74l-13.93.23v-15.98s1.04-.01,1.04-.01l-.05,1.01Z"/>
  <path class="cls-67" d="M640.01,256v1s-1.63-.12-1.63-.12c-.51-.04.59,1.53.59,2.28l.06,75.77-12.82.14-.42-31.77h-18.57s-.19,31.41-.19,31.41l-15.73.63v18.38s18.37.01,18.37.01l.34-15.7,13.01.03v44.92s-15.87.37-15.87.37l-.16,47.58h-12.96s-.16-47.58-.16-47.58l-15.86-.36-.35-15.65-15.7-.38c-1.1-.03-1.84.39-1.94,1.03-.36,0-1,.19-1.01,1l-.03,14.03-28.96-.02c-.34-5.37.82-10.34-1-15-2.43-.34-16.83-1.04-17.31-.31l-.21,15.7c-10.26-.1-20.42.11-30.48.62l-.23,1.02-.39,15.52c-.26-1.1-.74-1.51-1.43-1.51l-28.96-.04v-28.96s14.02-.03,14.02-.03c.81,0,1-.65,1-1.01.51-2.13.67-16.57-.44-17.17-1.37-.74-13.83-.26-16.57.16-.36,0-1,.19-1.01,1l-.03,14.03h-28.93s-.04-13.51-.04-13.51c-.19-.43-.57-.53-.77-.53l-.26,15.09c-.62-.2-1.01-.9-1.03-2.01l-.26-12.73-13.81-.36c-.64-.02-1.34-.1-1.06-.96.75-4.7,1-9.48.75-14.34,5.2.06,10.35-.16,15.47-.66.63-5.01.81-10.12.54-15.33l47.22-.09c-1.2-.61-.81-1.41-.81-1.62.75.02,1.09-.83,1.06-1.9l-.39-14.09-.16-15.49,15.52-.27c.12-.91.45-.97,1-.2.87-5.15,1.07-10.35.62-15.6l46.34-.12c.11-.99.45-1.08,1.04-.29.81-5.07.9-10.16.26-15.3l110.74-.71Z"/>
  <path class="cls-17" d="M624.92,401.1l.02.97c.74,9.6,1.02,20.37-.27,29.83-.73.19-2.02.52-2.59.96-3.8.74-7.7.96-11.7.67,1.14.27.69.55-.86.83l-.14,13.68c-.55-.1-1.16-.12-1.38-.03l-.23-14.87c.82-.96,1.34-2.23,1.33-4.07l-.13-44.03,15.03-.02.92,16.08Z"/>
  <polygon class="cls-12" points="640.05 383.81 625 383.95 625 337.04 640.02 337.04 640.05 383.81"/>
  <polygon class="cls-60" points="624.06 335.86 609 335.97 609 305.03 624.02 305.02 624.06 335.86"/>
  <polygon class="cls-41" points="608.05 351.97 593.02 351.99 593.02 337.01 608 337 608.05 351.97"/>
  <polygon class="cls-7" points="656.01 401.01 624.92 401.1 625.03 385.01 640.87 384.65 641.03 337.05 656.02 337.06 656.01 401.01"/>
  <path class="cls-33" d="M672.01,257c-.02.8.48,1.69-.31,3.24-1.04-1.86-2.4-2.4-4.61-2.35l-9.09.23v76.86c5.1.39,9.76-.88,14.54.83l-15.54.13-.75-79.32,15.75.38Z"/>
  <path class="cls-17" d="M593.06,431.99l-.05,1.03c-.34,0-1.02-.13-1.02-1.03l.02-46.98,1.04,46.99Z"/>
  <path class="cls-25" d="M688.29,319.77c-5.19,2-10.41.93-15.5,1.24l.22-1c4.99-1.01,10.23-.73,15.28-.24Z"/>
  <path class="cls-12" d="M335.81,80.11l.09.95c.62,5.01.77,10.35.44,16.01-1.73-1.52-4.06-1.69-6.07-.78-.47,2.9-3.6,2.8-4.3-.04-17.42-.86-36.29-1.14-53.81.06.18-5.22.49-10.3.95-15.24.06-.22.24-.71.23-.87.1-.48.2-.86.31-.86,20.53-.22,41.82.03,62.15.76Z"/>
  <path class="cls-50" d="M367.74,96.22c.28.38.63.76.92.97l.72,1.35c-.35,5.59,0,9.9,1.02,12.93,4.3-.23,8.5-.06,12.62.53h1c.66.29.64.62,0,1l-1.58,2.04-11.58.28-1.94-1.59-1.75,1.31c-10.37-.48-20.73-1.01-31.08-1.6-1.38-4.41-1.95-9.18-1.71-14.31-1.93-.53-3.3-1.47-4.09-2.82.88-1.33,2.83-1.41,5.35-.5l.27-14.73,1.1-.06c.56,4.31.74,8.84.55,13.6.49-1.07.8-.62.99.88,9.93-.23,19.66.02,29.2.74Z"/>
  <path class="cls-71" d="M256.02,114.43c-1,.9-2.33,1.07-4.01.54l-9.01.2-.02,24.79c.53,1.72.21,3.09-.97,4.09,1.58,3,2.36,11.63-1.74,12.43l-2.06-1-.45-8.06c-.43-.32-10.55-.78-10.76-.28-.5,1.24-.5,25.58.01,26.82.21.51,10.68.42,11.05,0l.1-12.3,2.01-1.38c.53-.1,1.06-.16,1.56-.09,1.11.16,2.05,13.19,1.7,14.96l-1.49,1.68,1.47,1.8c-.64,1.44-.79,11.19-.24,11.34,1.34.37,25.57.47,26.83.01l.07-9.76,1.99-1.37c4.66-.03,3.06,10.29,2.31,13.99-.06.48-.52.85-1.36,1.12l2,.87.02,11.12h11.6s1.38,2.01,1.38,2.01c.9.21.92.56.11,1.05l-2.11-.04c-4.57.98-9.39.65-14,0l-.73-14.18-2.27-1.82h-1c-9.25.44-18.58.44-28,0,.22-5.63-.1-11.07-.94-16.31l-1.17.6c-4.77.77-9.57.78-14.4.05v-30.85c-1.14-1.3-12.33-1.38-13.11-.95,1.08.42.63.72-.88.94.26,9.92.09,19.77-.49,29.54h-.95c-.77-.09-1.83-.25-2.02-.86-.8-2.55-.9-24.87-.66-28.88l1.97-1.5c.63-.78,1.85-1.68,1.78-3.73l.12-6.14c2.36,1.02,3.32,3.37,2.88,7.06l9.9-.14-.07-27.23.89-1.82c.5-.25,1.22-.83,1.79-.82l1.1-2,11.6.03c.76-3.61.97-7.48.63-11.59l2-1.39h1.04c.55,4.29.73,8.82.53,13.58.4-1.07.67-.62.86.89.46.39,11.66.54,12.03.07,1.96-2.51,2.54.97,1.59,2.89Z"/>
  <path class="cls-17" d="M325.98,96.25c.14.81-.04,2.01-.57,2.02-16.6.21-33.33.09-49.98-.05-.58,4.88-1.33,9.9-2.26,15.08-4.89,1.21-12.67,2.71-16.2-1.15-2.18-.45-3.21-.81-1.31-2.01-.59-4.5-.36-8.82.71-12.98.35-.07.8-.67.99-.98l.45-.56c5.79.4,10.35.06,13.67-1-.28-4.64-.1-9.18.53-13.62l1.1.08v13.96s51.85-.05,51.85-.05c.82,0,1.22.82,1.02,1.27Z"/>
  <path class="cls-26" d="M385.01,97l.85.3-.35,29.26c.47-1,.77-.52.95.95,1.21.91,28.1.35,29.08-.81-.23-4.93-.07-9.83.47-14.7h16c-4.59,1.83-9.67.67-14.96,1v14.86s13.04.11,13.04.11c1.01,0,1.72.48,2.35.98h-15.43s0,61.03,0,61.03c0,1.31.58,2.35,1.06,3.03h-2.05s-.1-63.95-.1-63.95l-30-.06c-1.1,0-.88,1.66-.89,2.2-4.52-.02-9.13-.23-13.82-.61l-1.33-2.56.9-1.99,11.2.08.04-11.72,2-1.39v-1s-.03-15.03-.03-15.03c0-.95.67-.91,1.05-.88l-.03.92Z"/>
  <path class="cls-24" d="M256.37,97.17c-.35,4.96-1.15,10.27.59,14.99.78.09,1.96.34,2,.9.25,3.36.49,27.56-.28,28.78-.42.66-1.65.45-2.58.12-.78-.21-1.93-.53-2-1.14-.47-3.96-.74-21.47-.08-24.93l2-1.44c0-.44.16-2.09-.24-2.31l-14.75-.16-.02-14.96c-.44-.57.85-1.16.85-.85l.19,14.82h12.92s.1-12.86.1-12.86c0-.59.99-.88,1.31-.94Z"/>
  <path class="cls-24" d="M335.81,80.11l-62.46.09c-1.75-.31-1.09-1.78.29-1.71,8.57,1.18,16.93.32,25.52.36l35.86.15c.9,0,1.26.79.8,1.12Z"/>
  <path class="cls-24" d="M223.81,80.11l-63.5-.6,17.7-.65,44.99.15c.91,0,1.26.76.81,1.1Z"/>
  <path class="cls-24" d="M367.74,96.22l-30.67-.23-.06-14.98c-.45-.57.84-1.16.84-.85l.2,14.81,28.08.09c.99-.31,2.11.16,1.61,1.17Z"/>
  <path class="cls-24" d="M257.36,96.18c-.42-.09-1.14-.28-1.36-1.12l14.98-.03-.03-12.13c0-1.03.37-1.79,1.06-1.9l-.02,15.01-14.63.18Z"/>
  <path class="cls-24" d="M240.02,96.01l-15.19.19.19-15.2c-.44-.56.85-1.16.85-.85l.19,14.81h12.04c1.07-.01,1.81.37,1.93,1.05Z"/>
  <path class="cls-24" d="M383.01,112l-14.02-.03-.34-14.78c.69,0,1.46.52,1.45,1.69l-.07,12.09,11.94.08c.68,0,1.07.53,1.03.96Z"/>
  <path class="cls-25" d="M433,80.02c-.26-.05-.73.18-1.01.19l1.64-15.79c.46,5.24.26,10.44-.62,15.6Z"/>
  <path class="cls-25" d="M417.01,96.02c-.25-.05-.78.19-1.03.3.33-5.15-.71-10.43,1.65-15.9.46,5.23.26,10.43-.62,15.6Z"/>
  <path class="cls-61" d="M192.36,368.59l2.01.91c.32,16.23.27,32.06-.14,47.52,2.79-.65,14.54-1.35,15.93.45.94,1.22,1.41,14.46-1.98,15.02-.09.78-.32,1.94-.88,2-4.94.53-23.44.95-27.79.14l-1.45-1.99c-.05,1.17-.32,1.26-1.01.26l-.96-.92c-.9-.37-.82-.71.14-1.03l-1.96-1.19.07-11.39-10.89.07-1.42-1.99c-2.75-.09-3.97-1.19-3.65-3.31l.28-43.39,2.01-1.17c0-.77.18-1.96.68-2,7.64-.58,17.93-.31,25.67,0,2.96-.6,4.75.06,5.34,2Z"/>
  <path class="cls-46" d="M271.05,416.31c.64-.62,1.08-.51,1.31.34l2.02,1.1c.36,2.34.54,14.52-.56,15.76-1.21,1.35-13.02,1.37-15.43,1.05l-1.4-1.99c-.31.29-.81.2-1.04.09l-1.39,2-11.71.03-.77,11.05-2.08,1.26c-20.53.61-41.31.78-62.37.52-.37-5.12-.23-10.08.41-14.88l30.12-.15,1.13-2,8.3-.02c3.58-.65,6.38.01,8.41,1.98l1.15-1.99c4.07.37,7.88.19,11.44-.55l-.18-13.18c.52-1.07.73-1.33,1.63-2,1.18-.89,26.06-.64,29.53-.41l1.47,2Z"/>
  <path class="cls-45" d="M288.97,416.13c.81-2.16,3.47-2.86,7.98-2.1,3.64-.75,6-.12,7.09,1.92,2.27,1.59,1.41,2.54-1.09,1.31-4.14.44-8.33.52-12.55.25-1.51,3.97-1.34,11.72.07,13.95l29.52.07,2.06,1c.25,4.74.5,9.49.75,14.24l-1.92,1.48-63.82-.31-.06-15.39,15.6-.09-.24-15.82c5.38-2.95,11.08-3.18,16.61-.52Z"/>
  <polygon class="cls-45" points="383.96 479.32 367.86 480.51 366.94 481.18 353.01 481 353.03 464.99 383.97 464.99 383.96 479.32"/>
  <polygon class="cls-12" points="176.02 447.99 145.04 448.02 145.04 432.99 175.99 432.99 176.02 447.99"/>
  <polygon class="cls-2" points="416.01 463.99 385.04 464.02 385.04 448.99 415.98 448.99 416.01 463.99"/>
  <polygon class="cls-12" points="144.01 432 113.01 432 113.04 416.99 143.98 416.99 144.01 432"/>
  <polygon class="cls-15" points="112.01 432.85 143.97 433.03 143.96 448.01 97.1 448.29 97 417.03 112 417.01 112.01 432.85"/>
  <path class="cls-49" d="M240.01,447l.86-2,12.13-.02c-.31-3.95-.1-7.85.61-11.7l2.34-.62v15.36s-78.91.01-78.91.01v-15.12c.19.18.84.14,1.01-.26l.02,14.37,61.94-.02Z"/>
  <path class="cls-65" d="M305.01,449c.82.42.75.76-.16,1l.27,11.1c.03,1.43-.32,2.48-1.19,3.16l-2.15-1.08,1.23-4.19c-.32-.62-.35-1.62-.12-2.99-.92-.24-.86-.58.06-1.01-.57-2.25-1.22-3.79-1.96-4.62,2.56,1.01,2.36,3.46-.01,4.63-.7,1.66-1.43,1.02-2.2-1.92-.92.25-2.19-.49-3.83-2.21.14,3.52-1.07,5.31-3.61,5.39.59,4.15-.19,6.86-2.35,8.13-.49-.56-.95-1.27-1.05-2.34l.06-12.05c-.87-.28-.86-.62,0-.99h17Z"/>
  <polygon class="cls-33" points="417.34 465.53 416.47 467.55 388.2 468.03 387.65 480.34 385.32 481.31 385.01 479 385.05 465 417.34 465.53"/>
  <path class="cls-42" d="M176.23,430.96c0,.25-.21.7-.14,1.03l-31.08.02v-15.02c.11-.92.45-.97,1.01-.21l2,1.09.13,11.14,26.62-.04,1.45,2Z"/>
  <path class="cls-54" d="M335.97,448.84c.45-.75.8-.69,1.04.16l.07,13.05c-.11,1.08-.57,1.79-1.12,2.51-2.39.08-2.95-1.42-.47-1.8-.24-1.84-.07-3.42.51-4.77-.89-.06-.87-.32-.03-.74-.43-1.5-.72-3.23-.89-5.17l-3.4-1.35c-2.42,1.34-5.31,1.76-8.66,1.28l-.04,11.03-2.01,1.37c-.47-.57-.93-1.28-1.04-2.36l.09-12.04c-.15-.38.18-.71.99-1l-.15-.76c.92-2.11,3.62-2.68,8.1-1.69,3.68-.57,6.01.19,7,2.27Z"/>
  <path class="cls-33" d="M321.02,449.02c.09.67-.38,1-.99,1h-15.18s.16-1.01.16-1.01h16.01Z"/>
  <path class="cls-33" d="M288.01,449.01v.99s-13.07.05-13.07.05c-1.07,0-1.82-.38-1.92-.99l15-.05Z"/>
  <path class="cls-17" d="M463.81,256.29c.17.37.57.98,1.42.85.41,4.74.85,10.42-.59,14.68-.22-.08-.51.07-.7.07l-14.92.08.09-14.84c.13-.18.62-1.21-.84-1.56,5.42-.53,10.59-.29,15.53.73Z"/>
  <path class="cls-24" d="M445.07,288.91c-.79.22-1.39,1.22-2.96,1.21l-24.06-.13.02,13.06,41.95-.19c1.38,0,2.68.22,3,1.14h-45.96s-.02-14.99-.02-14.99l28.03-.1Z"/>
  <path class="cls-24" d="M398.09,272.87c-.75.57-1.39,1.27-2.98,1.26l-9.08-.07.02,12.87h28.91s-.09-11.04-.09-11.04c-.01-1.59.44-2.36,1.49-2.72l-.34,14.85h-30.99s-.03-15.01-.03-15.01l13.07-.13Z"/>
  <path class="cls-25" d="M512.36,207.6l-63.61,1.41c.17-.34.23-.64.26-.95,21-.67,42.12-.82,63.35-.46Z"/>
  <path class="cls-24" d="M417.36,272.18c-.41-.01-1.4-.3-1.26-1.38l30.86.15v-12.02c0-1.07.38-1.82,1.05-1.93l-.04,15-30.61.18Z"/>
  <path class="cls-24" d="M430.07,240.8c-.64.66-1.45,1.33-2.95,1.32l-9.08-.05.07,12.09c0,1.25-.63,1.53-1.43,1.74l.34-14.91,13.06-.19Z"/>
  <path class="cls-24" d="M414.09,256.87c-.75.57-1.39,1.27-2.99,1.26l-9.06-.05.07,12.09c0,1.25-.63,1.53-1.43,1.74l.32-14.91,13.09-.13Z"/>
  <path class="cls-24" d="M462.01,273.19c-3.65,1.74-7.6.53-11.93.79l.04,12.18c0,1.3-.67,1.51-1.42,1.73l.3-14.85,13.01.15Z"/>
  <path class="cls-24" d="M463.81,256.29l-15.53-.73c5.5-.99,10.12-.57,15.48-.46.41.29.39.96.04,1.18Z"/>
  <path class="cls-25" d="M481,288.02l-1,.2,1.62-15.8c.47,5.23.26,10.44-.62,15.6Z"/>
  <path class="cls-24" d="M464.64,271.82l.59-14.68c1.76,4.49.44,9.56.75,14.57-.54.31-1.09.2-1.34.1Z"/>
  <path class="cls-25" d="M529.01,272.01c-.27-.03-.79.2-1.04.29l1.3-15.58c.67,5.13.58,10.23-.26,15.3Z"/>
  <path class="cls-45" d="M207.35,144.78l.72,31.23c-5.09-.16-10.24.57-15.11-.9l-.1-30.07,14.49-.26Z"/>
  <path class="cls-12" d="M222.84,112.77c.99.61,1.26,1.65,1.26,3.14l-.08,28.06-14.24.03c1.03-3.65-.47-6.52-.54-9.09l-.6-21.84,14.19-.29Z"/>
  <path class="cls-55" d="M155.2,132.06c-4.05,4.14-5.82,3.01-10.19,1.78-3.24-.91-7.85-.36-8.91-5.05l-1.8-7.95c3.84-3.15,7.22-.92,11.03-.16,4.59.91,10.25.46,13.38,4.79,1.96,2.7-2.12,5.17-3.52,6.6Z"/>
  <path class="cls-12" d="M239.96,97.01l.03,14.98-15.37-.04.24-14.07c4.53-1.8,10.3-.86,15.09-.87Z"/>
  <path class="cls-43" d="M415.69,511.69c-1.52,4.89-.35,9.99-.69,15.31h-28.99c-.34-5.32.83-10.41-.69-15.31-4.9-1.52-9.99-.34-15.31-.69v-28.99c5.32-.35,10.41.83,15.31-.69,1.53-4.86.33-10.04.71-15.25l31.31-.53c1.44-5.22.37-10.14.66-15.49l13.02.03v60.91c-5.33.38-10.43-.82-15.33.71Z"/>
  <path class="cls-24" d="M624.68,431.91l.27-29.83c.5-.22,1.04.21,1.05,1l.11,27.09c0,1.24-.59,1.53-1.42,1.75Z"/>
  <path class="cls-24" d="M622.09,432.87c-.75.57-1.39,1.27-2.99,1.26l-9.09-.03c-.33,4.97.82,9.57-.62,13.96l-.36-15.06,13.06-.13Z"/>
  <path class="cls-25" d="M641.01,464l-1.02.27c.32-5.08-.73-10.42,1.63-15.86.28,5.12.4,10.64-.61,15.58Z"/>
  <path class="cls-33" d="M641.01,464l.61-15.58c1.4,4.74-.12,9.5.41,14.53.08.77-.79,1.14-1.03,1.06Z"/>
  <path class="cls-6" d="M416.01,112l.05,16.07-31.05-.07v-31c.2-.03,1.28-.18,1.62-.12.49.09-.52,1.51-.52,2.22l-.1,27.91h29.01c.34-5.33-.83-10.42,1.01-15.01Z"/>
  <path class="cls-33" d="M433,80.02l.62-15.6c1.08,4.43.62,15.82-.62,15.6Z"/>
  <path class="cls-33" d="M417.01,96.02l.62-15.6c1.08,4.42.62,15.83-.62,15.6Z"/>
  <path class="cls-24" d="M223.5,177.34l-.53-31.29h-12.95s.02,28.98.02,28.98c0,.72-.59,1-1.01.98v-30.99s15,0,15,0l-.52,32.31Z"/>
  <path class="cls-37" d="M257.02,272.03c1.3,1.42.74,1.93-1.01.98-.42,2.89-9.01,2.44-11.65,2l-1.35-2c-.9,1.79-1.54,2-2,0,4.57-1.84,9.72-.65,14.94-1.02l1.76-31.59c.22,10.7-.01,21.24-.69,31.63Z"/>
  <path class="cls-24" d="M268.01,193c.08.36-.36,1.05-1.08,1.04l-26.92-1.04h28Z"/>
  <path class="cls-19" d="M272.01,209.01c-2.6-5.96,1.24-13.39-3-16,.8,0,1.73-.39,2.96-.19l.03,16.19Z"/>
  <path class="cls-19" d="M240.01,193l-.94-16.31c1.34-.01,1.51,1.17,1.12,2.18l-.17,14.13Z"/>
  <path class="cls-25" d="M241.01,288h-.99c.31-4.91-.82-10.26.99-15,.52.09.93.18.93.3.13,3.25-.22,8.6-.45,12-.06.92-.21,1.82-.48,2.7Z"/>
  <path class="cls-25" d="M273,240.02l-1.01.19c.32-5.04-.73-10.32,1.63-15.79.47,5.24.26,10.44-.62,15.6Z"/>
  <path class="cls-24" d="M237.9,177.29c-3.73,1.91-9.57,1.11-14.4.05l14.4-.05Z"/>
  <path class="cls-24" d="M286.01,209c-2.39,1.66-9.94,1.48-14,0h14Z"/>
  <polygon class="cls-43" points="111.06 142.85 98 142.96 98 114.04 111.02 114.03 111.06 142.85"/>
  <path class="cls-33" d="M688.29,319.77l-15.28.24c2.91-1.72,10.96-1.42,15.28-.24Z"/>
  <path class="cls-46" d="M256.28,353.07l2.26,2.28c.79,4.19,1.3,14.01-2.87,15.42l-45.61-.27-1.18-2.01c-5.19,2.86-11.32,2.97-16.52.09h-31.7c-5.41,1.96-10.9,1.96-16.31-.02l-.91,2h-28.6c-.45,4.25-.36,8.27.28,12.04l12.01.03,1.37,2-.34,17.29c-.36.22-.71.45-1.04.71-.59.46-14.02.86-13.92-1.95-.4.02-.89.19-1.22,0-.87-.12-.87-.24,0-.38-1.9-.28-1.79-1.01.17-1.34l-1.98-.89c.28-4,.28-7.94-.01-11.81l-11.55.4-1.41-1.97c-.38.94-.78.93-1.22,0v-.38c-1.98-.2-1.86-1.05.15-1.34l.76-14.48-15.99-.54-2.03-1.04c-.66-4.08-1.55-14.65,2.27-16.35l173.91.5,1.22,2Z"/>
  <path class="cls-11" d="M111.98,400.31v.38s.01,15.26.01,15.26l-15.91.19c.14-4.95.72-9.73.2-15.3l-15.59-.18c4.91-1.42,10.02-.51,15.27-.49l.02-15.49c.33.15.75.03,1.22,0,.47,4.6.57,9.23.32,13.91l.9.89c4.81-.3,9.33-.03,13.56.81Z"/>
  <path class="cls-33" d="M96.13,382.97c-.02.37-.16.93-.15,1.34l-14.98-.3-.3-14.87c1.07.06,1.44.55,1.43,1.68l-.09,12.17,14.09-.02Z"/>
  <path class="cls-38" d="M160.66,368.58l-.3,44.48c0,1.68.47,2.68,1.65,3.39l-1.1,2.02-13.44.27-1.46-1.97-1.01.21c0-.59-.4-.98-.98-.98-.81-.43-.74-.77.17-1-2.03-.74-2.68-2.94-1.96-6.6-.74-4.03-.05-6.68,2.05-7.96-.78-.09-1.96-.34-2-.9-.54-6.91-.36-17.11.04-24.09-.66-3.55.01-5.85,2.01-6.88,5.43.01,10.88,0,16.31,0Z"/>
  <path class="cls-66" d="M128.01,415c.1-.77.3-1.91.86-2,1.49-.25,13.31-.29,13.94,0,.73.34,1.09,1.22,1.38,2l-.17,1h-30.99s.15-15.31.15-15.31l2.34.71c.66,3.8.79,7.63.4,11.51l10.68.09,1.39,2Z"/>
  <path class="cls-28" d="M320.96,383.93c-4.95,2-10.24.68-15.95,1.08v31.55s26.05,0,26.05,0c1.9,0,3.6,1.01,4.94,1.43.82,9.69.84,21-.03,30.87l-15.09-.59-.88-16.72-30.38-.07-.06-13.96c4.5.26,8.96.18,13.39-.25.33-.17.98-.96,1.09-1.31-.78-.09-1.96-.34-2-.89-.25-3.2-.54-27.28-.03-28.61.29-.76,1.21-1.13,2-1.44-.34-.83.14-1.16,1.04-1,1.25-2.17,4.15-2.85,8.67-2.04,3.7-.74,6.11-.08,7.23,1.97Z"/>
  <path class="cls-37" d="M335.09,452.09l-.08.92c-.63,1.86-1.55.56-2.01-1-2.34,2.27-2.28,4.6-.38,7.12.72.03,1.16.69,1.29,1.99.36.33.71-.71,1.05-3.14.32-.57.67-.55,1.04.02l-.04,6.56-14.98-.15.06-14.4,14.95.02-.9,2.06Z"/>
  <path class="cls-80" d="M294.96,450.87c1.37.12,2.26,1.19,1.09,2.1l.39,5.28.78-.4c.21-.87.48-.84.81.04l2.06.41c.04,1.58,1.01,1.81,2.92.7,1.25,1.56.47,3.5.92,5.26l-14.93.14.5-11.6c.03-.69-.95-2.1.02-2.8.69-.5,2.79.21,2.42.69-.98.99-1.5,1.89-.98,2.86.27.52,1.38,1.22,2.03.2.81-1.27-.55-5.04.95-3.42.18.2.73.7,1.03.54Z"/>
  <path class="cls-48" d="M265.02,463.09c-.54-.98,0-2.68,1.31-2.73-.72-1.49.38-3.09,2.01-2.35-.6-1.44-.6-2.5,0-3.19-2.07-2.83-2.16-4.22-.28-4.18,1.39-.15,2.93-.81,4.08-.16l.23,12.71c-1.5,1.46-6.08,1.37-7.36-.11Z"/>
  <path class="cls-22" d="M268.35,454.82c0,1.19.29,2.02,0,3.19-1.12.15-1.79.93-2.01,2.35-.51.57-.04,2.17-1.31,2.73-.74.68-1.52,1.32-2.58,1.49-.88.14-1.85-.62-2.25-1.36.29-2.39.45-4.81.47-7.25.98-.64,1.76-1.63,2.34-2.96.25,0,.77.09,1.02.02,2.09-2.93,3.77-1.33,4.33,1.81Z"/>
  <path class="cls-72" d="M261.97,453.02l1.04-.02c1.33,2.69,2.84,5.79.61,9.21-1-1.64-.71-3.18-.62-5.18-1.06.06-1.9,1.16-1.81,1.6.64.99.81,1.99.71,2.58-.12.68-1.11,1.84-1.7,2-2.05.44-1.75-10.37-1.42-10.86,1.32-1.98,2.75-1.78,3.19.66Z"/>
  <path class="cls-25" d="M337.01,448v1c-.34.11-.78-.15-1.04-.16l.03-30.87c0-.65.31-1.01,1-1.01.86,10.12.86,20.86,0,31.04Z"/>
  <path class="cls-33" d="M337.01,448v-31.04c.39,0,1.02.12,1.02,1l.02,28.09c0,1.09-.37,1.83-1.05,1.95Z"/>
  <path class="cls-31" d="M261.97,453.02c-.53-.67-1.35-1.1-1.98-.58-.84.69-.77,1.22-.55,2.36.52,2.84-.84,5.78.76,8.42-.53.21-1.07.58-2.18.58v-14.02c1.49-.27,2.53.59,3.52.58.65,0,.72,2.38.43,2.67Z"/>
  <path class="cls-33" d="M417,400.02c-.97-4.77-.29-10.56.62-15.6,1.02,4.17.73,15.3-.62,15.6Z"/>
  <path class="cls-25" d="M417,400.02l-1,.22c.3-5.05-.75-10.39,1.62-15.82l-.62,15.6Z"/>
  <path class="cls-47" d="M268.07,450.64l.28,4.18c-.74-.5-1.2-1.98-1.92-2.35-.61-.31-1.84.37-2.4.55-.39-1.32.54-2.01,1.45-2.1l2.59-.27Z"/>
  <path class="cls-67" d="M367.01,256.98c.11.7.86,1.07,1.92,1.07l14.06-.03v12.98s-15.63.35-15.63.35l-.36,15.64c-5.59.33-10.67-.81-15.89.71l.2,17.94,15.7.36.35,15.79,31.6.22v12.99s-46.8,0-46.8,0c-.37.75.26,1.18.72,1.02.04.33-.11.7-.12.97.77.14,1.91.41,1.95.96.13,1.62-.35,13.21-.75,13.78-.5.71-2.01,1.81-2.85,2.27-1.25.69-25.3.22-28.66,0l-1.44-2c-3.54,1.07-3.4-1.41.05-2.9,9.38.13,18.68-.02,27.91-.44.32-3.65.1-7-.66-10.03l-89.26-.08c-.5,3.81-.51,7.91-.05,12.32l-1.94,1.49c.48.96.21,1.18-.78.7l-175.83-.5.46,15.39c-.19-.11-.58-.02-.86-.02-4.34-1.66-8.94-.63-14.04-.94v-28.96s14.02-.03,14.02-.03c.81,0,1.01-.64,1-1,.65-.11,1.04-.86,1.03-1.92v-13.08s15.63-.35,15.63-.35l.32-16.65,14.68.03-.12,15.46c5.86,1.21,11.3.08,16.64.1-.88-3.02,12.85-2.26,13.52-1.95.73.34,1.08,1.23,1.37,2.01,5.1.02,10.08.81,15.98.21l.38-31.83,80.56-1.03c.25-4.98.63-9.9,1.12-14.75l.88-.25h13s2.01.9,2.01.9l.64,44.91,13.1-.2,1.45,1.98c1.37-1.71,3.64-2.25,6.82-1.6,4.56-1.67,7.19-1.24,7.89,1.27.88-1.38,2.25-1.78,4.1-1.21l26.59-.34c-.51-5.51-.12-10.7,1.19-15.57,4.99.03,9.89-.17,14.69-.6l.47-44.62,2.01-1.17,30.02.24Z"/>
  <path class="cls-52" d="M397.91,353.54h-43.69c-.49,4.73-.89,9.56-1.2,14.49l-4.08,1.29-26.48.21c-.71,1.22-1.18.97-1.45-.54-1.65-.13-1.73-.76-.49-1.7-.31-5.28-.14-10.38.49-15.29h31s.75-15.02.75-15.02h47.21s.14,13.16.14,13.16c0,.62-.04,1.72-.34,2.01-.37.35-1.51.22-1.84,1.39Z"/>
  <path class="cls-50" d="M321.01,369c2.24.36,2.74,1.03.53,1.4.24,4.3.05,8.49-.58,12.59v.94s-15.9.07-15.9.07c-.32-4.42-.66-8.94-.99-13.58-2.82-.83-2.32-2.51.6-1.94l13.62-.04c2.06-.88,2.97-.69,2.73.55Z"/>
  <path class="cls-24" d="M397.91,353.54l-43.81.55-.03,12c0,1.1-.45,1.75-1.06,1.95l.04-15.02,44.86.53Z"/>
  <path class="cls-34" d="M417.03,337c0,.36-.19,1.01-1,1.01h-14s0,12.99,0,12.99l13,.3c-.02.15-.11.49-.52.82l-13.71-.11.29-15.01c5.13-.37,10.48.93,14.84-.75.21-.15.68-.36,1.08-.25.49.29.48.63.02,1Z"/>
  <path class="cls-24" d="M348.94,369.33l-26.87.74-.1,11.89c0,.75-.47,1.15-1.01,1.03l.05-13.99,27.93.32Z"/>
  <path class="cls-33" d="M465.03,369l-.02-1-.34-15.66-15.66-.33-1-.02c.1-.64.85-1.05,1.93-1.03l15.78.38.12,17.32c0,.34-.58.53-.82.34Z"/>
  <path class="cls-33" d="M545.03,465v-1s-.21-46.97-.21-46.97c.54-.17,1.61-.03,1.84.36.16.26-.58,1.2-.58,1.72l-.09,44.82c0,.72-.58,1.12-.96,1.07Z"/>
  <path class="cls-33" d="M561,416.02c-.96-4.77-.29-10.56.62-15.6,1.02,4.19.73,15.33-.62,15.6Z"/>
  <path class="cls-25" d="M561,416.02l-1,.2c.3-5.03-.75-10.37,1.62-15.8l-.62,15.6Z"/>
  <path class="cls-24" d="M545.1,414.97l-.43-13.81c1.05.07,1.58.45,1.4,1.75-.42,4.27.98,8.65-.97,12.06Z"/>
  <polygon class="cls-25" points="144.09 320.65 129.2 320.59 128.99 289.04 144.01 289.04 144.09 320.65"/>
  <polygon class="cls-28" points="79.05 318.97 66.02 318.98 66.03 306.02 79 306.01 79.05 318.97"/>
  <path class="cls-28" d="M366.94,481.18c.03-.41.66-.65.92-.67l.13,14.48h-13.97s.03-13,.03-13c4.65-.35,8.96,1.05,12.88-.8Z"/>
  <path class="cls-33" d="M529.01,368h-16.98s-.05,16.01-.05,16.01h-30.97c-.06-.41.36-.99,1.05-.99l28.94-.02.38-15.73c6.11-.28,12.22-.85,17.63.73Z"/>
  <path class="cls-33" d="M512.36,207.6l-63.35.46c-.1-.37.38-1.19,1.13-1.18l62.23.72Z"/>
  <path class="cls-51" d="M337,256.74l-.51,48.02c-5.98.52-10.73.45-15.8-.36l-.06,16.34-28.67.3c-1.63.02-2.89-.5-4.01-.79l-2-.9.08-28.32c-3.68-.07-7.35-.02-11.01.14l.2,27.93-1.99,1.48-16.57.26-.63-47.83,1.01-.98c0-2.02.8-1.95,1.08.13l14.49.54-.16-16.32,64.56.37Z"/>
  <path class="cls-28" d="M336.02,192.6c.95,4.76.78,10.82,0,15.89l-15.77-.29c-.02,6.01.57,10.86.08,16.28l-15.59-.18-.13-15.29-16.48.04-.11-1.05,1.14-2c1.55-.23,12.89-.39,13.44,0,.71.51,1.22,1.12,1.42,2,.31-.87.65-.85,1.01.02.66-4.68.83-9.49.53-14.42,8.9.16,17.76-.08,26.56-.73-.33-3.32,3.12-3.33,3.91-.28Z"/>
  <path class="cls-28" d="M368.25,240.98l-.02,1.02c-1.14,3.72-.92,9.13-.21,13v1s-31.33.12-31.33.12l.08-15.11,31.49-.03Z"/>
  <path class="cls-33" d="M258.1,272.16c-.26,0-.85-.35-1.08-.13l.69-31.63.39,31.76Z"/>
  <path class="cls-79" d="M352.01,239.01c.46,0,.95.55,1,.99h-16c.1-.66.85-1.06,1.93-1.05l13.07.06Z"/>
  <path class="cls-33" d="M273,240.02l.62-15.6c1.03,4.2.73,15.35-.62,15.6Z"/>
  <path class="cls-61" d="M325.98,96.25l4.3.04c1.75.02,3.72-.15,5.99.7l.77,15.12,22.99.27c3.36-.2,6.45-.26,8.89,1.34.77.11,1.91.33,1.99.87.51,3.56.14,10.05-1.03,13.43,5.61,2.63,12.69-1.31,15.15,3.18l-.18,13.05-15.83.8.03,14.14c-.02.95-.28,1.96-.77,3.04-9.8.65-19.64.88-29.52.7.29,4.64.05,9.07-.72,13.31-1,.58-1.96.84-2.88.77l-.9,1.99-27.07-.18-.68,13.54c-1.24.84-2.19,1.19-2.84,1.05-9.93.29-19.69.11-29.28-.53-3.13-3.59.15-9.82-2.31-13.99l-28.64-.03-1.48-1.99c-1.45-3.19-.86-6.85-.93-10.88.15-2.32.28-4.52-.84-5.68-2.95.12-2.71-3.2.09-3.82,2.01-4.28-.68-9.33,1.74-12.43l1.11-1.99c4.83.23,9.16.19,12.98-.12.51-.13.96-.85.95-1.87l-.09-27.92c4.79.24,9.78.5,15.14-.12l.74-15.83,44.7.26,8.43-.21Z"/>
  <path class="cls-17" d="M384.02,161c-.35,2.26-1.02,2.74-1.38.51l-12.23.03c1.09.34.63.62-.91.85.3,4.19.17,8.36-.38,12.48,1.74.53,1.46,1.28-.35,1.35-.3-.02-.76.24-.89.48-4.78,1.28-10.04,1.06-14.89.28-.21-.17-.7-.32-.99-.3-.21.89-.55.91-1.01.08-4.06.78-8.25,1.03-12.56.76,1.07.34.6.62-.93.86.28,4.21.17,8.39-.31,12.55.69.46.62.82-.2,1.06-.33.86-.66.83-1.02-.04l-2.03-1.62-.42-11.42,1.62-1.92c3.53-2.17.42-8.83,1.9-16.16l28.01-.02c1.97,0,3.21-.55,3.99-1.64,6.07,1.87,12.24-.42,14.97,1.82Z"/>
  <path class="cls-28" d="M384.24,175l.16.91c-5.12.89-10.43.72-15.62.31-.07-.51.19-1.07.35-1.35.54-4.38.66-8.79.38-13.25l13.89-.12c-.22,4.62.06,9.12.84,13.5Z"/>
  <path class="cls-24" d="M384.02,161l.22,14.01c-.78-.53-1.35-1.47-1.34-2.88l.06-10.11-12.97.06c-.33,4.52,1.08,9.1-.86,12.81l-.1-13.86,14.99-.02Z"/>
  <path class="cls-28" d="M352.29,192.4c-5,.33-10.55.64-15.28-.4-.09-.39.09-.83.2-1.06.47-4.4.57-8.83.31-13.3,4.62.16,9.11-.13,13.49-.86l1.01-.08c.72,4.98.59,10.3.28,15.72Z"/>
  <path class="cls-4" d="M352.29,192.4c-4.81,1.38-9.79.27-15.24.6l-.02,13.03c0,1.08-.57,1.9-1.02,2.45v-15.89c-.84.02-.81-.21-.02-.64l1.02.04,15.28.4Z"/>
  <path class="cls-23" d="M367.89,176.71c-1.12,2.09-12.88,1.97-14.89.28l14.89-.28Z"/>
  <path class="cls-33" d="M464.79,321.59l-46.71.47-.02,13.01c0,1.08-.38,1.82-1.04,1.93l-.02-1,.05-15,47.73.58Z"/>
  <polygon class="cls-59" points="384.33 304.34 368.66 303.91 368.89 289.02 384.23 288.8 384.33 304.34"/>
  <path class="cls-24" d="M368.02,255c-.43.05-.96-.34-.96-1.03l-.02-10.97c0-.77.72-1.16,1.19-1l-.21,13Z"/>
  <path class="cls-33" d="M481,288.02l.62-15.6c1.02,4.2.73,15.33-.62,15.6Z"/>
  <path class="cls-33" d="M529.01,272.01l.26-15.3c1.41,6.03,1.11,15.46-.26,15.3Z"/>
  <polygon class="cls-43" points="626.17 399.05 626.04 386 641.87 385.65 642.03 338.07 655.02 338.07 655.02 398.99 626.17 399.05"/>
  <path class="cls-12" d="M384.01,113l-.05,15.13-14.09-.11c-.63,0-1.15-.9-1.14-1.91l.18-12.39c4.89-1.4,10.06-.5,15.09-.72Z"/>
  <path class="cls-45" d="M335.16,177c1.24,4.59.66,10.12.83,14.96l.02.64c-1.05-.07-3.06-.34-3.91.28-8.48.71-17.02.91-25.61.61.99.45.51.73-.95.9.29,4.65.12,9.2-.53,13.63l-1.01-.02-2.02-.82-.25-11-27.28-.18-1.46-2.01c0-.75.67-1.12,1.36-1.12l30.17-.2.55-15.87,30.07.2Z"/>
  <path class="cls-68" d="M272.06,178.88l.05,13.13h-31.06c.26-5.43-1.07-10.49.89-15.15l28.12-.17c.85,0,1.59.45,1.86.87.2.31.13.86.13,1.32Z"/>
  <polygon class="cls-12" points="240.27 156.48 240.17 160.3 240.08 175.98 225 175.97 225 145.04 239.64 145.35 240.27 156.48"/>
  <path class="cls-12" d="M256.02,114.43l.09,27.51c0,.66.12,1.24-.12,1.54-.29.36-1.08.66-1.9.66l-12.07-.09c-.54-1.02-1.03-2.36-1.02-4l.02-27.01,11.08-.08c1.63-.01,2.94.39,3.93,1.46Z"/>
  <polygon class="cls-60" points="304.01 208 288.01 208 273.03 207.99 273.01 194 303.7 194.14 304.01 208"/>
  <polygon class="cls-24" points="240.06 143.86 225 143.97 225 113.03 240.02 113.02 240.06 143.86"/>
  <path class="cls-38" d="M208.88,368.5c.78,0,1.98.19,2,.67.61,12.21.91,28.62.08,40.68.65,3.32,0,5.34-1.99,6.05-.02,1.51-.29,1.75-.86.53-4.77-.23-9.39-.03-13.87.59-.35,0-1.58-.12-1.58-.6l-.29-47.82c5.47,0,11.01-.12,16.52-.09Z"/>
  <polygon class="cls-70" points="176.23 430.96 146.05 431.01 146.02 416.77 162.02 416.45 176.71 416.36 176.23 430.96"/>
  <path class="cls-27" d="M226.02,432.45l-17.84.04c.45-5.16.86-10.1-.04-15.54l-13.91.07c-.27-.45.12-.95.81-.96l13.93-.16c.13-.77.39-1.91.96-1.96,2.27-.24,14.12.25,15.32,1.29,1.78,1.54,1.22,14.07.77,17.23Z"/>
  <path class="cls-61" d="M272.35,352.62l2,.91.21,58.54c.06,2.66-.67,4.31-3.51,4.23l-30.7.02.3,16.27-14.63-.15c-1.15-.67-1.66-1.73-1.67-3.34l-.08-12.62-15.3-.59-.09-47.4,47.72.28c.28-5.7.33-10.85-.32-15.71.32-.1.67-.34.78-.7.03-.77.25-1.52.91-1.98s14.48-.61,14.37,2.24Z"/>
  <path class="cls-38" d="M288.66,352.61c.78.1,1.88.3,2,.9.9,4.44.55,23.78.08,28.97l-2,1.47c2.11-.11,2.07.83-.13,1.11.78.08,1.96.32,2.01.87.27,3.3,1.14,27.53.34,28.73-.5.74-1.1,1.26-1.98,1.47-5.51.09-11.01.29-16.61.52-.4.02-.9-.12-1.31-.34.95-.93,1.52-2.42,1.51-4.29l-.22-59.39c4.91-2.9,11.48-2.99,16.31,0Z"/>
  <path class="cls-43" d="M255.96,432.65c-1.9,4.58-.56,9.25-.95,14.32l-15,.03.82-14.3,15.13-.04Z"/>
  <path class="cls-12" d="M304.01,385l.03,30.95-15.07.18-.36-31.07c4.5-1,10.75-.9,15.4-.06Z"/>
  <path class="cls-24" d="M302.95,417.26c-3.82,1.66-8.3.41-12.88.73v12.96s29.93.59,29.93.59l-30.95.45-.02-14.96,13.93.23Z"/>
  <polygon class="cls-43" points="142.83 433.99 142.94 447.01 98.01 447.01 98 418.03 110.73 417.93 111.33 433.79 142.83 433.99"/>
  <path class="cls-22" d="M300.98,455.01c.19,1.12.83,1.46,1.91,1,.44.3.83.89.8,1.33-.04.67-.34,1.19-.69,1.66.06.81-.31,2.47-1.36,2.56-.74.06-2.39.34-2.7-.33-.34-.74-.94-2.62-.91-3.33-.47-2.03-.21-3.63.76-4.81.54.76,1.45,1.53,2.2,1.92Z"/>
  <path class="cls-48" d="M298.79,453.08c.81,1.73.15,3.42-.76,4.81l-.81-.04c-.84-1.12-1.23-2.75-1.17-4.88l-1.09-2.1c1.69-.89,2.91.94,3.83,2.21Z"/>
  <path class="cls-56" d="M302.95,455c-.07.27-.08.72-.06,1.01-.11.82-.76,1.6-1.42,1.98s-2.03-.96-1.68-1.41l1.19-1.57c1.47-2.78,3.01-3.24,1.97-.01Z"/>
  <path class="cls-25" d="M302.95,455c.25-.58-.25-.74-.46-.65l-1.51.66c.99-1.31.69-3.32-1.13-4.83l4.32.15c-.27,1.7-.17,3.46-1.23,4.66Z"/>
  <path class="cls-48" d="M334.99,457.01c.49-.78.82-.68.99.25l.03.74-1.04-.02-1.05,3.14c-.41-.54-1.08-1.42-1.29-1.99-1.83-1.66-2.43-4.74.4-5.12.91-.91,1.57.09,1.97,3Z"/>
  <path class="cls-25" d="M335.98,457.26l-.99-.25c-1.16-2.19-1.15-3.53.02-4.01l.08-.92c1.27,1.71.83,3.38.89,5.17Z"/>
  <path class="cls-33" d="M243.01,273c-2.45,4.94.52,11.17-2,15v-15s2,0,2,0Z"/>
  <path class="cls-61" d="M144.36,368.58l-.05,31.86c.52,2.95-13.3,2.62-14.1,2.26-.74-.33-1.11-1.2-1.42-1.97-.2-5.31-.29-10.67-.28-16.07l-16.09-.05.49-16.09,31.45.06Z"/>
  <path class="cls-67" d="M128.78,400.73c2.04,1.01,2.57,3.5,1.6,7.47.51,3.63-.29,5.89-2.37,6.8l-14-.04c-.39-5.05.97-9.74-.81-14.27l14.77-.05.54-15.99c.75,5.32.47,10.9.28,16.07Z"/>
  <path class="cls-67" d="M112.14,398.97c-4.53.77-9.41.93-14.63.48.25-4.95.14-9.87-.32-14.76l11.55-.26c1.05-.02,1.87-.2,2.36.15.39.28,1.39,1.39,1.37,2.02l-.33,12.37Z"/>
  <path class="cls-33" d="M112.14,398.97l-.17,1.34-14.95-.29.17-15.32c1.78,4.52.42,9.22.81,14.26l14.13.02Z"/>
  <polygon class="cls-70" points="144.3 400.44 144.2 415 128.01 415 128.78 400.73 144.3 400.44"/>
  <path class="cls-67" d="M305.05,384.01l-1.04,1-15.4.06c.37-.26.26-.85.13-1.11l.88-2h12.33s.1-10.18.1-10.18l2.01-1.34c.58-.05,1.01.51,1.01,1.49l-.02,12.09Z"/>
  <path class="cls-56" d="M328.06,451.51c-.72,2.64-2.1,3.6-2.86,4.12-.69.47-2.88-1.01-3.19-2.24-.06-2.34,4.22-2.63,6.05-1.88Z"/>
  <path class="cls-36" d="M333,452.01c1.12.91,1.53,1.62.02,2-.74,1.6-.92,3.38-.4,5.12-1.17-.52-2.43-1.22-2.66-2.79-.33-2.23.89-5.47,2.01-4.88l1.04.55Z"/>
  <path class="cls-58" d="M328.56,462.51c-1.55.41-3.99-1.35-1.88-2.78.46.38,1.08.36,1.45-.13.08-.06.99-.11.12-2.66,2.42.05,2.51,1.72,2.53,2.72s-.98,2.53-2.22,2.85Z"/>
  <polygon class="cls-46" points="335.01 453 334.99 457.01 333.02 454.01 333 452.01 335.01 453"/>
  <path class="cls-46" d="M333.91,461.12c-.2-1.18-.05-2.74,1.05-3.14l.06,5.09c-1.79-.4-.78-1.52-1.1-1.95Z"/>
  <path class="cls-46" d="M322.41,460.07c-.68-1.51-.45-3.1-.36-4.56.26-.3.5-.52.52-.53.77,1.67.78,4.21-.16,5.09Z"/>
  <path class="cls-53" d="M297.22,457.85c-.05,1.05.05,2.24-.78,3.24-1.39-3.08-.66-5.52-.38-8.12.8,1.53,1.28,3.14,1.17,4.88Z"/>
  <path class="cls-64" d="M291.96,462.82c-1.87-.03-1.78-1.5-1.51-1.91.72-1.11.69-1.43,1.72-.54s1.37,2.48-.2,2.45Z"/>
  <path class="cls-62" d="M268.35,458.01c-.31,1.24-1.29,1.64-2.01,2.35-1.8-1.03-.88-4.11.59-5.12.86,1.44,1.09,2.61,1.42,2.78Z"/>
  <polygon class="cls-9" points="208.62 336.66 176.75 336.44 176.44 320.47 161.01 320.7 161.04 304.46 224.49 304.65 224.69 320.65 208.39 320.44 208.62 336.66"/>
  <path class="cls-46" d="M321.01,352.01v17s-16.35-.52-16.35-.52c-.56-3.04,7.64-3.42,8.39-.51,2.37-1.1,4.72-1.34,7.05-.72-1.45-1.53-1.49-2.28-.11-2.24l-.74-10.4-2.24-1.74c-.1.78-.36,1.95-.91,1.99-5.61.44-16.21.38-21.76-.2-3.03.58-4.92-.11-5.68-2.05-5.43-.05-10.88.1-16.31,0l-15.29-.26-.66-15.81,94.56.08.02,14.36-30.81.12c-.31,0,.26,1.35.85.89Z"/>
  <path class="cls-25" d="M287.94,320.26c-1.12-.29-3.1-.49-4.49.04-3.78,1.43-7.09.24-10.23.29l-.23-31.55h15.03s-.09,31.22-.09,31.22Z"/>
  <polygon class="cls-17" points="352.01 367.99 322.04 368.02 322.04 352.99 351.99 352.99 352.01 367.99"/>
  <path class="cls-83" d="M317.01,352.87l2.02.34.95,11.8.11,2.24c-2.63-.49-4.48-.13-7.05.72l-8.39.51c-.61-.02-.69,1.38-.6,1.94l-.07,13.53h-15.25s-.08-31.35-.08-31.35l28.35.26Z"/>
  <path class="cls-24" d="M332.11,192.89c-1.12.83-2.05,1.24-4.01,1.23l-22.05-.13.05,12.12c0,1.13-.33,1.93-1.08,1.92l.02-15.02,27.07-.12Z"/>
  <path class="cls-24" d="M351,176.77c-.28.47-.99,1.24-1.95,1.25l-11.06.05c-.3,4.54.95,9.09-.78,12.86l-.17-13.93,13.97-.24Z"/>
  <polygon class="cls-28" points="239.06 142.85 226 142.96 226 114.04 239.02 114.03 239.06 142.85"/>
  <path class="cls-21" d="M319.98,365.02c-2.63-3.84,1.13-9.29-2.98-12.14.95,0,1.75-.25,2.95-.9l.03,13.04Z"/>
  <path class="cls-21" d="M320.1,367.25c-1.85,1.4-4.73.62-7.05.72l3.4-2.13c1.11-.71,2.22.31,3.66,1.41Z"/>
</svg>